<?xml version="1.0" encoding="UTF-8" standalone="no"?>
<!-- Created with Inkscape (http://www.inkscape.org/) -->

<svg
   xmlns:dc="http://purl.org/dc/elements/1.1/"
   xmlns:cc="http://creativecommons.org/ns#"
   xmlns:rdf="http://www.w3.org/1999/02/22-rdf-syntax-ns#"
   xmlns:svg="http://www.w3.org/2000/svg"
   xmlns="http://www.w3.org/2000/svg"
   xmlns:xlink="http://www.w3.org/1999/xlink"
   xmlns:sodipodi="http://sodipodi.sourceforge.net/DTD/sodipodi-0.dtd"
   xmlns:inkscape="http://www.inkscape.org/namespaces/inkscape"
   width="568.31775"
   height="353.18924"
   id="svg5470"
   version="1.1"
   inkscape:version="0.48.4 r9939"
   sodipodi:docname="BPS_Catia_Top_PartRoles.svg">
  <defs
     id="defs5472">
    <pattern
       inkscape:collect="always"
       xlink:href="#Polkadots-med"
       id="pattern6300"
       patternTransform="matrix(10,0,0,10,28.284271,0)" />
    <pattern
       inkscape:collect="always"
       xlink:href="#Wavy"
       id="pattern6278"
       patternTransform="translate(26.769043,-0.00130762)" />
    <pattern
       inkscape:stockid="Polka dots, medium"
       id="Polkadots-med"
       patternTransform="translate(0,0) scale(10,10)"
       height="10"
       width="10"
       patternUnits="userSpaceOnUse"
       inkscape:collect="always">
      <circle
         id="circle4788"
         r="0.15"
         cy="0.810"
         cx="2.567"
         style="fill:black;stroke:none" />
      <circle
         id="circle4790"
         r="0.15"
         cy="2.33"
         cx="3.048"
         style="fill:black;stroke:none" />
      <circle
         id="circle4792"
         r="0.15"
         cy="2.415"
         cx="4.418"
         style="fill:black;stroke:none" />
      <circle
         id="circle4794"
         r="0.15"
         cy="3.029"
         cx="1.844"
         style="fill:black;stroke:none" />
      <circle
         id="circle4796"
         r="0.15"
         cy="1.363"
         cx="6.08"
         style="fill:black;stroke:none" />
      <circle
         id="circle4798"
         r="0.15"
         cy="4.413"
         cx="5.819"
         style="fill:black;stroke:none" />
      <circle
         id="circle4800"
         r="0.15"
         cy="4.048"
         cx="4.305"
         style="fill:black;stroke:none" />
      <circle
         id="circle4802"
         r="0.15"
         cy="3.045"
         cx="5.541"
         style="fill:black;stroke:none" />
      <circle
         id="circle4804"
         r="0.15"
         cy="5.527"
         cx="4.785"
         style="fill:black;stroke:none" />
      <circle
         id="circle4806"
         r="0.15"
         cy="5.184"
         cx="2.667"
         style="fill:black;stroke:none" />
      <circle
         id="circle4808"
         r="0.15"
         cy="1.448"
         cx="7.965"
         style="fill:black;stroke:none" />
      <circle
         id="circle4810"
         r="0.15"
         cy="5.049"
         cx="7.047"
         style="fill:black;stroke:none" />
      <circle
         id="circle4812"
         r="0.15"
         cy="0.895"
         cx="4.340"
         style="fill:black;stroke:none" />
      <circle
         id="circle4814"
         r="0.15"
         cy="0.340"
         cx="7.125"
         style="fill:black;stroke:none" />
      <circle
         id="circle4816"
         r="0.15"
         cy="1.049"
         cx="9.553"
         style="fill:black;stroke:none" />
      <circle
         id="circle4818"
         r="0.15"
         cy="2.689"
         cx="7.006"
         style="fill:black;stroke:none" />
      <circle
         id="circle4820"
         r="0.15"
         cy="2.689"
         cx="8.909"
         style="fill:black;stroke:none" />
      <circle
         id="circle4822"
         r="0.15"
         cy="4.407"
         cx="9.315"
         style="fill:black;stroke:none" />
      <circle
         id="circle4824"
         r="0.15"
         cy="3.870"
         cx="7.820"
         style="fill:black;stroke:none" />
      <circle
         id="circle4826"
         r="0.15"
         cy="5.948"
         cx="8.270"
         style="fill:black;stroke:none" />
      <circle
         id="circle4828"
         r="0.15"
         cy="7.428"
         cx="7.973"
         style="fill:black;stroke:none" />
      <circle
         id="circle4830"
         r="0.15"
         cy="8.072"
         cx="9.342"
         style="fill:black;stroke:none" />
      <circle
         id="circle4832"
         r="0.15"
         cy="9.315"
         cx="8.206"
         style="fill:black;stroke:none" />
      <circle
         id="circle4834"
         r="0.15"
         cy="9.475"
         cx="9.682"
         style="fill:black;stroke:none" />
      <circle
         id="circle4836"
         r="0.15"
         cy="6.186"
         cx="9.688"
         style="fill:black;stroke:none" />
      <circle
         id="circle4838"
         r="0.15"
         cy="6.296"
         cx="3.379"
         style="fill:black;stroke:none" />
      <circle
         id="circle4840"
         r="0.15"
         cy="8.204"
         cx="2.871"
         style="fill:black;stroke:none" />
      <circle
         id="circle4842"
         r="0.15"
         cy="8.719"
         cx="4.59"
         style="fill:black;stroke:none" />
      <circle
         id="circle4844"
         r="0.15"
         cy="9.671"
         cx="3.181"
         style="fill:black;stroke:none" />
      <circle
         id="circle4846"
         r="0.15"
         cy="7.315"
         cx="5.734"
         style="fill:black;stroke:none" />
      <circle
         id="circle4848"
         r="0.15"
         cy="6.513"
         cx="6.707"
         style="fill:black;stroke:none" />
      <circle
         id="circle4850"
         r="0.15"
         cy="9.670"
         cx="5.730"
         style="fill:black;stroke:none" />
      <circle
         id="circle4852"
         r="0.15"
         cy="8.373"
         cx="6.535"
         style="fill:black;stroke:none" />
      <circle
         id="circle4854"
         r="0.15"
         cy="7.154"
         cx="4.37"
         style="fill:black;stroke:none" />
      <circle
         id="circle4856"
         r="0.15"
         cy="7.25"
         cx="0.622"
         style="fill:black;stroke:none" />
      <circle
         id="circle4858"
         r="0.15"
         cy="5.679"
         cx="0.831"
         style="fill:black;stroke:none" />
      <circle
         id="circle4860"
         r="0.15"
         cy="8.519"
         cx="1.257"
         style="fill:black;stroke:none" />
      <circle
         id="circle4862"
         r="0.15"
         cy="6.877"
         cx="1.989"
         style="fill:black;stroke:none" />
      <circle
         id="circle4864"
         r="0.15"
         cy="3.181"
         cx="0.374"
         style="fill:black;stroke:none" />
      <circle
         id="circle4866"
         r="0.15"
         cy="1.664"
         cx="1.166"
         style="fill:black;stroke:none" />
      <circle
         id="circle4868"
         r="0.15"
         cy="0.093"
         cx="1.151"
         style="fill:black;stroke:none" />
      <circle
         id="circle4870"
         r="0.15"
         cy="10.093"
         cx="1.151"
         style="fill:black;stroke:none" />
      <circle
         id="circle4872"
         r="0.15"
         cy="4.451"
         cx="1.302"
         style="fill:black;stroke:none" />
      <circle
         id="circle4874"
         r="0.15"
         cy="3.763"
         cx="3.047"
         style="fill:black;stroke:none" />
    </pattern>
    <pattern
       inkscape:stockid="Wavy"
       id="Wavy"
       height="5.1805778"
       width="30.066020"
       patternUnits="userSpaceOnUse"
       inkscape:collect="always">
      <path
         id="path5144"
         d="M 7.597,0.061 C 5.079,-0.187 2.656,0.302 -0.01,1.788 L -0.01,3.061 C 2.773,1.431 5.173,1.052 7.472,1.280 C 9.770,1.508 11.969,2.361 14.253,3.218 C 18.820,4.931 23.804,6.676 30.066,3.061 L 30.062,1.788 C 23.622,5.497 19.246,3.770 14.691,2.061 C 12.413,1.207 10.115,0.311 7.597,0.061 z "
         style="fill:black;stroke:none;" />
    </pattern>
  </defs>
  <sodipodi:namedview
     id="base"
     pagecolor="#ffffff"
     bordercolor="#666666"
     borderopacity="1.0"
     inkscape:pageopacity="0.0"
     inkscape:pageshadow="2"
     inkscape:zoom="5.6"
     inkscape:cx="262.15492"
     inkscape:cy="100.35501"
     inkscape:document-units="px"
     inkscape:current-layer="g6165"
     showgrid="false"
     units="cm"
     fit-margin-top="0"
     fit-margin-left="1"
     fit-margin-right="1"
     fit-margin-bottom="0"
     inkscape:window-width="1920"
     inkscape:window-height="1018"
     inkscape:window-x="-8"
     inkscape:window-y="-8"
     inkscape:window-maximized="1">
    <inkscape:grid
       type="xygrid"
       id="grid3057" />
  </sodipodi:namedview>
  <metadata
     id="metadata5475">
    <rdf:RDF>
      <cc:Work
         rdf:about="">
        <dc:format>image/svg+xml</dc:format>
        <dc:type
           rdf:resource="http://purl.org/dc/dcmitype/StillImage" />
        <dc:title />
      </cc:Work>
    </rdf:RDF>
  </metadata>
  <g
     inkscape:label="Layer 1"
     inkscape:groupmode="layer"
     id="layer1"
     transform="translate(4.1374238,-17.457013)">
    <g
       id="g6165"
       transform="translate(-167.78791,-337.37517)">
      <g
         transform="matrix(0.42230327,0,0,0.42230327,199.10486,350.76865)"
         id="g2987">
        <path
           inkscape:connector-curvature="0"
           id="path2991"
           d="m 345.2,844.8 c -0.89395,-0.89395 -1.2,-11.5604 -1.2,-41.8218 l 0,-40.6218 -63.75,-88.29603 -63.75,-88.29602 -32.2821,-20.88218 C 166.46274,553.39698 151.73166,544 151.48215,544 c -0.24951,0 -0.57257,14.0625 -0.7179,31.25 C 150.53599,602.24367 150.2957,606.5 149,606.5 l 0,-262 c 1.22271,0 1.55247,1.98726 1.78383,10.75 l 0.28383,10.75 18.43715,0 18.43714,0 0.27902,-13.25 c 0.23138,-10.9871 0.53521,-13.25 1.77903,-13.25 1.22769,0 1.55133,2.04233 1.78275,11.25 0.15551,6.1875 0.6281,11.25 1.05019,11.25 0.4221,0 12.54878,-12.4875 26.94818,-27.75 25.95269,-27.50829 26.48392,-28.15939 60.98901,-74.75 19.14456,-25.85 48.65103,-65.16511 65.56996,-87.36691 l 30.76167,-40.36691 2.94912,-12.99029 C 381.6729,111.63122 383,105.15883 383,104.3928 383,103.31324 381.11591,103 374.62244,103 c -5.66065,0 -8.72799,-0.42226 -9.45814,-1.30204 -1.1759,-1.41687 -0.55621,-5.035268 1.40401,-8.19796 0.68177,-1.1 8.1046,-18.65 16.49518,-39 8.39058,-20.35 15.92855,-37.7875 16.75104,-38.75 1.29877,-1.519851 3.41489,-1.747986 16.09046,-1.734687 8.02725,0.0084 15.20331,0.400784 15.94678,0.871916 1.03204,0.653993 19.65367,43.902285 35.42883,82.282604 C 469.17655,101.78261 467.09925,103 457.33224,103 l -8.42287,0 0.62102,3.25 c 0.34156,1.7875 1.82446,8.30961 3.29532,14.49357 l 2.67429,11.24358 35.18776,46.25642 c 19.35326,25.44104 49.05326,64.99629 66,87.90057 30.21794,40.84092 31.31276,42.17178 56.76215,69 14.27245,15.04572 26.29539,27.50101 26.71764,27.67841 0.42225,0.1774 0.89479,-4.9976 1.05009,-11.5 C 641.44971,341.60578 641.76717,339.5 643,339.5 c 1.24382,0 1.54765,2.2629 1.77903,13.25 l 0.27902,13.25 16.93822,0 16.93823,0 0.28275,-11.14335 c 0.23675,-9.33041 0.56746,-11.32256 2.03275,-12.24488 1.2744,-0.80217 2.2256,-0.80188 3.5,0.001 l 0,265.77355 c -1.27603,0.80459 -2.22397,0.8046 -3.5,2e-5 -1.59481,-1.00557 -1.77345,-3.82067 -2.01445,-31.74488 C 679.0901,559.78866 678.63619,546 678.22686,546 c -0.40933,0 -14.64903,8.99035 -31.64377,19.97856 l -30.89954,19.97857 -63.33428,87.77143 -63.33428,87.77144 -0.007,41.05 c -0.006,30.58587 -0.31339,41.35589 -1.2075,42.25 -0.91051,0.91051 -18.11111,1.2 -71.3,1.2 -53.18889,0 -70.38949,-0.28949 -71.3,-1.2 z m 110.56073,-22.8005 c 4.19812,-1.59563 7.68242,-1.9995 17.25,-1.9995 L 485,820 l 0,-28 0,-28 -68.5,0 -68.5,0 0,28 0,28 11.75,8.1e-4 c 9.27916,6.5e-4 12.80142,0.41138 16.75,1.95323 4.60596,1.79854 7.7189,1.95606 39.5,1.99868 32.14075,0.0431 34.85975,-0.0905 39.76073,-1.95322 z M 485,714 l 0,-46 -68.5,0 -68.5,0 0,46 0,46 68.5,0 68.5,0 z m 65,-44.46129 C 550,669.24242 547.57805,669 544.6179,669 l -5.38211,0 -24.61789,33.51106 -24.6179,33.51105 0,8.61595 0,8.61595 30,-41.5883 c 16.5,-22.87356 30,-41.83071 30,-42.127 z M 344,699 l 0,-31 -22.5,0 C 306.72438,668 299,668.35374 299,669.03038 299,670.54204 342.54783,730 343.65499,730 343.84474,730 344,716.05 344,699 z m 168,0.43394 c 11.825,-16.19856 21.65,-29.89788 21.83333,-30.44293 C 534.04701,668.35575 526.05983,668 511.58333,668 L 489,668 l 0,30.5 c 0,16.775 0.3375,30.47432 0.75,30.44294 0.4125,-0.0314 10.425,-13.31044 22.25,-29.509 z M 344,625.5 l 0,-38.5 -33.65432,0 -33.65432,0 0.65026,12.75 c 0.35765,7.0125 0.65209,19.27688 0.65432,27.25417 l 0.004,14.50416 8.21976,11.24584 8.21976,11.24583 24.78024,0 24.78024,0 0,-38.5 z m 141,0 0,-38.5 -68.5,0 -68.5,0 0,38.5 0,38.5 68.5,0 68.5,0 z m 61.16726,27.25 8.33274,-11.25 0.33352,-27.25 0.33352,-27.25 -33.08352,0 -33.08352,0 0,38.5 0,38.5 24.41726,0 24.41727,0 z M 553,656.8 c 0,-3.41 -0.36993,-5.7725 -0.82206,-5.25 -1.45504,1.68149 -6.81884,8.90962 -7.56915,10.2 -0.53697,0.9235 0.46401,1.25 3.83219,1.25 L 553,663 z m 31.33412,-34.3 24.52569,-34 -4.04431,-0.31309 c -2.22437,-0.1722 -4.59651,-0.10118 -5.27143,0.15781 -0.67492,0.25899 -10.07344,12.44498 -20.8856,27.07997 L 559,642.03377 l 0,7.64978 c 0,4.20738 0.1819,7.46228 0.40421,7.23312 C 559.62653,656.6875 570.84499,641.2 584.33412,622.5 z m -310.33818,0.75 c -0.002,-5.9125 -0.29667,-16.4875 -0.65432,-23.5 l -0.65026,-12.75 -16.95267,0 c -14.17226,0 -16.86398,0.23111 -16.41194,1.40912 0.89339,2.32812 33.06049,45.59088 33.89813,45.59088 0.42632,0 0.7733,-4.8375 0.77106,-10.75 z M 577.91673,609.72408 C 586.76253,597.74733 594,587.73483 594,587.47408 594,587.21334 586.125,587 576.5,587 l -17.5,0 0,23.71429 c 0,20.48223 0.19309,23.51471 1.41673,22.25 0.7792,-0.80536 8.6542,-11.26345 17.5,-23.24021 z M 264,582.50313 c 0,-0.27328 -13.99557,-7.49748 -31.10126,-16.05378 -17.10569,-8.5563 -30.94319,-15.09034 -30.75,-14.52009 0.19319,0.57025 7.45241,7.79445 16.13159,16.05378 L 234.06067,583 l 14.96966,0 C 257.26365,583 264,582.77641 264,582.50313 z M 344,534.5 l 0,-48.5 -76,0 -76,0 0,27.99758 0,27.99758 40.75,20.44795 40.75,20.44794 35.25,0.0545 L 344,583 z m 141,0 0,-48.5 -68.5,0 -68.5,0 0,48.5 0,48.5 68.5,0 68.5,0 z m 114.5,27.69901 41,-20.69901 0.26582,-27.75 0.26582,-27.75 -76.01582,0 -76.01582,0 0,48.5 0,48.5 34.75,-0.051 34.75,-0.051 41,-20.69902 z m 14.75,5.67934 C 622.9125,559.59 630,552.40028 630,551.90119 c 0,-0.49909 -13.95,6.07037 -31,14.59881 -17.05,8.52844 -31,15.72985 -31,16.00313 0,0.27328 6.8625,0.48519 15.25,0.47091 l 15.25,-0.026 15.75,-15.06973 z m 5.56947,4.50079 c 3.47571,-5.26544 6.17571,-9.70314 6,-9.86156 -0.17571,-0.15842 -5.04447,4.15993 -10.81947,9.59633 l -10.5,9.88435 4.5,-0.0228 4.5,-0.0228 z m 35.24407,-18.49397 2.41496,-1.61484 -6.21074,-3.13516 c -3.4159,-1.72434 -6.78606,-3.11553 -7.48924,-3.09153 C 642.43874,546.08938 629,565.14117 629,566.9948 c 0,0.96778 20.22278,-9.20403 26.06354,-13.10963 z M 197.88634,557.75 c -9.38526,-14.08114 -7.92957,-13.25696 -16.12528,-9.12967 -3.8557,1.9417 -6.61677,3.90298 -6.13571,4.3584 1.54639,1.46396 25.8287,13.99056 27.15044,14.00619 0.70169,0.008 -1.49856,-4.14742 -4.88945,-9.23492 z m -23.1506,-10.5 c 2.34122,-0.9625 4.25845,-2.0875 4.26051,-2.5 C 178.99831,544.3375 174.95,544 170,544 c -4.95,0 -9,0.18081 -9,0.4018 0,0.81127 6.54624,4.56503 7.98949,4.58135 0.81922,0.009 3.40504,-0.77065 5.74625,-1.73315 z m 492.73033,0.0648 C 669.40973,546.38792 671,545.26292 671,544.81479 671,544.36665 666.95,544 662,544 c -4.95,0 -9,0.247 -9,0.54889 0,0.7035 8.10916,4.40013 9.71607,4.42915 0.66884,0.0121 2.80634,-0.73639 4.75,-1.66324 z M 344,426 l 0,-56 -76,0 -76,0 0,56 0,56 76,0 76,0 z m 141,0 0,-56 -68.5,0 -68.5,0 0,56 0,56 68.5,0 68.5,0 z m 156,0 0,-56 -76,0 -76,0 0,56 0,56 76,0 76,0 z m -297,-88 0,-28 -33.61176,0 -33.61175,0 -38.63825,26.6255 c -21.25103,14.64403 -39.29717,27.24403 -40.10253,28 -1.24302,1.16681 9.67413,1.3745 72.25,1.3745 L 344,366 z m 141,0 0,-28 -68.5,0 -68.5,0 0,28 0,28 68.5,0 68.5,0 z m 149.95536,27.25 c -0.0246,-0.4125 -17.89134,-13.0125 -39.70398,-28 L 555.59204,310 522.29602,310 489,310 l 0,28 0,28 73,0 c 40.15,0 72.97991,-0.3375 72.95536,-0.75 z M 344,269.91667 c 0,-21.12395 -0.3754,-35.94514 -0.9055,-35.75 -1.03515,0.38105 -61.41929,69.53739 -61.92783,70.92427 -0.19554,0.53326 12.72309,0.90906 31.25,0.90906 L 344,306 z M 384,265 l 0,-41 -18,0 -18,0 0,41 0,41 18,0 18,0 z m 60,0 0,-41 -28,0 -28,0 0,41 0,41 28,0 28,0 z m 41,0 0,-41 -18.5,0 -18.5,0 0,41 0,41 18.5,0 18.5,0 z m 66,40.14736 C 551,304.02701 491.4332,235.6444 490.05797,235.18599 489.32722,234.94241 489,245.83905 489,270.41667 L 489,306 l 31,0 c 17.05,0 31,-0.38369 31,-0.85264 z M 384,177 c 0,-41.5962 -0.0621,-43 -1.90217,-43 -1.17154,0 -2.27753,1.05629 -2.87938,2.75 -0.53746,1.5125 -7.55648,20.58725 -15.59782,42.38832 C 355.57928,200.9394 349,219.0519 349,219.38832 349,219.72475 356.875,220 366.5,220 l 17.5,0 z m 60,0 0,-43 -28,0 -28,0 0,43 0,43 28,0 28,0 z m 38.99028,41.75 c -0.005,-0.6875 -6.89855,-19.925 -15.31823,-42.75 -13.34439,-36.17544 -15.58843,-41.541 -17.49028,-41.81955 L 448,133.8609 l 0,43.06955 0,43.06955 17.5,0 c 13.33852,0 17.49769,-0.29725 17.49028,-1.25 z m -99.08996,-93 c -0.0847,-3.61042 -0.22017,-3.87378 -0.90032,-1.75 -1.15252,3.59873 -1.15252,6 0,6 0.55,0 0.95514,-1.9125 0.90032,-4.25 z M 444,116.5 l 0,-13.5 -28,0 -28,0 0,13.5 0,13.5 28,0 28,0 z m 6.35677,10.75 c -1.84456,-7.44496 -2.18374,-7.81838 -2.27082,-2.5 -0.0666,4.06699 0.25635,5.25 1.4331,5.25 1.15566,0 1.35606,-0.65787 0.83772,-2.75 z M 399,64.833333 c 0,-18.791666 -0.18156,-33.979166 -0.40347,-33.75 C 397.87202,31.831544 378,94.807227 378,96.355046 c 0,1.878678 2.32793,2.336736 12.75,2.508772 L 399,99 z M 429,58.5 429,18 l -13,0 -13,0 0,40.5 0,40.5 13,0 13,0 z m 24.94565,38.95435 C 454.58056,96.819436 451.26162,84.971301 444.45203,63.563529 438.69364,45.460479 433.76123,30.427892 433.49111,30.15778 433.221,29.887668 433,45.319005 433,64.449641 l 0,34.782974 9.98473,-0.40104 c 5.49161,-0.220572 10.42402,-0.840323 10.96092,-1.377225 z"
           style="fill:#8c8c8c"
           sodipodi:nodetypes="cscccsssccscccssssssscssssssssssscsscssssssscccssccssssccccssccsscccccccsssscccccccccsscccccssscssssscscscsccccsscccccccccccccccccccccccccccsssscsscssscssscscssscssscssssssscsscccccccccccccccccccccccccccccccccsssscccssscccsscssssssscssssscscssscccccccccccccccccccccccccccccccccsssccccccccccccscccccscsssscscccccccccccccccccccccccccccssscsssssssscsccccccccccsscccscsssscccccccccsssssssscscccccccccsscscss" />
        <path
           inkscape:connector-curvature="0"
           id="path2989"
           d="m 346.2,843.8 c -0.89352,-0.89352 -1.2,-11.46441 -1.2,-41.38984 l 0,-40.18984 -8.80401,-12.36016 C 324.69597,733.715 283.97089,677.25953 278.0846,669.3028 c -2.52153,-3.40846 -17.147,-23.67312 -32.50104,-45.03258 L 217.66713,585.43485 204.08356,576.5185 C 196.6126,571.61451 185.55,564.48751 179.5,560.68072 c -6.05,-3.80679 -14.72113,-9.3635 -19.26917,-12.34824 -4.54804,-2.98475 -8.71054,-5.15404 -9.25,-4.82063 C 150.37448,543.88659 150,555.74035 150,574.55902 150,594.18634 149.64477,605 149,605 l 1.21502,-248.75 0.28498,10.25 19,0 19,0 0.27988,-12.75 C 189.12698,337.93758 191,336.41139 191,351.94098 c 0,6.01754 0.39556,11.18545 0.87902,11.48425 0.48345,0.29879 13.30709,-12.61215 28.49697,-28.69099 27.50933,-29.11925 27.74483,-29.4059 59.87099,-72.87576 17.73916,-24.00284 41.46506,-55.72784 52.72422,-70.5 49.99575,-65.59506 45.33503,-58.40076 48.97051,-75.59103 3.10689,-14.69083 3.6459,-13.64305 -7.19171,-13.97992 L 365.5,101.5 l 0.307,-2.872181 c 0.16885,-1.579699 0.91313,-3.829699 1.65395,-5 C 368.20177,92.457519 375.66788,74.85 384.0523,54.5 c 8.38443,-20.35 15.93866,-37.5625 16.78719,-38.25 2.15044,-1.742355 28.1111,-1.742355 30.47204,0 0.93158,0.6875 4.43021,8 7.77474,16.25 13.69731,33.787409 24.19277,58.973763 26.09934,62.631607 3.1183,5.982593 2.26937,6.744333 -7.88902,7.078783 L 448.5,102.5 l 0.31826,3.95024 c 0.72054,8.94316 5.23784,24.77095 8.39383,29.41041 1.73575,2.55164 3.44626,4.86435 3.80113,5.13935 0.35487,0.275 4.65957,5.89085 9.566,12.47966 4.90643,6.58881 9.46233,12.66381 10.12423,13.5 0.99262,1.25399 35.87974,46.97096 41.4586,54.32841 0.91413,1.20556 14.59357,19.74193 30.39875,41.19193 15.80518,21.45 30.08184,40.575 31.7259,42.5 8.24624,9.65536 56.31373,59.72152 56.9633,59.33186 0.4125,-0.24744 0.75,-5.59834 0.75,-11.89088 0,-15.90963 1.86631,-14.80923 2.22012,1.30902 l 0.27988,12.75 17.5,0 17.5,0 0.28287,-10.65483 c 0.20911,-7.87694 0.66537,-10.97229 1.75,-11.87245 L 681.5,607 C 680.22691,605.94343 680,601.15988 680,575.37756 680,545.97455 679.93773,545 678.05902,545 c -1.06754,0 -2.18549,0.39562 -2.48433,0.87915 -0.29884,0.48353 -5.8379,4.16958 -12.30902,8.19123 -24.66124,15.32636 -41.56985,26.31202 -46.5167,30.22228 -3.06778,2.42494 -5.28996,3.58436 -5.52403,2.88215 -0.59508,-1.78523 -11.32629,-1.49255 -14.00243,0.38189 -2.01562,1.4118 -2.22251,1.4097 -2.22251,-0.0226 0,-1.39129 -2.17229,-1.54682 -18.25,-1.30671 L 558.5,586.5 558.2239,610 c -0.19081,16.2403 0.0781,24.16701 0.87035,25.65913 0.91395,1.72127 0.81784,2.62829 -0.4739,4.47251 -1.96948,2.81182 -2.28348,17.83366 -0.43466,20.79409 1.19875,1.91951 -0.0364,4.07887 -6.55436,11.45855 -1.84534,2.08931 -1.84794,2.08103 -0.20844,-0.66253 0.91313,-1.52803 1.38997,-3.21553 1.05965,-3.75 -0.84691,-1.37034 -12.8405,-1.21379 -14.24016,0.18587 -0.87682,0.87682 -1.50153,0.87219 -2.57547,-0.0191 -1.01789,-0.84478 -7.87054,-1.10081 -24.29238,-0.90762 L 488.5,667.5 l -0.26405,31.75 c -0.23314,28.03397 -0.0838,31.75 1.27568,31.75 1.38313,0 1.38456,0.30007 0.014,2.95034 -1.05887,2.04763 -1.52568,5.90792 -1.52568,12.61663 0,9.03063 0.12592,9.63336 1.91482,9.16556 1.88573,-0.49313 1.88579,-0.45313 0.004,2.63336 -1.79832,2.94919 -1.9113,5.52668 -1.91482,43.68411 -0.003,30.20128 -0.30999,40.85625 -1.20374,41.75 -0.91018,0.91018 -17.88889,1.2 -70.3,1.2 -52.41111,0 -69.38982,-0.28982 -70.3,-1.2 z m 108.42788,-20.52187 c 2.77358,-1.23337 7.70213,-1.87171 17.37212,-2.25 l 13.5,-0.52813 0,-28.5 0,-28.5 -69,0 -69,0 0,28.5 0,28.5 13,0.54349 c 8.62817,0.36071 14.34518,1.09368 17,2.17953 3.42529,1.40099 8.97522,1.64618 38.62788,1.70652 30.69569,0.0625 35.06757,-0.12507 38.5,-1.65141 z M 485.5,714 l 0,-46.5 -69,0 -69,0 -0.26068,45.5 c -0.14338,25.025 -0.0438,46.06561 0.22126,46.7569 0.38183,0.99581 14.76902,1.20354 69.26068,1 L 485.5,760.5 z M 344.76451,698.93549 344.5,667.5 321.56924,667.23076 c -12.93226,-0.15184 -23.32962,0.12962 -23.8455,0.6455 -0.55298,0.55298 8.2711,13.44046 22.31262,32.58738 13.42605,18.30765 23.59982,31.30018 24.11001,30.78999 0.48545,-0.48545 0.76362,-15.02862 0.61814,-32.31814 z M 344.5,625.5 l 0,-39 -34,0 -34,0 0.35853,27.5 c 0.29791,22.85009 0.62457,27.92272 1.93188,30 0.86534,1.375 4.65086,6.67021 8.41227,11.76713 l 6.83892,9.26712 25.2292,-0.26712 L 344.5,664.5 z m 141,0 0,-39 -69,0 -69,0 -0.26227,37.99684 c -0.14424,20.89827 -0.0447,38.56387 0.22127,39.25691 0.38372,0.99997 14.67986,1.20703 69.26226,1.00315 L 485.5,664.5 z m 54.90821,37.00454 2.31271,-2.49545 -0.48679,2.54645 c -0.48497,2.53698 -0.46307,2.54533 5.88954,2.24546 L 554.5,664.5 l 0.29697,-7.40642 c 0.3835,-9.56473 -0.11952,-11.00435 -2.96292,-8.4797 -1.66284,1.47643 -1.4954,0.90866 0.77085,-2.61388 l 2.8951,-4.5 0,-27.5 0,-27.5 -33.5,0 -33.5,0 -0.26227,37.99684 c -0.14424,20.89827 -0.0459,38.56077 0.21862,39.25 0.3673,0.95718 6.28618,1.25316 25.06001,1.25316 l 24.57914,0 z m -265.72497,-50.5619 c -0.34986,-13.23155 -0.89827,-24.48155 -1.21869,-25 -0.72959,-1.18051 -35.14754,-1.26459 -35.87493,-0.0876 -0.75777,1.2261 34.62792,49.07645 36.32006,49.11385 1.19192,0.0263 1.31142,-3.68492 0.77356,-24.0262 z M 266.48468,583.0248 C 267.03715,582.13087 202.30494,549 200.00588,549 199.45265,549 199,549.38021 199,549.84491 c 0,0.4647 7.88855,8.3397 17.53012,17.5 L 234.06023,584 l 15.91087,0 c 9.25885,0 16.16285,-0.40771 16.51358,-0.9752 z M 344.5,534.5 l 0,-49 -76.5,0 -76.5,0 -0.26554,28.22765 -0.26553,28.22765 4.08477,2.5786 c 2.24662,1.41823 20.75873,10.88391 41.13803,21.03485 L 273.24499,584.025 308.8725,583.7625 344.5,583.5 z m 141,0 0,-49 -69,0 -69,0 -0.26041,48 c -0.14323,26.4 -0.0437,48.56561 0.22126,49.2569 0.38162,0.99581 14.76864,1.20354 69.26041,1 L 485.5,583.5 z m 114.7195,28.75 41.2805,-20.75 0,-28.5 0,-28.5 -76.5,0 -76.5,0 -0.26041,48 c -0.14323,26.4 -0.0448,48.5625 0.21861,49.25 0.3706,0.96707 8.40136,1.25 35.47992,1.25 l 35.00089,0 z M 599.8,582.8 c 0.93333,-0.93333 1.46667,-0.93333 2.4,0 1.579,1.579 9.99288,1.54383 11.9623,-0.05 0.84951,-0.6875 4.84856,-6.11535 8.88677,-12.06189 4.03821,-5.94655 7.77357,-11.0785 8.30079,-11.40434 0.52723,-0.32584 -0.48503,1.5058 -2.24946,4.0703 -3.21968,4.67965 -3.32604,7.3125 -0.24925,6.17003 C 633.48322,567.80412 658,553.53685 658,552.56125 658,551.34499 645.88494,545 643.56263,545 c -0.76973,0 -2.33795,1.4625 -3.48494,3.25 -2.90066,4.5205 -7.26872,9.5957 -6.54206,7.60115 0.33039,-0.90687 0.0907,-1.96404 -0.5326,-2.34928 -0.79369,-0.49052 -0.61617,-1.27186 0.59236,-2.60728 0.94913,-1.04877 1.40546,-2.22707 1.01408,-2.61846 -1.02344,-1.02343 -69.82164,33.57155 -69.09644,34.74496 0.91791,1.4852 32.78617,1.27971 34.28697,-0.22109 z m 29.21199,-8.44672 c 10.14442,-6.74559 8.95345,-7.94743 -2.22454,-2.24484 -4.04366,2.06292 -6.6845,4.4637 -6.75565,6.14156 -0.0673,1.58641 2.23988,0.58528 8.98019,-3.89672 z M 209,575.53518 c 0,-0.25565 -1.0125,-1.00432 -2.25,-1.66372 -2.04022,-1.08712 -2.12204,-1.04378 -0.87756,0.46482 1.27783,1.54902 3.12756,2.25809 3.12756,1.1989 z m -4,-7.87129 c 0,-1.10956 -12.52466,-20.3293 -14.97154,-22.97462 C 189.09357,543.67857 174,551.04212 174,552.50892 c 0,0.95501 28.39998,16.41765 30.25,16.4699 0.4125,0.0116 0.75,-0.58007 0.75,-1.31493 z m 436,-1.73949 c 0,-0.4739 -0.675,-0.60261 -1.5,-0.28603 -0.825,0.31659 -1.5,0.96334 -1.5,1.43723 0,0.4739 0.675,0.60261 1.5,0.28603 0.825,-0.31659 1.5,-0.96334 1.5,-1.43723 z M 175.75,547.80798 c 2.90876,-1.20562 5.13085,-2.66812 4.93797,-3.25 C 180.24611,543.2249 159,542.54568 159,543.86463 c 0,1.16831 7.98172,6.04367 9.98067,6.09635 0.81437,0.0215 3.86057,-0.94739 6.76933,-2.153 z m 492.67226,-0.0744 c 7.05492,-4.01746 5.97008,-4.83496 -5.99597,-4.51834 -6.02623,0.15944 -10.90896,0.72492 -11.09389,1.28479 -0.33935,1.02736 8.98157,5.36591 11.6676,5.43084 0.825,0.0199 3.26502,-0.96884 5.42226,-2.19729 z M 188,513.4899 188,486 l -18.5,0 -18.5,0 0,26.96502 0,26.96501 10.25,0.28499 c 5.6375,0.15674 13.9625,0.39293 18.5,0.52488 l 8.25,0.2399 z M 668.14669,540 679,540 l 0,-27 0,-27 -17,0 -17,0 0,27.64246 0,27.64245 6.14669,-0.64245 c 3.38068,-0.35335 11.03068,-0.64246 17,-0.64246 z M 344.5,426 l 0,-56.5 -76.5,0 -76.5,0 -0.25973,55.5 c -0.14286,30.525 -0.0434,56.06531 0.22101,56.75625 0.38126,0.99627 16.26683,1.20323 76.75974,1 L 344.5,482.5 z m 141,0 0,-56.5 -69,0 -69,0 -0.25973,55.5 c -0.14286,30.525 -0.0433,56.06561 0.22126,56.7569 0.38108,0.99582 14.76767,1.20354 69.25973,1 L 485.5,482.5 z m 156,0 0,-56.5 -76.5,0 -76.5,0 -0.25973,55.5 c -0.14286,30.525 -0.0434,56.06531 0.22101,56.75625 0.38126,0.99627 16.26683,1.20323 76.75974,1 L 641.5,482.5 z m -454.5,49.5 0,-6.5 -18,0 -18,0 0,6.5 0,6.5 18,0 18,0 z m -27,4.48469 c -1.33333,-0.87528 -1.33333,-1.0941 0,-1.96938 0.825,-0.54158 1.725,-0.98468 2,-0.98468 0.275,0 1.175,0.4431 2,0.98468 1.33333,0.87528 1.33333,1.0941 0,1.96938 -0.825,0.54158 -1.725,0.98468 -2,0.98468 -0.275,0 -1.175,-0.4431 -2,-0.98468 z M 679,475.5 l 0,-6.5 -17,0 -17,0 0,6.5 0,6.5 17,0 17,0 z M 187.35754,458.85331 c 0.99557,-9.52508 0.76218,-17.33359 -0.55754,-18.65331 -1.68427,-1.68427 -33.91573,-1.68427 -35.6,0 -1.31972,1.31972 -1.55311,9.12823 -0.55754,18.65331 L 151.28491,465 169,465 l 17.71509,0 z m 492,0 c 0.99557,-9.52508 0.76218,-17.33359 -0.55754,-18.65331 -0.83077,-0.83077 -6,-1.2 -16.8,-1.2 -10.8,0 -15.96923,0.36923 -16.8,1.2 -1.31972,1.31972 -1.55311,9.12823 -0.55754,18.65331 L 645.28491,465 662,465 l 16.71509,0 z M 186.8,435.8 c 0.67104,-0.67104 1.2,-3.88889 1.2,-7.3 0,-3.41111 -0.52896,-6.62896 -1.2,-7.3 -1.68427,-1.68427 -33.91573,-1.68427 -35.6,0 -0.67104,0.67104 -1.2,3.88889 -1.2,7.3 0,3.41111 0.52896,6.62896 1.2,7.3 1.68427,1.68427 33.91573,1.68427 35.6,0 z m 492,0 c 0.67104,-0.67104 1.2,-3.88889 1.2,-7.3 0,-3.41111 -0.52896,-6.62896 -1.2,-7.3 -0.83077,-0.83077 -6,-1.2 -16.8,-1.2 -10.8,0 -15.96923,0.36923 -16.8,1.2 -0.67104,0.67104 -1.2,3.88889 -1.2,7.3 0,3.41111 0.52896,6.62896 1.2,7.3 1.67991,1.67991 31.92009,1.67991 33.6,0 z m -492,-19 c 0.81569,-0.81569 1.2,-5.55556 1.2,-14.8 0,-9.24444 -0.38431,-13.98431 -1.2,-14.8 -0.83695,-0.83695 -6.22222,-1.2 -17.8,-1.2 -11.57778,0 -16.96305,0.36305 -17.8,1.2 -0.81569,0.81569 -1.2,5.55556 -1.2,14.8 0,9.24444 0.38431,13.98431 1.2,14.8 1.68427,1.68427 33.91573,1.68427 35.6,0 z m 492,0 c 0.81569,-0.81569 1.2,-5.55556 1.2,-14.8 0,-9.24444 -0.38431,-13.98431 -1.2,-14.8 -0.83077,-0.83077 -6,-1.2 -16.8,-1.2 -10.8,0 -15.96923,0.36923 -16.8,1.2 -0.81569,0.81569 -1.2,5.55556 -1.2,14.8 0,9.24444 0.38431,13.98431 1.2,14.8 1.67991,1.67991 31.92009,1.67991 33.6,0 z m -492,-34 c 0.66,-0.66 1.2,-2.595 1.2,-4.3 0,-4.95905 -1.30748,-5.5 -13.29362,-5.5 -10.05262,0 -10.934,0.1544 -11.41663,2 -0.66252,2.53347 -4.50651,2.76881 -4.08359,0.25 0.22266,-1.32609 -0.50924,-1.82709 -3.02148,-2.06823 -1.82343,-0.17503 -3.96093,0.21757 -4.75,0.87244 -1.7419,1.44565 -1.89328,7.08719 -0.23468,8.74579 1.68427,1.68427 33.91573,1.68427 35.6,0 z m 492.18202,-0.27833 c 0.86762,-1.04543 0.9657,-2.58282 0.33493,-5.25 -0.78344,-3.31274 -1.25245,-3.77167 -3.85446,-3.77167 -2.26669,0 -2.89348,0.41102 -2.66865,1.75 0.42292,2.51881 -3.42107,2.28347 -4.08359,-0.25 -0.48263,-1.8456 -1.36401,-2 -11.41663,-2 C 645.30748,373 644,373.54095 644,378.5 c 0,5.20353 0.97444,5.5 18.07756,5.5 12.61353,0 15.91734,-0.28893 16.90446,-1.47833 z M 344.5,338 l 0,-28.5 -33.76485,-0.26332 c -30.559,-0.23832 -34.02455,-0.0992 -36.5,1.46563 C 263.55063,317.45622 195,365.39499 195,366.11296 c 0,0.52729 30.94414,0.79364 74.75,0.64341 L 344.5,366.5 z m 141,0 0,-28.5 -69,0 -69,0 -0.2665,27.48581 c -0.14658,15.11719 -0.047,28.0578 0.22126,28.7569 0.38932,1.01454 14.36977,1.21924 69.2665,1.01419 L 485.5,366.5 z m 151.25633,27.75 c -0.35684,-1.087 -39.45863,-28.63258 -70.62332,-49.75118 l -10.36698,-7.02514 -33.63302,0.26316 L 488.5,309.5 l -0.2665,27.48581 c -0.14658,15.11719 -0.0482,28.05469 0.21861,28.75 0.7089,1.84734 148.91064,1.86152 148.30422,0.0142 z m -21.62762,-23.5 c -4.44824,-4.8125 -12.93443,-13.84079 -18.85821,-20.06286 L 585.5,310.87428 575.00853,311.18714 564.51706,311.5 585.00853,325.61158 C 615.20919,346.40944 622.01469,351 622.64684,351 c 0.31327,0 -3.06989,-3.9375 -7.51813,-8.75 z M 344.76267,270.06267 c 0.14447,-20.04053 -0.12052,-36.82052 -0.58887,-37.28887 -0.89784,-0.89784 -63.43881,70.21188 -63.99981,72.76844 -0.28407,1.29452 3.83303,1.45171 32,1.22171 L 344.5,306.5 z M 384.5,265 l 0,-41.5 -18.5,0 -18.5,0 -0.26156,40.49869 c -0.14386,22.27427 -0.0416,41.07197 0.22731,41.77264 0.3767,0.98169 4.68105,1.21141 18.76156,1.00132 L 384.5,306.5 z m 60,0 0,-41.5 -28.5,0 -28.5,0 -0.26156,40.49869 c -0.14386,22.27427 -0.0428,41.0688 0.22461,41.76561 0.37991,0.99003 6.6662,1.20888 28.76156,1.00132 L 444.5,306.5 z m 41,0 0,-41.5 -19,0 -19,0 -0.26156,40.49869 c -0.14386,22.27427 -0.0417,41.07174 0.22712,41.77215 0.37696,0.98235 4.78011,1.21125 19.26155,1.00131 L 485.5,306.5 z m 67,40.27361 C 552.5,303.47495 490.90583,233 489.33383,233 488.24653,233 488,239.71548 488,269.33333 c 0,19.98334 0.30621,36.63955 0.68047,37.01381 0.37426,0.37425 14.88676,0.56175 32.25,0.41666 24.12142,-0.20156 31.56953,-0.55314 31.56953,-1.49019 z m 28.26653,-0.47402 c -0.22008,-0.66023 -13.42008,-18.86523 -29.33333,-40.45556 -25.72828,-34.90686 -29.23749,-39.26007 -31.68029,-39.29959 -3.78515,-0.0612 -27.06474,4.03738 -28.06179,4.94057 -0.72243,0.65444 60.1815,71.69502 64.0969,74.76499 2.20604,1.7297 25.554,1.77605 24.97851,0.0496 z M 494.91667,224.35932 C 495.14583,224.1617 493.90833,224 492.16667,224 490.425,224 489,224.45857 489,225.01905 c 0,0.89686 4.72224,0.37032 5.91667,-0.65973 z M 384.5,177 l 0,-43.5 -2.27083,-0.32228 c -1.7671,-0.25079 -2.57752,0.41467 -3.65346,3 C 375.45535,143.67548 348,218.86338 348,219.91088 c 0,0.81417 5.1499,1.05732 18.25,0.86168 L 384.5,220.5 z m 60,0 0,-43.5 -28.5,0 -28.5,0 -0.26105,42.5 c -0.14358,23.375 -0.0425,43.06953 0.22461,43.76562 0.37925,0.98831 6.68093,1.20742 28.76105,1 L 444.5,220.5 z m 39.90353,43.15609 c 0.50607,-0.81884 -26.62752,-75.41771 -30.16065,-82.92122 -1.33895,-2.8436 -2.35333,-3.73487 -4.25075,-3.73487 l -2.49213,0 -0.26105,42.5 c -0.14358,23.375 -0.0452,43.0625 0.21861,43.75 0.55942,1.45783 36.05484,1.84797 36.94597,0.40609 z m 32.27524,-1.55082 C 516.03856,216.93691 462.09706,146 461.46863,146 c -0.4228,0 2.34148,7.93492 11.84456,34 2.50656,6.875 6.35037,17.45 8.5418,23.5 2.19143,6.05 4.45941,12.2375 5.03996,13.75 l 1.05555,2.75 14.63174,0 c 12.10434,0 14.53929,-0.24092 14.09653,-1.39473 z M 384.79772,124.23996 C 384.96195,120.79777 384.67365,118 384.15471,118 c -1.26924,0 -1.95398,2.00613 -2.76084,8.08853 -0.61826,4.66064 -0.51088,5.08098 1.21394,4.75213 1.57512,-0.3003 1.94208,-1.40635 2.18991,-6.6007 z M 444.5,116.5 l 0,-14 -28.5,0 -28.5,0 -0.28135,12.94711 c -0.15474,7.12092 -0.0537,13.54045 0.22461,14.26562 0.40565,1.05711 6.11156,1.26584 28.78135,1.05289 L 444.5,130.5 z m 6.98574,13.52307 c 0.33208,-0.53731 0.17876,-2.67481 -0.3407,-4.75 -0.51946,-2.07519 -1.22318,-5.01057 -1.56381,-6.52307 C 448.43414,113.65664 447,115.92536 447,122.83333 c 0,3.75834 0.3,7.13334 0.66667,7.5 0.98391,0.98392 3.12682,0.80983 3.81907,-0.31026 z M 399.76263,63.75 C 399.93628,40.113137 399.68215,28 399.01263,28 398.45568,28 398,28.206013 398,28.457807 c 0,0.251794 -4.74836,15.37682 -10.55191,33.61117 -5.80356,18.23435 -10.41369,33.871107 -10.24475,34.748348 0.44027,2.286175 4.10345,3.043176 13.79666,2.851104 L 399.5,99.5 z M 429.5,58.5 l 0,-41 -13.5,0 -13.5,0 -0.26169,39.998335 c -0.14393,21.999085 -0.0405,40.57471 0.2298,41.279166 0.37301,0.972033 3.69084,1.213526 13.7617,1.001665 L 429.5,99.5 z m 25.11476,39.313815 c 1.48736,-1.487366 1.41398,-2.238192 -0.92508,-9.46467 C 452.29236,84.032115 447.26492,68.4625 442.51761,53.75 437.7703,39.0375 433.46175,27 432.94307,27 c -1.12726,0 -1.31727,71.284847 -0.19307,72.431947 0.4125,0.420904 5.13733,0.592503 10.49962,0.381336 7.25832,-0.285835 10.16242,-0.796754 11.36514,-1.999468 z M 461.5,94.416667 c 0,-1.450193 -10.83459,-27.415407 -11.26156,-26.988442 -0.37033,0.370335 7.48577,26.245286 8.46323,27.874561 0.61291,1.021635 2.79833,0.329599 2.79833,-0.886119 z m 32.47019,656.639023 c 0.57231,-1.06937 1.53482,-2.24977 2.13891,-2.62312 0.6041,-0.37335 0.32492,0.50159 -0.62038,1.94431 -2.00162,3.05486 -3.03812,3.51819 -1.51853,0.67881 z m 5,-7 c 0.57231,-1.06937 1.53482,-2.24977 2.13891,-2.62312 0.6041,-0.37335 0.32492,0.50159 -0.62038,1.94431 -2.00162,3.05486 -3.03812,3.51819 -1.51853,0.67881 z m 8,-11 c 0.57231,-1.06937 1.53482,-2.24977 2.13891,-2.62312 0.6041,-0.37335 0.32492,0.50159 -0.62038,1.94431 -2.00162,3.05486 -3.03812,3.51819 -1.51853,0.67881 z m -13.45891,-6.43257 C 494.45659,725.18041 495.4191,724 495.65019,724 c 0.72338,0 -1.6049,3.85397 -2.75929,4.56743 -0.6041,0.37335 -0.32492,-0.50159 0.62038,-1.94431 z m 18.45891,-0.56743 c 0.57231,-1.06937 1.53482,-2.24977 2.13891,-2.62312 0.6041,-0.37335 0.32492,0.50159 -0.62038,1.94431 -2.00162,3.05486 -3.03812,3.51819 -1.51853,0.67881 z m 8,-11 c 0.57231,-1.06937 1.53482,-2.24977 2.13891,-2.62312 0.6041,-0.37335 0.32492,0.50159 -0.62038,1.94431 -2.00162,3.05486 -3.03812,3.51819 -1.51853,0.67881 z m -15.45891,-3.43257 C 505.45659,710.18041 506.4191,709 506.65019,709 c 0.72338,0 -1.6049,3.85397 -2.75929,4.56743 -0.6041,0.37335 -0.32492,-0.50159 0.62038,-1.94431 z m 20.45891,-3.56743 c 0.57231,-1.06937 1.53482,-2.24977 2.13891,-2.62312 0.6041,-0.37335 0.32492,0.50159 -0.62038,1.94431 -2.00162,3.05486 -3.03812,3.51819 -1.51853,0.67881 z m 5,-7 c 0.57231,-1.06937 1.53482,-2.24977 2.13891,-2.62312 0.6041,-0.37335 0.32492,0.50159 -0.62038,1.94431 -2.00162,3.05486 -3.03812,3.51819 -1.51853,0.67881 z m -11.45891,-8.43257 C 519.45659,691.18041 520.4191,690 520.65019,690 c 0.72338,0 -1.6049,3.85397 -2.75929,4.56743 -0.6041,0.37335 -0.32492,-0.50159 0.62038,-1.94431 z m 19.45891,-2.56743 c 0.57231,-1.06937 1.53482,-2.24977 2.13891,-2.62312 0.6041,-0.37335 0.32492,0.50159 -0.62038,1.94431 -2.00162,3.05486 -3.03812,3.51819 -1.51853,0.67881 z m 5,-7 c 0.57231,-1.06937 1.53482,-2.24977 2.13891,-2.62312 0.6041,-0.37335 0.32492,0.50159 -0.62038,1.94431 -2.00162,3.05486 -3.03812,3.51819 -1.51853,0.67881 z m -13.45891,-5.43257 C 530.45659,676.18041 531.4191,675 531.65019,675 c 0.72338,0 -1.6049,3.85397 -2.75929,4.56743 -0.6041,0.37335 -0.32492,-0.50159 0.62038,-1.94431 z m 34.45891,-23.56743 c 0.57231,-1.06937 1.53482,-2.24977 2.13891,-2.62312 0.6041,-0.37335 0.32492,0.50159 -0.62038,1.94431 -2.00162,3.05486 -3.03812,3.51819 -1.51853,0.67881 z m 5,-7 c 0.57231,-1.06937 1.53482,-2.24977 2.13891,-2.62312 0.6041,-0.37335 0.32492,0.50159 -0.62038,1.94431 -2.00162,3.05486 -3.03812,3.51819 -1.51853,0.67881 z m 5,-7 c 0.57231,-1.06937 1.53482,-2.24977 2.13891,-2.62312 0.6041,-0.37335 0.32492,0.50159 -0.62038,1.94431 -2.00162,3.05486 -3.03812,3.51819 -1.51853,0.67881 z m -8.45891,-11.43257 C 566.45659,627.18041 567.4191,626 567.65019,626 c 0.72338,0 -1.6049,3.85397 -2.75929,4.56743 -0.6041,0.37335 -0.32492,-0.50159 0.62038,-1.94431 z m 16.45891,0.43257 c 0.57231,-1.06937 1.53482,-2.24977 2.13891,-2.62312 0.6041,-0.37335 0.32492,0.50159 -0.62038,1.94431 -2.00162,3.05486 -3.03812,3.51819 -1.51853,0.67881 z m 5,-7 c 0.57231,-1.06937 1.53482,-2.24977 2.13891,-2.62312 0.6041,-0.37335 0.32492,0.50159 -0.62038,1.94431 -2.00162,3.05486 -3.03812,3.51819 -1.51853,0.67881 z m 8,-11 c 0.57231,-1.06937 1.53482,-2.24977 2.13891,-2.62312 0.6041,-0.37335 0.32492,0.50159 -0.62038,1.94431 -2.00162,3.05486 -3.03812,3.51819 -1.51853,0.67881 z m -12.45891,-5.43257 C 583.45659,604.18041 584.4191,603 584.65019,603 c 0.72338,0 -1.6049,3.85397 -2.75929,4.56743 -0.6041,0.37335 -0.32492,-0.50159 0.62038,-1.94431 z m 17.45891,-1.56743 c 0.57231,-1.06937 1.53482,-2.24977 2.13891,-2.62312 0.6041,-0.37335 0.32492,0.50159 -0.62038,1.94431 -2.00162,3.05486 -3.03812,3.51819 -1.51853,0.67881 z m 8,-11 c 0.57231,-1.06937 1.53482,-2.24977 2.13891,-2.62312 0.6041,-0.37335 0.32492,0.50159 -0.62038,1.94431 -2.00162,3.05486 -3.03812,3.51819 -1.51853,0.67881 z"
           style="fill:#616161"
           sodipodi:nodetypes="cscssscssscscccccsssssssscsssssssscsssssssscsscccsccssssssssscscsssssssscsscsscsssccsscccccccssssccccsssccscsssssccccsssccccccccscsccccsscssscccccscscccsccccsssscssccccccssccccccccscsccccccccscsccssssssssssscscsssscsssssssscssssssscscsssscsccccccssccscccccccssccccsssccccccscsccccccssscccccccccccssssssscccccccccsssscccsssssscccssssssssssssssssssssssssssssssssssssssssssssssssssccscssccccccscsccsscccscssscccssssssscsccccscsccccccscsccccccscsccssssssssscssssssccssssccccccsssccssscsssssssscsssssssccccscsccsssscssssssscsccccscsccsssssssssssssssssssssssssssssssssssssssssssssssssssssssssssssssssssssssssssssssssssssssssssssssssssssss" />
      </g>
      <use
         height="1052.3622"
         width="744.09448"
         transform="matrix(-1,0,0,1,750.61201,0)"
         id="use6098"
         xlink:href="#path6096"
         y="0"
         x="0" />
      <g
         style="fill:url(#Wavy);fill-opacity:1"
         id="g6104">
        <path
           style="fill:url(#Wavy);fill-opacity:1;stroke:#000000;stroke-width:1px;stroke-linecap:butt;stroke-linejoin:miter;stroke-opacity:1"
           d="m 374.92735,480.84432 12.30433,-0.0718 0.12069,-36.42474 17.46906,0.24659 -0.13804,61.25 65.89696,0 -0.625,49.0625 -94.64285,0.35714"
           id="path6096"
           inkscape:connector-curvature="0"
           sodipodi:nodetypes="cccccccc" />
        <path
           style="fill:url(#Wavy);fill-opacity:1;stroke:#000000;stroke-width:1px;stroke-linecap:butt;stroke-linejoin:miter;stroke-opacity:1"
           d="m 404.56609,597.79354 29.7995,0 0,34.85026 -29.29442,38.89087 z"
           id="path6100"
           inkscape:connector-curvature="0" />
      </g>
      <use
         height="1052.3622"
         width="744.09448"
         transform="matrix(-1,0,0,1,749.53318,-0.50507627)"
         id="use6102"
         xlink:href="#path6100"
         y="0"
         x="0" />
      <g
         style="fill:#afafaf;fill-opacity:1"
         id="g6112"
         transform="translate(-0.11048543,0)">
        <path
           style="fill:#afafaf;fill-opacity:1;stroke:#000000;stroke-width:1px;stroke-linecap:butt;stroke-linejoin:miter;stroke-opacity:1"
           d="m 404.56609,554.86205 83.33759,0.25254 -0.25254,24.74874 -17.67767,-0.25254 -35.35534,18.18275 -30.05204,-0.50508 z"
           id="path6108"
           inkscape:connector-curvature="0" />
        <path
           sodipodi:nodetypes="cccc"
           style="fill:#afafaf;fill-opacity:1;stroke:#000000;stroke-width:1px;stroke-linecap:butt;stroke-linejoin:miter;stroke-opacity:1"
           d="m 374.51658,406.29075 12.62628,0 0.35714,73.92857 -12.89954,0"
           id="path6110"
           inkscape:connector-curvature="0" />
      </g>
      <use
         height="1052.3622"
         width="744.09448"
         transform="matrix(-1,0,0,1,749.07476,-0.00294035)"
         id="use6116"
         xlink:href="#g6112"
         y="0"
         x="0" />
      <path
         inkscape:connector-curvature="0"
         id="path6118"
         d="m 344.96709,555.36713 59.599,-0.50508 0,150.00766 -60.10407,2.0203 z"
         style="fill:url(#Polkadots-med);fill-opacity:1;stroke:#000000;stroke-width:1px;stroke-linecap:butt;stroke-linejoin:miter;stroke-opacity:1" />
    </g>
    <g
       id="g6302"
       transform="translate(-2.0203051,5.0507627)">
      <rect
         y="12.913906"
         x="317.69296"
         height="22.223356"
         width="94.954338"
         id="rect6180"
         style="fill:url(#pattern6278);fill-opacity:1;stroke:#000000;stroke-opacity:1" />
      <rect
         style="fill:#afafaf;fill-opacity:1;stroke:#000000;stroke-opacity:1"
         id="rect6182"
         width="94.954338"
         height="22.223356"
         x="317.69296"
         y="43.97607" />
      <rect
         y="75.038284"
         x="317.69296"
         height="22.223356"
         width="94.954338"
         id="rect6186"
         style="fill:url(#pattern6300);fill-opacity:1;stroke:#000000;stroke-opacity:1" />
      <text
         sodipodi:linespacing="125%"
         id="text6280"
         y="28.352734"
         x="428.30469"
         style="font-size:12px;font-style:normal;font-weight:normal;line-height:125%;letter-spacing:0px;word-spacing:0px;fill:#000000;fill-opacity:1;stroke:none;font-family:Sans"
         xml:space="preserve"><tspan
           y="28.352734"
           x="428.30469"
           id="tspan6282"
           sodipodi:role="line">топливные баки</tspan></text>
      <text
         sodipodi:linespacing="125%"
         id="text6284"
         y="59.306499"
         x="427.75977"
         style="font-size:12px;font-style:normal;font-weight:normal;line-height:125%;letter-spacing:0px;word-spacing:0px;fill:#000000;fill-opacity:1;stroke:none;font-family:Sans"
         xml:space="preserve"><tspan
           id="tspan6288"
           y="59.306499"
           x="427.75977"
           sodipodi:role="line">шассийные отсеки</tspan></text>
      <text
         sodipodi:linespacing="125%"
         id="text6292"
         y="88.449768"
         x="428.1875"
         style="font-size:12px;font-style:normal;font-weight:normal;line-height:125%;letter-spacing:0px;word-spacing:0px;fill:#000000;fill-opacity:1;stroke:none;font-family:Sans"
         xml:space="preserve"><tspan
           y="88.449768"
           x="428.1875"
           id="tspan6294"
           sodipodi:role="line">отсек двигателя</tspan></text>
      <text
         sodipodi:linespacing="125%"
         id="text6296"
         y="119.485"
         x="315.67267"
         style="font-size:12px;font-style:normal;font-weight:normal;line-height:125%;letter-spacing:0px;word-spacing:0px;fill:#000000;fill-opacity:1;stroke:none;font-family:Sans"
         xml:space="preserve"><tspan
           y="119.485"
           x="315.67267"
           id="tspan6298"
           sodipodi:role="line">Остальные отсеки - БРЭО</tspan></text>
    </g>
  </g>
</svg>
