<?xml version="1.0" encoding="UTF-8" standalone="no"?>
<svg
   xmlns:dc="http://purl.org/dc/elements/1.1/"
   xmlns:cc="http://creativecommons.org/ns#"
   xmlns:rdf="http://www.w3.org/1999/02/22-rdf-syntax-ns#"
   xmlns:svg="http://www.w3.org/2000/svg"
   xmlns="http://www.w3.org/2000/svg"
   xmlns:xlink="http://www.w3.org/1999/xlink"
   xmlns:sodipodi="http://sodipodi.sourceforge.net/DTD/sodipodi-0.dtd"
   xmlns:inkscape="http://www.inkscape.org/namespaces/inkscape"
   width="700"
   height="375"
   viewBox="0 0 700 375"
   id="svg2"
   version="1.1"
   inkscape:version="0.48.4 r9939"
   sodipodi:docname="CuttingForces.pdf">
  <metadata
     id="metadata164">
    <rdf:RDF>
      <cc:Work
         rdf:about="">
        <dc:format>image/svg+xml</dc:format>
        <dc:type
           rdf:resource="http://purl.org/dc/dcmitype/StillImage" />
        <dc:title>Gnuplot</dc:title>
      </cc:Work>
    </rdf:RDF>
  </metadata>
  <defs
     id="defs162" />
  <sodipodi:namedview
     pagecolor="#ffffff"
     bordercolor="#666666"
     borderopacity="1"
     objecttolerance="10"
     gridtolerance="10"
     guidetolerance="10"
     inkscape:pageopacity="0"
     inkscape:pageshadow="2"
     inkscape:window-width="1920"
     inkscape:window-height="1018"
     id="namedview160"
     showgrid="false"
     inkscape:zoom="1.5152288"
     inkscape:cx="406.77453"
     inkscape:cy="243.4586"
     inkscape:window-x="-8"
     inkscape:window-y="-8"
     inkscape:window-maximized="1"
     inkscape:current-layer="g150" />
  <title
     id="title4">Gnuplot</title>
  <desc
     id="desc6">Produced by GNUPLOT 4.6 patchlevel 5 </desc>
  <g
     id="gnuplot_canvas">
    <rect
       x="0"
       y="0"
       width="700"
       height="375"
       fill="none"
       id="rect9" />
    <defs
       id="defs11">
      <circle
         id="gpDot"
         r="0.5"
         stroke-width="0.5" />
      <path
         id="gpPt0"
         stroke-width="0.222"
         stroke="currentColor"
         d="M-1,0 h2 M0,-1 v2" />
      <path
         id="gpPt1"
         stroke-width="0.222"
         stroke="currentColor"
         d="M-1,-1 L1,1 M1,-1 L-1,1" />
      <path
         id="gpPt2"
         stroke-width="0.222"
         stroke="currentColor"
         d="M-1,0 L1,0 M0,-1 L0,1 M-1,-1 L1,1 M-1,1 L1,-1" />
      <rect
         id="gpPt3"
         stroke-width="0.222"
         stroke="currentColor"
         x="-1"
         y="-1"
         width="2"
         height="2" />
      <rect
         id="gpPt4"
         stroke-width="0.222"
         stroke="currentColor"
         fill="currentColor"
         x="-1"
         y="-1"
         width="2"
         height="2" />
      <circle
         id="gpPt5"
         stroke-width="0.222"
         stroke="currentColor"
         cx="0"
         cy="0"
         r="1" />
      <use
         xlink:href="#gpPt5"
         id="gpPt6"
         fill="currentColor"
         stroke="none" />
      <path
         id="gpPt7"
         stroke-width="0.222"
         stroke="currentColor"
         d="M0,-1.33 L-1.33,0.67 L1.33,0.67 z" />
      <use
         xlink:href="#gpPt7"
         id="gpPt8"
         fill="currentColor"
         stroke="none" />
      <use
         xlink:href="#gpPt7"
         id="gpPt9"
         stroke="currentColor"
         transform="rotate(180)" />
      <use
         xlink:href="#gpPt9"
         id="gpPt10"
         fill="currentColor"
         stroke="none" />
      <use
         xlink:href="#gpPt3"
         id="gpPt11"
         stroke="currentColor"
         transform="rotate(45)" />
      <use
         xlink:href="#gpPt11"
         id="gpPt12"
         fill="currentColor"
         stroke="none" />
    </defs>
    <g
       style="fill:none; color:white; stroke:black; stroke-width:1.00; stroke-linecap:butt; stroke-linejoin:miter"
       id="g27" />
    <g
       style="fill:none; color:black; stroke:currentColor; stroke-width:1.00; stroke-linecap:butt; stroke-linejoin:miter"
       id="g29">
      <path
         stroke="black"
         d="M70.5,317.4 L79.5,317.4 M675.0,317.4 L666.0,317.4  "
         id="path31" />
      <g
         transform="translate(62.2,321.9)"
         style="stroke:none; fill:black; font-family:Arial; font-size:12.00pt; text-anchor:end"
         id="g33">
        <text
           id="text35"> 0</text>
      </g>
      <path
         stroke="black"
         d="M70.5,274.4 L79.5,274.4 M675.0,274.4 L666.0,274.4  "
         id="path37" />
      <g
         transform="translate(62.2,278.9)"
         style="stroke:none; fill:black; font-family:Arial; font-size:12.00pt; text-anchor:end"
         id="g39">
        <text
           id="text41"> 2000</text>
      </g>
      <path
         stroke="black"
         d="M70.5,231.5 L79.5,231.5 M675.0,231.5 L666.0,231.5  "
         id="path43" />
      <g
         transform="translate(62.2,236.0)"
         style="stroke:none; fill:black; font-family:Arial; font-size:12.00pt; text-anchor:end"
         id="g45">
        <text
           id="text47"> 4000</text>
      </g>
      <path
         stroke="black"
         d="M70.5,188.5 L79.5,188.5 M675.0,188.5 L666.0,188.5  "
         id="path49" />
      <g
         transform="translate(62.2,193.0)"
         style="stroke:none; fill:black; font-family:Arial; font-size:12.00pt; text-anchor:end"
         id="g51">
        <text
           id="text53"> 6000</text>
      </g>
      <path
         stroke="black"
         d="M70.5,145.6 L79.5,145.6 M675.0,145.6 L666.0,145.6  "
         id="path55" />
      <g
         transform="translate(62.2,150.1)"
         style="stroke:none; fill:black; font-family:Arial; font-size:12.00pt; text-anchor:end"
         id="g57">
        <text
           id="text59"> 8000</text>
      </g>
      <path
         stroke="black"
         d="M70.5,102.6 L79.5,102.6 M675.0,102.6 L666.0,102.6  "
         id="path61" />
      <g
         transform="translate(62.2,107.1)"
         style="stroke:none; fill:black; font-family:Arial; font-size:12.00pt; text-anchor:end"
         id="g63">
        <text
           id="text65"> 10000</text>
      </g>
      <path
         stroke="black"
         d="M70.5,59.7 L79.5,59.7 M675.0,59.7 L666.0,59.7  "
         id="path67" />
      <g
         transform="translate(62.2,64.2)"
         style="stroke:none; fill:black; font-family:Arial; font-size:12.00pt; text-anchor:end"
         id="g69">
        <text
           id="text71"> 12000</text>
      </g>
      <path
         stroke="black"
         d="M70.5,16.7 L79.5,16.7 M675.0,16.7 L666.0,16.7  "
         id="path73" />
      <g
         transform="translate(62.2,21.2)"
         style="stroke:none; fill:black; font-family:Arial; font-size:12.00pt; text-anchor:end"
         id="g75">
        <text
           id="text77"> 14000</text>
      </g>
      <path
         stroke="black"
         d="M70.5,317.4 L70.5,308.4 M70.5,16.7 L70.5,25.7  "
         id="path79" />
      <g
         transform="translate(70.5,339.9)"
         style="stroke:none; fill:black; font-family:Arial; font-size:12.00pt; text-anchor:middle"
         id="g81">
        <text
           id="text83"> 0</text>
      </g>
      <path
         stroke="black"
         d="M137.7,317.4 L137.7,308.4 M137.7,16.7 L137.7,25.7  "
         id="path85" />
      <g
         transform="translate(137.7,339.9)"
         style="stroke:none; fill:black; font-family:Arial; font-size:12.00pt; text-anchor:middle"
         id="g87">
        <text
           id="text89"> 2</text>
      </g>
      <path
         stroke="black"
         d="M204.8,317.4 L204.8,308.4 M204.8,16.7 L204.8,25.7  "
         id="path91" />
      <g
         transform="translate(204.8,339.9)"
         style="stroke:none; fill:black; font-family:Arial; font-size:12.00pt; text-anchor:middle"
         id="g93">
        <text
           id="text95"> 4</text>
      </g>
      <path
         stroke="black"
         d="M272.0,317.4 L272.0,308.4 M272.0,16.7 L272.0,25.7  "
         id="path97" />
      <g
         transform="translate(272.0,339.9)"
         style="stroke:none; fill:black; font-family:Arial; font-size:12.00pt; text-anchor:middle"
         id="g99">
        <text
           id="text101"> 6</text>
      </g>
      <path
         stroke="black"
         d="M339.2,317.4 L339.2,308.4 M339.2,16.7 L339.2,25.7  "
         id="path103" />
      <g
         transform="translate(339.2,339.9)"
         style="stroke:none; fill:black; font-family:Arial; font-size:12.00pt; text-anchor:middle"
         id="g105">
        <text
           id="text107"> 8</text>
      </g>
      <path
         stroke="black"
         d="M406.3,317.4 L406.3,308.4 M406.3,16.7 L406.3,25.7  "
         id="path109" />
      <g
         transform="translate(406.3,339.9)"
         style="stroke:none; fill:black; font-family:Arial; font-size:12.00pt; text-anchor:middle"
         id="g111">
        <text
           id="text113"> 10</text>
      </g>
      <path
         stroke="black"
         d="M473.5,317.4 L473.5,308.4 M473.5,16.7 L473.5,25.7  "
         id="path115" />
      <g
         transform="translate(473.5,339.9)"
         style="stroke:none; fill:black; font-family:Arial; font-size:12.00pt; text-anchor:middle"
         id="g117">
        <text
           id="text119"> 12</text>
      </g>
      <path
         stroke="black"
         d="M540.7,317.4 L540.7,308.4 M540.7,16.7 L540.7,25.7  "
         id="path121" />
      <g
         transform="translate(540.7,339.9)"
         style="stroke:none; fill:black; font-family:Arial; font-size:12.00pt; text-anchor:middle"
         id="g123">
        <text
           id="text125"> 14</text>
      </g>
      <path
         stroke="black"
         d="M607.8,317.4 L607.8,308.4 M607.8,16.7 L607.8,25.7  "
         id="path127" />
      <g
         transform="translate(607.8,339.9)"
         style="stroke:none; fill:black; font-family:Arial; font-size:12.00pt; text-anchor:middle"
         id="g129">
        <text
           id="text131"> 16</text>
      </g>
      <path
         stroke="black"
         d="M675.0,317.4 L675.0,308.4 M675.0,16.7 L675.0,25.7  "
         id="path133" />
      <g
         transform="translate(675.0,339.9)"
         style="stroke:none; fill:black; font-family:Arial; font-size:12.00pt; text-anchor:middle"
         id="g135">
        <text
           id="text137"> 18</text>
      </g>
      <path
         stroke="black"
         d="M70.5,16.7 L70.5,317.4 L675.0,317.4 L675.0,16.7 L70.5,16.7 Z  "
         id="path139" />
      <g
         transform="translate(372.7,366.9)"
         style="stroke:none; fill:black; font-family:Arial; font-size:12.00pt; text-anchor:middle"
         id="g141">
        <text
           id="text143">z</text>
      </g>
    </g>
    <g
       id="gnuplot_plot_1">
      <title
         id="title146">gnuplot_plot_1</title>
      <g
         style="fill:none; color:red; stroke:currentColor; stroke-width:1.00; stroke-linecap:butt; stroke-linejoin:miter"
         id="g148">
        <g
           transform="translate(607.9,39.2)"
           style="stroke:none; fill:black; font-family:Arial; font-size:12.00pt; text-anchor:end"
           id="g150">
          <text
             id="text152">$Q_\text{аэр}[\text{кгc}]$</text>
        </g>
        <path
           d="M616.2,34.7 L658.4,34.7 M70.5,314.9 L92.2,166.5 L128.6,62.3 L159.6,22.6 L192.5,53.9 L225.4,82.9    L256.6,109.4 L286.0,131.1 L315.5,151.0 L345.0,169.5 L371.9,186.6 L396.2,199.7 L420.5,211.9 L444.7,221.1    L470.1,236.6 L496.4,252.1 L522.8,266.4 L549.1,279.5 L575.5,291.3 L601.9,301.8 L628.2,310.8 L641.4,317.4     "
           id="path154" />
      </g>
    </g>
    <g
       style="fill:none; color:black; stroke:currentColor; stroke-width:1.00; stroke-linecap:butt; stroke-linejoin:miter"
       id="g156">
      <path
         stroke="black"
         d="M70.5,16.7 L70.5,317.4 L675.0,317.4 L675.0,16.7 L70.5,16.7 Z  "
         id="path158" />
    </g>
  </g>
</svg>
