<?xml version="1.0" encoding="UTF-8" standalone="no"?>
<svg
   xmlns:dc="http://purl.org/dc/elements/1.1/"
   xmlns:cc="http://creativecommons.org/ns#"
   xmlns:rdf="http://www.w3.org/1999/02/22-rdf-syntax-ns#"
   xmlns:svg="http://www.w3.org/2000/svg"
   xmlns="http://www.w3.org/2000/svg"
   xmlns:xlink="http://www.w3.org/1999/xlink"
   xmlns:sodipodi="http://sodipodi.sourceforge.net/DTD/sodipodi-0.dtd"
   xmlns:inkscape="http://www.inkscape.org/namespaces/inkscape"
   width="700"
   height="600"
   viewBox="0 0 700 600"
   id="svg2"
   version="1.1"
   inkscape:version="0.48.4 r9939"
   sodipodi:docname="Heights.pdf">
  <metadata
     id="metadata307">
    <rdf:RDF>
      <cc:Work
         rdf:about="">
        <dc:format>image/svg+xml</dc:format>
        <dc:type
           rdf:resource="http://purl.org/dc/dcmitype/StillImage" />
        <dc:title>Gnuplot</dc:title>
      </cc:Work>
    </rdf:RDF>
  </metadata>
  <defs
     id="defs305" />
  <sodipodi:namedview
     pagecolor="#ffffff"
     bordercolor="#666666"
     borderopacity="1"
     objecttolerance="10"
     gridtolerance="10"
     guidetolerance="10"
     inkscape:pageopacity="0"
     inkscape:pageshadow="2"
     inkscape:window-width="1366"
     inkscape:window-height="744"
     id="namedview303"
     showgrid="false"
     inkscape:zoom="0.78666667"
     inkscape:cx="482.30707"
     inkscape:cy="278.04553"
     inkscape:window-x="0"
     inkscape:window-y="24"
     inkscape:window-maximized="1"
     inkscape:current-layer="gnuplot_canvas" />
  <title
     id="title4">Gnuplot</title>
  <desc
     id="desc6">Produced by GNUPLOT 4.6 patchlevel 4 </desc>
  <g
     id="gnuplot_canvas">
    <rect
       x="0"
       y="0"
       width="700"
       height="600"
       fill="none"
       id="rect9" />
    <defs
       id="defs11">
      <circle
         id="gpDot"
         r="0.5"
         stroke-width="0.5" />
      <path
         id="gpPt0"
         stroke-width="0.222"
         stroke="currentColor"
         d="M-1,0 h2 M0,-1 v2" />
      <path
         id="gpPt1"
         stroke-width="0.222"
         stroke="currentColor"
         d="M-1,-1 L1,1 M1,-1 L-1,1" />
      <path
         id="gpPt2"
         stroke-width="0.222"
         stroke="currentColor"
         d="M-1,0 L1,0 M0,-1 L0,1 M-1,-1 L1,1 M-1,1 L1,-1" />
      <rect
         id="gpPt3"
         stroke-width="0.222"
         stroke="currentColor"
         x="-1"
         y="-1"
         width="2"
         height="2" />
      <rect
         id="gpPt4"
         stroke-width="0.222"
         stroke="currentColor"
         fill="currentColor"
         x="-1"
         y="-1"
         width="2"
         height="2" />
      <circle
         id="gpPt5"
         stroke-width="0.222"
         stroke="currentColor"
         cx="0"
         cy="0"
         r="1" />
      <use
         xlink:href="#gpPt5"
         id="gpPt6"
         fill="currentColor"
         stroke="none" />
      <path
         id="gpPt7"
         stroke-width="0.222"
         stroke="currentColor"
         d="M0,-1.33 L-1.33,0.67 L1.33,0.67 z" />
      <use
         xlink:href="#gpPt7"
         id="gpPt8"
         fill="currentColor"
         stroke="none" />
      <use
         xlink:href="#gpPt7"
         id="gpPt9"
         stroke="currentColor"
         transform="rotate(180)" />
      <use
         xlink:href="#gpPt9"
         id="gpPt10"
         fill="currentColor"
         stroke="none" />
      <use
         xlink:href="#gpPt3"
         id="gpPt11"
         stroke="currentColor"
         transform="rotate(45)" />
      <use
         xlink:href="#gpPt11"
         id="gpPt12"
         fill="currentColor"
         stroke="none" />
    </defs>
    <g
       style="fill:none; color:white; stroke:currentColor; stroke-width:1.00; stroke-linecap:butt; stroke-linejoin:miter"
       id="g27" />
    <g
       style="fill:none; color:black; stroke:currentColor; stroke-width:1.00; stroke-linecap:butt; stroke-linejoin:miter"
       id="g29" />
    <g
       style="fill:none; color:gray; stroke:currentColor; stroke-width:1.00; stroke-linecap:butt; stroke-linejoin:miter"
       id="g31">
      <path
         stroke="gray"
         stroke-dasharray=" 2,4"
         class="gridline"
         d="M63.6,542.4 L675.0,542.4  h0.01"
         id="path33" />
    </g>
    <g
       style="fill:none; color:black; stroke:currentColor; stroke-width:1.00; stroke-linecap:butt; stroke-linejoin:miter"
       id="g35">
      <path
         stroke="black"
         d="M63.6,542.4 L72.6,542.4 M675.0,542.4 L666.0,542.4  h0.01"
         id="path37" />
      <g
         transform="translate(55.3,546.9)"
         style="stroke:none; fill:black; font-family:Arial; font-size:12.00pt; text-anchor:end"
         id="g39">
        <text
           id="text41"> 0</text>
      </g>
    </g>
    <g
       style="fill:none; color:gray; stroke:currentColor; stroke-width:1.00; stroke-linecap:butt; stroke-linejoin:miter"
       id="g43">
      <path
         stroke="gray"
         stroke-dasharray=" 2,4"
         class="gridline"
         d="M63.6,484.0 L675.0,484.0  h0.01"
         id="path45" />
    </g>
    <g
       style="fill:none; color:black; stroke:currentColor; stroke-width:1.00; stroke-linecap:butt; stroke-linejoin:miter"
       id="g47">
      <path
         stroke="black"
         d="M63.6,484.0 L72.6,484.0 M675.0,484.0 L666.0,484.0  h0.01"
         id="path49" />
      <g
         transform="translate(55.3,488.5)"
         style="stroke:none; fill:black; font-family:Arial; font-size:12.00pt; text-anchor:end"
         id="g51">
        <text
           id="text53"> 2</text>
      </g>
    </g>
    <g
       style="fill:none; color:gray; stroke:currentColor; stroke-width:1.00; stroke-linecap:butt; stroke-linejoin:miter"
       id="g55">
      <path
         stroke="gray"
         stroke-dasharray=" 2,4"
         class="gridline"
         d="M63.6,425.6 L675.0,425.6  h0.01"
         id="path57" />
    </g>
    <g
       style="fill:none; color:black; stroke:currentColor; stroke-width:1.00; stroke-linecap:butt; stroke-linejoin:miter"
       id="g59">
      <path
         stroke="black"
         d="M63.6,425.6 L72.6,425.6 M675.0,425.6 L666.0,425.6  h0.01"
         id="path61" />
      <g
         transform="translate(55.3,430.1)"
         style="stroke:none; fill:black; font-family:Arial; font-size:12.00pt; text-anchor:end"
         id="g63">
        <text
           id="text65"> 4</text>
      </g>
    </g>
    <g
       style="fill:none; color:gray; stroke:currentColor; stroke-width:1.00; stroke-linecap:butt; stroke-linejoin:miter"
       id="g67">
      <path
         stroke="gray"
         stroke-dasharray=" 2,4"
         class="gridline"
         d="M63.6,367.2 L675.0,367.2  h0.01"
         id="path69" />
    </g>
    <g
       style="fill:none; color:black; stroke:currentColor; stroke-width:1.00; stroke-linecap:butt; stroke-linejoin:miter"
       id="g71">
      <path
         stroke="black"
         d="M63.6,367.2 L72.6,367.2 M675.0,367.2 L666.0,367.2  h0.01"
         id="path73" />
      <g
         transform="translate(55.3,371.7)"
         style="stroke:none; fill:black; font-family:Arial; font-size:12.00pt; text-anchor:end"
         id="g75">
        <text
           id="text77"> 6</text>
      </g>
    </g>
    <g
       style="fill:none; color:gray; stroke:currentColor; stroke-width:1.00; stroke-linecap:butt; stroke-linejoin:miter"
       id="g79">
      <path
         stroke="gray"
         stroke-dasharray=" 2,4"
         class="gridline"
         d="M63.6,308.8 L675.0,308.8  h0.01"
         id="path81" />
    </g>
    <g
       style="fill:none; color:black; stroke:currentColor; stroke-width:1.00; stroke-linecap:butt; stroke-linejoin:miter"
       id="g83">
      <path
         stroke="black"
         d="M63.6,308.8 L72.6,308.8 M675.0,308.8 L666.0,308.8  h0.01"
         id="path85" />
      <g
         transform="translate(55.3,313.3)"
         style="stroke:none; fill:black; font-family:Arial; font-size:12.00pt; text-anchor:end"
         id="g87">
        <text
           id="text89"> 8</text>
      </g>
    </g>
    <g
       style="fill:none; color:gray; stroke:currentColor; stroke-width:1.00; stroke-linecap:butt; stroke-linejoin:miter"
       id="g91">
      <path
         stroke="gray"
         stroke-dasharray=" 2,4"
         class="gridline"
         d="M63.6,250.3 L675.0,250.3  h0.01"
         id="path93" />
    </g>
    <g
       style="fill:none; color:black; stroke:currentColor; stroke-width:1.00; stroke-linecap:butt; stroke-linejoin:miter"
       id="g95">
      <path
         stroke="black"
         d="M63.6,250.3 L72.6,250.3 M675.0,250.3 L666.0,250.3  h0.01"
         id="path97" />
      <g
         transform="translate(55.3,254.8)"
         style="stroke:none; fill:black; font-family:Arial; font-size:12.00pt; text-anchor:end"
         id="g99">
        <text
           id="text101"> 10</text>
      </g>
    </g>
    <g
       style="fill:none; color:gray; stroke:currentColor; stroke-width:1.00; stroke-linecap:butt; stroke-linejoin:miter"
       id="g103">
      <path
         stroke="gray"
         stroke-dasharray=" 2,4"
         class="gridline"
         d="M63.6,191.9 L675.0,191.9  h0.01"
         id="path105" />
    </g>
    <g
       style="fill:none; color:black; stroke:currentColor; stroke-width:1.00; stroke-linecap:butt; stroke-linejoin:miter"
       id="g107">
      <path
         stroke="black"
         d="M63.6,191.9 L72.6,191.9 M675.0,191.9 L666.0,191.9  h0.01"
         id="path109" />
      <g
         transform="translate(55.3,196.4)"
         style="stroke:none; fill:black; font-family:Arial; font-size:12.00pt; text-anchor:end"
         id="g111">
        <text
           id="text113"> 12</text>
      </g>
    </g>
    <g
       style="fill:none; color:gray; stroke:currentColor; stroke-width:1.00; stroke-linecap:butt; stroke-linejoin:miter"
       id="g115">
      <path
         stroke="gray"
         stroke-dasharray=" 2,4"
         class="gridline"
         d="M63.6,133.5 L675.0,133.5  h0.01"
         id="path117" />
    </g>
    <g
       style="fill:none; color:black; stroke:currentColor; stroke-width:1.00; stroke-linecap:butt; stroke-linejoin:miter"
       id="g119">
      <path
         stroke="black"
         d="M63.6,133.5 L72.6,133.5 M675.0,133.5 L666.0,133.5  h0.01"
         id="path121" />
      <g
         transform="translate(55.3,138.0)"
         style="stroke:none; fill:black; font-family:Arial; font-size:12.00pt; text-anchor:end"
         id="g123">
        <text
           id="text125"> 14</text>
      </g>
    </g>
    <g
       style="fill:none; color:gray; stroke:currentColor; stroke-width:1.00; stroke-linecap:butt; stroke-linejoin:miter"
       id="g127">
      <path
         stroke="gray"
         stroke-dasharray=" 2,4"
         class="gridline"
         d="M63.6,75.1 L71.9,75.1 M587.2,75.1 L675.0,75.1  h0.01"
         id="path129" />
    </g>
    <g
       style="fill:none; color:black; stroke:currentColor; stroke-width:1.00; stroke-linecap:butt; stroke-linejoin:miter"
       id="g131">
      <path
         stroke="black"
         d="M63.6,75.1 L72.6,75.1 M675.0,75.1 L666.0,75.1  h0.01"
         id="path133" />
      <g
         transform="translate(55.3,79.6)"
         style="stroke:none; fill:black; font-family:Arial; font-size:12.00pt; text-anchor:end"
         id="g135">
        <text
           id="text137"> 16</text>
      </g>
    </g>
    <g
       style="fill:none; color:gray; stroke:currentColor; stroke-width:1.00; stroke-linecap:butt; stroke-linejoin:miter"
       id="g139">
      <path
         stroke="gray"
         stroke-dasharray=" 2,4"
         class="gridline"
         d="M63.6,16.7 L675.0,16.7  h0.01"
         id="path141" />
    </g>
    <g
       style="fill:none; color:black; stroke:currentColor; stroke-width:1.00; stroke-linecap:butt; stroke-linejoin:miter"
       id="g143">
      <path
         stroke="black"
         d="M63.6,16.7 L72.6,16.7 M675.0,16.7 L666.0,16.7  h0.01"
         id="path145" />
      <g
         transform="translate(55.3,21.2)"
         style="stroke:none; fill:black; font-family:Arial; font-size:12.00pt; text-anchor:end"
         id="g147">
        <text
           id="text149"> 18</text>
      </g>
    </g>
    <g
       style="fill:none; color:gray; stroke:currentColor; stroke-width:1.00; stroke-linecap:butt; stroke-linejoin:miter"
       id="g151">
      <path
         stroke="gray"
         stroke-dasharray=" 2,4"
         class="gridline"
         d="M63.6,542.4 L63.6,16.7  h0.01"
         id="path153" />
    </g>
    <g
       style="fill:none; color:black; stroke:currentColor; stroke-width:1.00; stroke-linecap:butt; stroke-linejoin:miter"
       id="g155">
      <path
         stroke="black"
         d="M63.6,542.4 L63.6,533.4 M63.6,16.7 L63.6,25.7  h0.01"
         id="path157" />
      <g
         transform="translate(63.6,564.9)"
         style="stroke:none; fill:black; font-family:Arial; font-size:12.00pt; text-anchor:middle"
         id="g159">
        <text
           id="text161"> 0.1</text>
      </g>
    </g>
    <g
       style="fill:none; color:gray; stroke:currentColor; stroke-width:1.00; stroke-linecap:butt; stroke-linejoin:miter"
       id="g163">
      <path
         stroke="gray"
         stroke-dasharray=" 2,4"
         class="gridline"
         d="M165.5,542.4 L165.5,97.7 M165.5,25.7 L165.5,16.7  h0.01"
         id="path165" />
    </g>
    <g
       style="fill:none; color:black; stroke:currentColor; stroke-width:1.00; stroke-linecap:butt; stroke-linejoin:miter"
       id="g167">
      <path
         stroke="black"
         d="M165.5,542.4 L165.5,533.4 M165.5,16.7 L165.5,25.7  h0.01"
         id="path169" />
      <g
         transform="translate(165.5,564.9)"
         style="stroke:none; fill:black; font-family:Arial; font-size:12.00pt; text-anchor:middle"
         id="g171">
        <text
           id="text173"> 0.2</text>
      </g>
    </g>
    <g
       style="fill:none; color:gray; stroke:currentColor; stroke-width:1.00; stroke-linecap:butt; stroke-linejoin:miter"
       id="g175">
      <path
         stroke="gray"
         stroke-dasharray=" 2,4"
         class="gridline"
         d="M267.4,542.4 L267.4,97.7 M267.4,25.7 L267.4,16.7  h0.01"
         id="path177" />
    </g>
    <g
       style="fill:none; color:black; stroke:currentColor; stroke-width:1.00; stroke-linecap:butt; stroke-linejoin:miter"
       id="g179">
      <path
         stroke="black"
         d="M267.4,542.4 L267.4,533.4 M267.4,16.7 L267.4,25.7  h0.01"
         id="path181" />
      <g
         transform="translate(267.4,564.9)"
         style="stroke:none; fill:black; font-family:Arial; font-size:12.00pt; text-anchor:middle"
         id="g183">
        <text
           id="text185"> 0.3</text>
      </g>
    </g>
    <g
       style="fill:none; color:gray; stroke:currentColor; stroke-width:1.00; stroke-linecap:butt; stroke-linejoin:miter"
       id="g187">
      <path
         stroke="gray"
         stroke-dasharray=" 2,4"
         class="gridline"
         d="M369.3,542.4 L369.3,97.7 M369.3,25.7 L369.3,16.7  h0.01"
         id="path189" />
    </g>
    <g
       style="fill:none; color:black; stroke:currentColor; stroke-width:1.00; stroke-linecap:butt; stroke-linejoin:miter"
       id="g191">
      <path
         stroke="black"
         d="M369.3,542.4 L369.3,533.4 M369.3,16.7 L369.3,25.7  h0.01"
         id="path193" />
      <g
         transform="translate(369.3,564.9)"
         style="stroke:none; fill:black; font-family:Arial; font-size:12.00pt; text-anchor:middle"
         id="g195">
        <text
           id="text197"> 0.4</text>
      </g>
    </g>
    <g
       style="fill:none; color:gray; stroke:currentColor; stroke-width:1.00; stroke-linecap:butt; stroke-linejoin:miter"
       id="g199">
      <path
         stroke="gray"
         stroke-dasharray=" 2,4"
         class="gridline"
         d="M471.2,542.4 L471.2,97.7 M471.2,25.7 L471.2,16.7  h0.01"
         id="path201" />
    </g>
    <g
       style="fill:none; color:black; stroke:currentColor; stroke-width:1.00; stroke-linecap:butt; stroke-linejoin:miter"
       id="g203">
      <path
         stroke="black"
         d="M471.2,542.4 L471.2,533.4 M471.2,16.7 L471.2,25.7  h0.01"
         id="path205" />
      <g
         transform="translate(471.2,564.9)"
         style="stroke:none; fill:black; font-family:Arial; font-size:12.00pt; text-anchor:middle"
         id="g207">
        <text
           id="text209"> 0.5</text>
      </g>
    </g>
    <g
       style="fill:none; color:gray; stroke:currentColor; stroke-width:1.00; stroke-linecap:butt; stroke-linejoin:miter"
       id="g211">
      <path
         stroke="gray"
         stroke-dasharray=" 2,4"
         class="gridline"
         d="M573.1,542.4 L573.1,97.7 M573.1,25.7 L573.1,16.7  h0.01"
         id="path213" />
    </g>
    <g
       style="fill:none; color:black; stroke:currentColor; stroke-width:1.00; stroke-linecap:butt; stroke-linejoin:miter"
       id="g215">
      <path
         stroke="black"
         d="M573.1,542.4 L573.1,533.4 M573.1,16.7 L573.1,25.7  h0.01"
         id="path217" />
      <g
         transform="translate(573.1,564.9)"
         style="stroke:none; fill:black; font-family:Arial; font-size:12.00pt; text-anchor:middle"
         id="g219">
        <text
           id="text221"> 0.6</text>
      </g>
    </g>
    <g
       style="fill:none; color:gray; stroke:currentColor; stroke-width:1.00; stroke-linecap:butt; stroke-linejoin:miter"
       id="g223">
      <path
         stroke="gray"
         stroke-dasharray=" 2,4"
         class="gridline"
         d="M675.0,542.4 L675.0,16.7  h0.01"
         id="path225" />
    </g>
    <g
       style="fill:none; color:black; stroke:currentColor; stroke-width:1.00; stroke-linecap:butt; stroke-linejoin:miter"
       id="g227">
      <path
         stroke="black"
         d="M675.0,542.4 L675.0,533.4 M675.0,16.7 L675.0,25.7  h0.01"
         id="path229" />
      <g
         transform="translate(675.0,564.9)"
         style="stroke:none; fill:black; font-family:Arial; font-size:12.00pt; text-anchor:middle"
         id="g231">
        <text
           id="text233"> 0.7</text>
      </g>
    </g>
    <g
       style="fill:none; color:black; stroke:black; stroke-width:1.10; stroke-linecap:butt; stroke-linejoin:miter"
       id="g235" />
    <g
       style="fill:none; color:red; stroke:currentColor; stroke-width:1.10; stroke-linecap:butt; stroke-linejoin:miter"
       id="g237">
      <path
         stroke="rgb(  0,   0,   0)"
         d="M63.6,542.4 L675.0,542.4  h0.01"
         id="path239" />
    </g>
    <g
       style="fill:none; color:red; stroke:rgb(  0,   0,   0); stroke-width:1.00; stroke-linecap:butt; stroke-linejoin:miter"
       id="g241" />
    <g
       style="fill:none; color:black; stroke:currentColor; stroke-width:1.00; stroke-linecap:butt; stroke-linejoin:miter"
       id="g243">
      <path
         stroke="black"
         d="M63.6,16.7 L63.6,542.4 L675.0,542.4 L675.0,16.7 L63.6,16.7 Z  h0.01"
         id="path245" />
      <g
         transform="translate(17.6,279.6) rotate(270)"
         style="stroke:none; fill:black; font-family:Arial; font-size:12.00pt; text-anchor:middle"
         id="g247">
        <text
           id="text249">$\text{Высота}[\text{км}]$</text>
      </g>
      <g
         transform="translate(369.3,591.9)"
         style="stroke:none; fill:black; font-family:Arial; font-size:12.00pt; text-anchor:middle"
         id="g251">
        <text
           id="text253">$\text{Число Маха}$</text>
      </g>
    </g>
    <g
       id="gnuplot_plot_1">
      <title
         id="title256">gnuplot_plot_1</title>
      <g
         style="fill:none; color:red; stroke:currentColor; stroke-width:1.00; stroke-linecap:butt; stroke-linejoin:miter"
         id="g258">
        <g
           transform="translate(130.7,39.2)"
           style="stroke:none; fill:black; font-family:Arial; font-size:12.00pt; text-anchor:start"
           id="g260">
          <text
             id="text262">$q_\text{maxmax} = 591 \text{кгс}/\text{м}^2$</text>
        </g>
        <path
           d="M80.2,34.7 L122.4,34.7 M150.2,542.4 L152.4,537.1 L154.9,531.2 L157.7,524.9 L160.7,518.2 L163.9,511.2    L167.4,503.9 L170.9,496.6 L174.6,489.0 L178.4,481.5 L182.3,473.9 L186.3,466.3 L190.3,458.7 L194.3,451.2    L198.4,443.7 L202.4,436.4 L206.5,429.2 L210.6,422.0 L214.7,415.1 L218.7,408.2 L222.8,401.4 L226.9,394.8    L230.9,388.3 L235.0,382.0 L239.0,375.7 L243.0,369.6 L247.1,363.6 L251.1,357.7 L255.2,351.8 L259.3,346.1    L263.4,340.4 L267.5,334.9 L271.7,329.4 L275.9,323.9 L280.1,318.5 L284.4,313.2 L288.7,307.9 L293.1,302.6    L297.5,297.4 L302.0,292.3 L306.5,287.1 L311.0,282.0 L315.6,277.0 L320.3,271.9 L325.1,266.9 L329.9,262.0    L334.7,257.0 L339.6,252.1 L344.6,247.2 L349.6,242.4 L354.7,237.6 L359.8,232.8 L365.0,228.0 L370.3,223.3    L375.6,218.7 L381.0,214.0 L386.4,209.5 L391.9,204.9 L397.5,200.4 L403.1,196.0 L408.8,191.6 L414.5,187.3    L420.3,183.0 L426.2,178.7 L432.1,174.6 L438.1,170.4 L444.2,166.4 L450.3,162.4 L456.5,158.4 L462.8,154.6    L469.1,150.8 L475.6,147.0 L482.1,143.3 L488.6,139.7 L495.3,136.2 L502.1,132.7 L508.9,129.3 L515.8,126.0    L522.8,122.7 L529.8,119.5 L537.0,116.4 L544.2,113.4 L551.5,110.5 L558.8,107.6 L566.2,104.9 L573.7,102.2    L581.2,99.7 L588.7,97.2 L596.2,94.9 L603.6,92.7 L611.1,90.7 L618.5,88.7 L625.9,87.0 L633.2,85.3    L640.4,83.9 L647.5,82.6 L654.4,81.5 L661.4,80.6 L668.2,79.8 L675.0,79.2  h0.01"
           id="path264" />
      </g>
    </g>
    <g
       id="gnuplot_plot_2">
      <title
         id="title267">gnuplot_plot_2</title>
      <g
         style="fill:none; color:green; stroke:currentColor; stroke-width:1.00; stroke-linecap:butt; stroke-linejoin:miter"
         id="g269">
        <g
           transform="translate(130.7,57.2)"
           style="stroke:none; fill:black; font-family:Arial; font-size:12.00pt; text-anchor:start"
           id="g271">
          <text
             id="text273">$q_\text{max э} = 434 \text{кгс}/\text{м}^2$</text>
        </g>
        <path
           d="M80.2,52.7 L122.4,52.7 M226.1,513.0 L229.0,508.1 L231.8,503.5 L234.5,499.0 L237.1,494.7 L239.7,490.5    L242.3,486.4 L244.8,482.3 L247.4,478.4 L249.9,474.5 L252.5,470.6 L255.1,466.7 L257.7,462.8 L260.4,458.9    L263.1,455.0 L265.9,451.0 L268.7,447.0 L271.7,442.9 L274.7,438.8 L277.8,434.6 L280.9,430.4 L284.2,426.2    L287.5,421.8 L290.9,417.5 L294.4,413.1 L297.9,408.6 L301.5,404.1 L305.2,399.6 L308.9,395.0 L312.7,390.5    L316.6,385.9 L320.5,381.3 L324.4,376.7 L328.4,372.1 L332.5,367.5 L336.6,362.9 L340.7,358.3 L344.9,353.7    L349.1,349.1 L353.4,344.6 L357.6,340.0 L362.0,335.5 L366.3,331.0 L370.7,326.6 L375.2,322.1 L379.6,317.7    L384.1,313.3 L388.7,308.9 L393.3,304.5 L397.9,300.2 L402.6,295.9 L407.3,291.6 L412.1,287.3 L417.0,283.0    L421.9,278.7 L426.8,274.4 L431.8,270.2 L436.9,265.9 L442.0,261.7 L447.2,257.5 L452.5,253.2 L457.8,249.0    L463.2,244.8 L468.6,240.5 L474.2,236.3 L479.8,232.0 L485.4,227.8 L491.2,223.6 L497.0,219.3 L502.8,215.1    L508.8,210.9 L514.7,206.7 L520.8,202.4 L526.8,198.2 L532.9,194.0 L539.0,189.9 L545.2,185.7 L551.4,181.6    L557.5,177.6 L563.7,173.5 L569.8,169.5 L575.9,165.6 L582.0,161.7 L588.0,158.0 L593.9,154.2 L599.8,150.6    L605.6,147.0 L611.3,143.6 L616.9,140.2 L622.4,136.9 L627.8,133.7 L633.1,130.6 L638.3,127.6 L643.5,124.6    L648.6,121.7 L653.7,118.8 L658.9,115.9 L664.1,113.0 L669.4,110.0 L675.0,106.8  h0.01"
           id="path275" />
      </g>
    </g>
    <g
       id="gnuplot_plot_3">
      <title
         id="title278">gnuplot_plot_3</title>
      <g
         style="fill:none; color:blue; stroke:currentColor; stroke-width:1.00; stroke-linecap:butt; stroke-linejoin:miter"
         id="g280">
        <g
           transform="translate(130.7,75.2)"
           style="stroke:none; fill:black; font-family:Arial; font-size:12.00pt; text-anchor:start"
           id="g282">
          <text
             id="text284">$M=13600\text{кг}\, n_y=2.97\,c_y=c_\text{y max}(\text{м})$</text>
        </g>
        <path
           d="M80.2,70.7 L122.4,70.7 M226.4,542.4 L230.7,535.3 L235.1,528.2 L239.6,521.2 L244.1,514.1 L248.7,507.1    L253.3,500.1 L258.0,493.2 L262.8,486.3 L267.5,479.5 L272.3,472.8 L277.1,466.2 L281.9,459.6 L286.7,453.2    L291.4,446.9 L296.1,440.8 L300.8,434.7 L305.5,428.8 L310.2,423.0 L314.8,417.3 L319.3,411.7 L323.8,406.3    L328.3,401.0 L332.8,395.8 L337.2,390.8 L341.5,385.8 L345.8,381.0 L350.1,376.3 L354.4,371.7 L358.6,367.2    L362.8,362.8 L367.0,358.6 L371.1,354.4 L375.3,350.2 L379.4,346.2 L383.4,342.3 L387.5,338.4 L391.6,334.7    L395.7,331.0 L399.7,327.3 L403.8,323.8 L407.8,320.3 L411.9,316.9 L415.9,313.5 L420.0,310.2 L424.1,307.0    L428.2,303.8 L432.4,300.6 L436.5,297.6 L440.7,294.5 L445.0,291.5 L449.2,288.6 L453.5,285.7 L457.8,282.9    L462.2,280.1 L466.6,277.3 L471.1,274.6 L475.6,271.9 L480.2,269.2 L484.8,266.6 L489.5,264.1 L494.2,261.5    L499.0,259.0 L503.8,256.6 L508.7,254.1 L513.6,251.8 L518.6,249.4 L523.6,247.1 L528.6,244.9 L533.7,242.6    L538.8,240.5 L544.0,238.3 L549.1,236.3 L554.3,234.2 L559.5,232.3 L564.7,230.3 L569.9,228.5 L575.1,226.7    L580.3,225.0 L585.4,223.3 L590.5,221.7 L595.6,220.2 L600.7,218.7 L605.7,217.4 L610.6,216.1 L615.5,214.9    L620.4,213.7 L625.2,212.7 L629.9,211.7 L634.5,210.8 L639.1,210.0 L643.6,209.2 L648.0,208.5 L652.2,207.9    L656.4,207.4 L660.5,206.9 L664.4,206.5 L668.1,206.2 L671.7,205.9 L675.0,205.7  h0.01"
           id="path286" />
      </g>
    </g>
    <g
       id="gnuplot_plot_4">
      <title
         id="title289">gnuplot_plot_4</title>
      <g
         style="fill:none; color:red; stroke:currentColor; stroke-width:1.00; stroke-linecap:butt; stroke-linejoin:miter"
         id="g291">
        <g
           transform="translate(130.7,93.2)"
           style="stroke:none; fill:black; font-family:Arial; font-size:12.00pt; text-anchor:start"
           id="g293">
          <text
             id="text295">$M=5400\text{кг}\, n_y=3.80\,c_y=c_\text{y max}(\text{м})$</text>
        </g>
        <path
           d="M80.2,88.7 L122.4,88.7 M252.3,542.4 L255.7,537.2 L259.1,532.0 L262.4,527.0 L265.7,522.1 L268.9,517.2    L272.2,512.5 L275.4,507.8 L278.6,503.1 L281.8,498.5 L285.1,494.0 L288.3,489.5 L291.6,485.1 L294.8,480.6    L298.1,476.3 L301.3,471.9 L304.6,467.6 L307.9,463.3 L311.2,459.1 L314.5,454.9 L317.9,450.7 L321.2,446.5    L324.6,442.4 L328.0,438.2 L331.4,434.1 L334.9,430.1 L338.3,426.0 L341.8,422.0 L345.4,417.9 L348.9,413.9    L352.5,409.9 L356.2,405.9 L359.8,401.9 L363.6,397.9 L367.3,394.0 L371.2,390.0 L375.0,386.0 L379.0,382.0    L382.9,378.0 L387.0,374.0 L391.1,370.0 L395.2,366.0 L399.5,361.9 L403.7,357.9 L408.1,353.9 L412.5,349.8    L417.0,345.7 L421.5,341.6 L426.1,337.5 L430.8,333.4 L435.6,329.3 L440.4,325.2 L445.3,321.0 L450.2,316.9    L455.2,312.7 L460.3,308.6 L465.4,304.4 L470.6,300.2 L475.8,296.1 L481.1,291.9 L486.4,287.7 L491.8,283.6    L497.2,279.5 L502.7,275.3 L508.1,271.2 L513.6,267.1 L519.2,263.1 L524.7,259.0 L530.3,255.0 L535.9,251.0    L541.5,247.1 L547.1,243.2 L552.6,239.3 L558.2,235.5 L563.8,231.7 L569.3,228.0 L574.8,224.3 L580.2,220.7    L585.7,217.2 L591.0,213.7 L596.3,210.3 L601.6,207.0 L606.8,203.7 L611.8,200.5 L616.8,197.4 L621.7,194.4    L626.5,191.5 L631.2,188.7 L635.7,186.0 L640.1,183.4 L644.4,180.9 L648.4,178.5 L652.3,176.3 L656.0,174.2    L659.5,172.2 L662.8,170.4 L665.8,168.7 L668.5,167.2 L671.0,165.8 L673.2,164.7  h0.01"
           id="path297" />
      </g>
    </g>
    <g
       style="fill:none; color:black; stroke:currentColor; stroke-width:1.00; stroke-linecap:butt; stroke-linejoin:miter"
       id="g299">
      <path
         stroke="black"
         d="M63.6,16.7 L63.6,542.4 L675.0,542.4 L675.0,16.7 L63.6,16.7 Z  h0.01"
         id="path301" />
    </g>
  </g>
</svg>
