<?xml version="1.0" encoding="UTF-8" standalone="no"?>
<!-- Created with Inkscape (http://www.inkscape.org/) -->

<svg
   xmlns:dc="http://purl.org/dc/elements/1.1/"
   xmlns:cc="http://creativecommons.org/ns#"
   xmlns:rdf="http://www.w3.org/1999/02/22-rdf-syntax-ns#"
   xmlns:svg="http://www.w3.org/2000/svg"
   xmlns="http://www.w3.org/2000/svg"
   xmlns:sodipodi="http://sodipodi.sourceforge.net/DTD/sodipodi-0.dtd"
   xmlns:inkscape="http://www.inkscape.org/namespaces/inkscape"
   id="svg2"
   version="1.1"
   inkscape:version="0.48.4 r9939"
   width="239.99539"
   height="252.32382"
   sodipodi:docname="IsoviewOfPantsModel.png">
  <metadata
     id="metadata8">
    <rdf:RDF>
      <cc:Work
         rdf:about="">
        <dc:format>image/svg+xml</dc:format>
        <dc:type
           rdf:resource="http://purl.org/dc/dcmitype/StillImage" />
        <dc:title></dc:title>
      </cc:Work>
    </rdf:RDF>
  </metadata>
  <defs
     id="defs6" />
  <sodipodi:namedview
     pagecolor="#ffffff"
     bordercolor="#666666"
     borderopacity="1"
     objecttolerance="10"
     gridtolerance="10"
     guidetolerance="10"
     inkscape:pageopacity="0"
     inkscape:pageshadow="2"
     inkscape:window-width="1920"
     inkscape:window-height="1018"
     id="namedview4"
     showgrid="false"
     fit-margin-left="0.5"
     fit-margin-right="0.5"
     units="cm"
     fit-margin-top="0.5"
     fit-margin-bottom="0.5"
     inkscape:zoom="1.3992878"
     inkscape:cx="191.09664"
     inkscape:cy="71.077501"
     inkscape:window-x="-8"
     inkscape:window-y="-8"
     inkscape:window-maximized="1"
     inkscape:current-layer="svg2" />
  <g
     id="g3182"
     transform="translate(-219.9987,-190.6791)">
    <g
       transform="matrix(0.34827399,0,0,0.34827399,98.414563,187.2135)"
       id="g2989">
      <path
         sodipodi:nodetypes="ssscccssssssssssscsscsssssssssssssscsccsccccssssssssscsscssscscss"
         inkscape:connector-curvature="0"
         id="path3003"
         d="m 710,651.81933 c 0,-0.64937 -2.29296,-4.49756 -5.09547,-8.55154 -5.93469,-8.58482 -6.08516,-11.64578 -0.64183,-13.05572 l 3.2373,-0.83853 0.26442,-30.6641 0.26442,-30.6641 -2.26442,-0.51756 c -2.21734,-0.50681 -40.97866,-6.16666 -61.76442,-9.01872 -5.775,-0.79241 -18.15,-2.58332 -27.5,-3.97981 -18.7842,-2.80555 -39.97681,-5.87452 -51.5,-7.45786 -4.125,-0.5668 -15.15,-2.18011 -24.5,-3.58513 -9.35,-1.40502 -21.725,-3.20173 -27.5,-3.99268 -5.775,-0.79095 -22.875,-3.25456 -38,-5.47468 -15.125,-2.22012 -36.95,-5.39184 -48.5,-7.04825 -11.55,-1.65642 -21.81328,-3.26595 -22.80728,-3.57673 -0.99401,-0.31078 -2.23151,-1.68085 -2.75,-3.04459 C 400.36471,518.82907 400,446.02233 400,332.15741 c 0,-210.83666 -0.95566,-190.20959 8.8067,-190.08441 3.13132,0.0401 7.9433,0.42991 10.6933,0.86613 2.75,0.43623 12.30533,1.81771 21.23408,3.06997 l 16.23407,2.27684 23.76593,-8.59776 c 43.77619,-15.83685 84.70161,-30.41676 91.76592,-32.69211 3.85,-1.24006 7.675,-2.81666 8.5,-3.50355 0.825,-0.6869 2.85,-1.48354 4.5,-1.77031 1.65,-0.28677 10.65,-3.286261 20,-6.665532 9.35,-3.379271 17.5625,-6.335329 18.25,-6.569018 0.89332,-0.303649 1.25,-3.411422 1.25,-10.891176 0,-17.637107 0.98083,-18.374918 20.60159,-15.497209 27.2791,4.000928 76.32174,11.113936 85.39841,12.385946 9.21527,1.291434 24.00315,3.441553 90,13.085763 17.325,2.531726 34.2,4.97439 37.5,5.428143 7.4567,1.025302 58.30098,8.413053 72.5,10.534363 6.04546,0.90318 11.13636,2.19902 12,3.05449 1.32436,1.31183 1.49841,27.23562 1.48641,221.39984 l -0.0136,219.91403 2.50799,0.62947 c 6.46753,1.62325 6.52693,4.73597 0.26919,14.10637 -3.08771,4.90883 -5.44344,9.63942 -8.5,8.95581 -0.6875,-1.04855 -3.38436,-5.09855 -5.99301,-9 -6.32429,-9.45845 -6.21918,-12.4355 0.4986,-14.12155 L 936,547.78318 935.9975,517.64159 935.995,487.5 908.7475,483.59271 c -14.98613,-2.149 -29.7225,-4.24511 -32.7475,-4.65802 -3.025,-0.41291 -13.6,-1.95282 -23.5,-3.42203 -9.9,-1.46921 -22.5,-3.29481 -28,-4.0569 -5.5,-0.76209 -17.65,-2.53818 -27,-3.94687 -9.35,-1.40869 -20.375,-2.99962 -24.5,-3.53541 -7.4823,-0.97186 -15.58847,-2.16796 -40.86718,-6.03016 -7.35194,-1.12327 -13.47776,-1.90753 -13.61293,-1.74281 -0.13517,0.16472 -0.54957,39.33699 -0.92088,87.04949 l -0.67511,86.75 2.38306,0 c 2.30253,0 5.69304,2.71382 5.69304,4.5568 0,2.20822 -11.63024,18.35796 -13.25,18.39893 -0.9625,0.0244 -1.75,-0.48703 -1.75,-1.1364 z M 660,75.535794 c 6.11228,-2.110886 6.32105,-2.28218 3.5,-2.871663 -3.05848,-0.639097 -30.38575,-4.648856 -31.75,-4.658712 -0.4125,-0.003 -0.75,3.996749 -0.75,8.888288 l 0,8.893707 11.25,-4.003417 c 6.1875,-2.201879 14.175,-5.013571 17.75,-6.248203 z"
         style="fill:#ededed" />
      <path
         sodipodi:nodetypes="scscccssssssssssscsssscssssssssscccssscsssssscssssccsssssscccsssssssccssssss"
         inkscape:connector-curvature="0"
         id="path3001"
         d="m 706.05263,643.25 c -2.7408,-3.7125 -4.99888,-7.5737 -5.01795,-8.58045 -0.0231,-1.22182 1.29531,-2.35287 3.96532,-3.40169 l 4,-1.57124 0,-31.26885 0,-31.26886 -2.75,-0.56835 c -1.5125,-0.31259 -12.2,-1.91786 -23.75,-3.56728 -58.77955,-8.39409 -84.32979,-12.18017 -87.5,-12.9659 -1.925,-0.47711 -6.425,-1.15674 -10,-1.5103 -6.69808,-0.66242 -24.76009,-3.21022 -95.59061,-13.4839 -22.59984,-3.27801 -50.94984,-7.37843 -63,-9.11203 -13.9066,-2.00069 -22.45729,-3.67625 -23.40939,-4.58724 -1.321,-1.26395 -1.53077,-23.64692 -1.75785,-187.56311 -0.29037,-209.59618 -1.03222,-190.80096 7.5309,-190.8006 2.59982,1e-4 10.12695,0.85805 16.72695,1.90653 6.6,1.04849 16.5,2.43524 22,3.08168 l 10,1.17533 43.5,-15.69771 c 23.925,-8.63375 51.6,-18.5021 61.5,-21.92968 9.9,-3.42758 19.125,-6.71448 20.5,-7.30421 2.55522,-1.09594 17.21125,-6.413108 33.75,-12.244421 L 626,88.72631 626,77.473939 c 0,-9.361393 0.30364,-11.62735 1.80682,-13.483705 2.41132,-2.977845 4.08082,-2.889475 37.19318,1.96869 15.125,2.219104 44.6,6.498987 65.5,9.510853 20.9,3.011865 56.45,8.167031 79,11.455925 22.55,3.288894 58.325,8.485619 79.5,11.548276 44.88257,6.491612 50.35529,7.341392 52.44556,8.143502 C 942.84499,107.15449 943,129.24155 943,328.10699 943,520.61032 943.18674,549 944.45295,549 c 3.07172,0 6.54678,2.34836 6.52659,4.41052 -0.0113,1.14921 -2.4322,5.38118 -5.37987,9.40438 -5.18272,6.35014 -3.43778,9.71779 -8.81011,3 -8.57506,-10.72263 -9.56682,-13.68409 -5.24251,-15.65438 1.40088,-0.63829 3.20729,-1.16052 4.01425,-1.16052 1.2639,0 1.43058,-4.32591 1.20295,-31.22137 L 936.5,486.55727 928,485.39374 c -8.47951,-1.16072 -67.44028,-9.70899 -120.5,-17.47037 -15.4,-2.25265 -32.275,-4.69385 -37.5,-5.42488 -5.225,-0.73102 -19.11734,-2.7374 -30.87187,-4.45861 -11.75453,-1.72121 -21.48205,-2.99682 -21.61672,-2.83468 -0.13467,0.16214 -0.41733,39.64016 -0.62814,87.72893 l -0.38327,87.43413 3.14338,0.81683 c 1.72886,0.44926 3.41233,1.5177 3.74104,2.37431 0.74752,1.94801 -8.85827,16.4406 -10.89694,16.4406 -0.79837,0 -3.69405,-3.0375 -6.43485,-6.75 z M 709.75265,377.30085 709.5,192.60169 703,191.28973 c -8.50923,-1.71751 -52.5914,-8.28288 -164,-24.42531 -22.825,-3.3072 -53.65,-7.78929 -68.5,-9.9602 -14.85,-2.17091 -32.13648,-4.63814 -38.4144,-5.48273 -6.27792,-0.84459 -13.65184,-1.95994 -16.38649,-2.47855 C 412.96446,148.42432 409.43725,148 407.86087,148 l -2.86616,0 0.25264,185.23806 0.25265,185.23806 22,3.1673 c 12.1,1.74202 34.825,5.03266 50.5,7.31253 15.675,2.27987 44.025,6.37468 63,9.09959 18.975,2.7249 36.71338,5.41366 39.41863,5.97502 2.70525,0.56136 8.78025,1.44038 13.5,1.95338 7.26588,0.78974 39.23998,5.38905 97.08137,13.96467 6.875,1.01929 13.96369,1.89784 15.75265,1.95232 L 710.0053,562 z M 664.5,74.934108 c 3.3,-1.246397 5.55,-2.40397 5,-2.572383 C 667.75453,71.827251 633.91793,67 631.91701,67 630.16459,67 630,67.801351 630,76.333333 c 0,5.133334 0.26968,9.603016 0.59929,9.932628 0.53441,0.534403 17.48274,-5.130848 33.90071,-11.331853 z"
         style="fill:#acbac5" />
      <path
         sodipodi:nodetypes="cssssssssssscsscsssssssssssscssssssssssccsscsssccccsssssssscssssssccccsssscssscccssssccsssssss"
         inkscape:connector-curvature="0"
         id="path2999"
         d="m 706.71445,643.63803 c -2.56921,-3.49909 -4.93188,-7.04107 -5.25038,-7.87107 C 700.76286,633.93964 703.48075,631 705.87143,631 709.83034,631 710,629.66127 710,598.42244 c 0,-22.94359 -0.29964,-30.41657 -1.25,-31.17465 -0.6875,-0.5484 -25.325,-4.45419 -54.75,-8.67953 -29.425,-4.22534 -55.075,-8.07103 -57,-8.54597 -1.925,-0.47494 -6.425,-1.16487 -10,-1.53318 -6.51991,-0.6717 -21.39632,-2.73832 -60.5,-8.40462 -11.55,-1.67364 -42.825,-6.19817 -69.5,-10.0545 -53.27988,-7.70252 -53.15734,-7.68137 -54.22467,-9.35927 -0.40959,-0.6439 -0.7516,-85.44287 -0.76002,-188.44216 L 402,144.95712 l 2.51405,-1.14548 c 2.01614,-0.91861 7.116,-0.47684 25.75,2.23059 12.77977,1.85684 24.36095,3.29935 25.73595,3.20559 1.375,-0.0938 18.925,-6.07454 39,-13.29061 55.08134,-19.7993 66.67416,-23.8953 76.5,-27.02913 4.95,-1.57874 9.9,-3.31089 11,-3.84923 1.93699,-0.94796 22.24745,-8.458134 35.5,-13.126788 3.575,-1.259414 7.0625,-2.718942 7.75,-3.243397 0.8691,-0.662987 1.25,-4.373297 1.25,-12.176122 0,-9.60225 0.26403,-11.461516 1.82874,-12.877555 C 629.83455,62.744744 631.61423,62 632.78359,62 634.55868,62 751.42442,78.794561 837.5,91.419419 c 12.65,1.855398 41,5.961516 63,9.124711 22,3.16319 40.61249,6.23138 41.36109,6.8182 1.14272,0.89578 1.30316,36.36848 1,221.10231 L 942.5,548.5 l 3.46709,1.1206 c 6.02504,1.94737 6.08027,3.46474 0.4222,11.59978 C 943.60458,565.22417 940.80981,568.5 940.1787,568.5 938.85923,568.5 929,555.33246 929,553.57023 929,551.74024 931.19344,550 933.5,550 c 4.37482,0 4.5,-0.89233 4.5,-32.07756 0,-22.52516 -0.30125,-29.92618 -1.25,-30.70919 -0.6875,-0.56741 -7.775,-1.99281 -15.75,-3.16755 -15.79766,-2.32706 -132.31331,-19.24276 -148.5,-21.55919 -5.5,-0.78708 -19.225,-2.79227 -30.5,-4.45597 -11.275,-1.6637 -21.50498,-3.02617 -22.73328,-3.02772 l -2.23328,-0.003 -0.51263,54.75 c -0.28194,30.1125 -0.62696,69.5408 -0.76672,87.61844 L 715.5,630.2367 l 3.48782,1.13156 c 1.9183,0.62236 3.63631,1.90614 3.81779,2.85285 0.45273,2.3616 -8.71983,15.77871 -10.78706,15.77871 -0.34805,0 -2.73489,-2.86289 -5.3041,-6.36197 z m 4.03819,-266.17567 0.25263,-185.01027 -11.75263,-2.25249 C 692.78869,188.96074 678.275,186.62279 667,185.00416 c -11.275,-1.61863 -43.9,-6.34954 -72.5,-10.51314 -28.6,-4.16359 -58.075,-8.44155 -65.5,-9.50656 -7.425,-1.06501 -30.6,-4.4284 -51.5,-7.47418 -20.9,-3.04578 -43.13648,-6.23228 -49.4144,-7.0811 -6.27792,-0.84882 -13.63772,-1.96495 -16.35512,-2.48029 -2.71739,-0.51535 -5.34341,-0.68811 -5.8356,-0.38392 -1.19793,0.74036 -1.19044,370.13433 0.008,370.87472 0.49633,0.30674 10.28383,1.89517 21.75,3.52984 20.20025,2.87984 89.44907,12.9221 131.41136,19.05689 11.31007,1.6535 21.97306,3.41055 23.69553,3.90455 1.72247,0.494 6.19377,1.18927 9.93623,1.54505 7.665,0.72868 50.98616,6.79447 89.30447,12.50433 14.025,2.08989 26.175,3.7306 27,3.64604 1.32637,-0.13596 1.52924,-21.56937 1.75264,-185.16403 z M 934.75265,296.25533 934.5,111.51065 l -46,-6.62081 C 863.2,101.24839 818.65,94.798345 789.5,90.556407 698.10203,77.25608 689.53206,76.025048 688.25,76.012365 687.26557,76.002627 687,87.256261 687,128.98095 l 0,52.98095 2.25,0.50635 c 1.2375,0.27849 6.975,1.44256 12.75,2.58681 5.775,1.14425 11.625,2.61852 13,3.27615 l 2.5,1.19569 0.25373,130.19193 0.25372,130.19194 3.24628,0.53607 c 1.78545,0.29483 9.54627,1.4372 17.24627,2.53859 35.19011,5.03352 153.92701,22.34352 171,24.92916 10.45,1.58261 20.46369,2.92426 22.25265,2.98144 L 935.0053,481 z M 650.68268,80.381179 c 10.34952,-3.640351 19.21991,-6.990441 19.71196,-7.444644 1.13817,-1.050612 -1.0216,-1.517414 -16.39464,-3.543453 -6.875,-0.906068 -14.75,-1.983795 -17.5,-2.394949 -2.75,-0.411154 -5.3375,-0.552375 -5.75,-0.313826 C 629.65328,67.318543 629.83025,87 630.93268,87 c 0.51297,0 9.40047,-2.978469 19.75,-6.618821 z"
         style="fill:#b4b4b4" />
      <path
         sodipodi:nodetypes="ssscsssssssssssssscssssssssssscscsscsscscccssssssssscscsssssssssscsssscsssssssssssssscssssssssssssssss"
         inkscape:connector-curvature="0"
         id="path2997"
         d="m 706.47413,642.51595 c -2.54481,-3.56623 -4.48004,-7.23889 -4.30053,-8.16147 0.17952,-0.92259 1.9014,-2.20726 3.8264,-2.85483 l 3.5,-1.1774 0.26451,-31.34662 c 0.14548,-17.24064 -0.1326,-31.74372 -0.61795,-32.22907 -0.82913,-0.82913 -21.51737,-4.03143 -79.14656,-12.25099 -28.55164,-4.07227 -35.53474,-5.38704 -34.35691,-6.46868 0.4713,-0.43281 20.43191,2.06921 44.35691,5.56006 61.57568,8.98437 69.80458,10.00847 70.97956,8.83349 0.65676,-0.65676 1.08872,-64.3415 1.25992,-185.75366 C 712.49903,192.59973 712.49256,191.91115 710.5,191.54155 693.15528,188.32429 681.14512,186.43198 643,180.90631 564.00608,169.46332 545.06424,166.71504 495.5,159.50549 404.53185,146.27338 406.90483,146.57834 404.85756,147.85688 403.28313,148.84013 403,148.71618 403,147.04366 c 0,-3.76815 2.94292,-4.1092 17.13095,-1.98528 7.35298,1.10073 18.76905,2.70198 25.36905,3.55834 l 12,1.55702 42,-15.20086 c 23.1,-8.36047 52.8,-18.89587 66,-23.412 13.2,-4.51613 24.9,-8.69059 26,-9.27658 1.1,-0.58598 9.2,-3.610494 18,-6.721129 8.8,-3.110636 16.5625,-6.395891 17.25,-7.300566 0.82107,-1.080439 1.25,-5.345955 1.25,-12.430682 0,-10.098284 0.14342,-10.876248 2.25,-12.204468 2.0023,-1.262473 8.19485,-0.559032 56.25,6.389692 69.93367,10.112336 112.32499,16.27485 141.5,20.570149 12.925,1.902887 26.65,3.881505 30.5,4.396928 7.01859,0.939623 53.44933,7.703626 71.77044,10.455476 5.37374,0.80714 10.26016,1.77019 10.85869,2.14011 0.78068,0.48248 0.99169,62.74628 0.74658,220.29638 -0.18792,120.7931 0.0147,220.18631 0.45032,220.87381 0.4356,0.6875 1.61559,1.25 2.6222,1.25 1.00661,0 2.80108,0.7875 3.9877,1.75 l 2.15749,1.75 -4.79671,6.93342 c -2.63819,3.81337 -5.31922,7.10005 -5.95785,7.30371 -1.59686,0.50925 -10.57247,-12.2837 -10.15308,-14.47118 0.18873,-0.98433 1.88231,-2.26649 3.8264,-2.89684 l 3.48782,-1.13089 0.26427,-31.13405 0.26427,-31.13405 -2.26427,-0.93493 C 934.51892,485.52097 929.9,484.63878 925.5,484.07477 c -7.05476,-0.90432 -66.7507,-9.54796 -104.5,-15.13103 -7.425,-1.09815 -18.225,-2.64725 -24,-3.44244 -5.775,-0.7952 -22.875,-3.2666 -38,-5.49201 -15.125,-2.22541 -30.61774,-4.49765 -34.42832,-5.04942 -3.81058,-0.55178 -7.28689,-0.64466 -7.72514,-0.20641 -0.43825,0.43825 -1.03051,25.76051 -1.31612,56.27168 -0.28562,30.51117 -0.7637,68.97486 -1.06239,85.47486 -0.29869,16.5 -0.30161,30.97665 -0.006,32.17034 0.34195,1.38314 1.59998,2.4039 3.46842,2.81428 4.54532,0.99832 5.65603,2.95777 3.5487,6.26037 C 718.55941,642.32004 712.92398,649 711.98358,649 c -0.48539,0 -2.96464,-2.91782 -5.50945,-6.48405 z M 935.75267,297.03898 c 0.14017,-102.31776 -0.13109,-184.8174 -0.60926,-185.29557 -0.47406,-0.47406 -17.68776,-3.27665 -38.25267,-6.22797 C 876.32583,102.56411 842.175,97.62819 821,94.54673 799.825,91.465271 769.9,87.119766 754.5,84.890053 739.1,82.66034 717.725,79.54732 707,77.972231 c -10.725,-1.57509 -19.84152,-2.524175 -20.25894,-2.109077 -0.41741,0.415097 -0.64241,24.570826 -0.5,53.679406 l 0.25894,52.92468 11.5,2.2878 c 6.325,1.25829 12.4,2.68736 13.5,3.1757 1.1,0.48835 2.78582,1.13894 3.74627,1.44576 1.64817,0.52653 1.76052,7.87514 2,130.82289 L 717.5,450.46442 736,453.13053 c 41.09749,5.92274 172.24143,25.01327 187.5,27.29424 4.95,0.73996 9.675,1.27845 10.5,1.19663 1.32637,-0.13155 1.52925,-21.49773 1.75267,-184.58242 z M 683,129 c 0,-29.15 -0.27406,-53 -0.60902,-53 -0.33496,0 -19.34746,6.718093 -42.25,14.929095 C 617.23844,99.140097 590.4,108.75894 580.5,112.3043 c -9.9,3.54537 -37.8,13.53653 -62,22.20259 -24.2,8.66607 -44.1875,15.92222 -44.41667,16.1248 -1.05224,0.93013 2.24781,1.54804 28.46473,5.32987 25.24894,3.64219 52.95568,7.66393 138.95194,20.16941 15.4,2.23945 30.025,4.42319 32.5,4.85276 2.475,0.42957 5.5125,0.83396 6.75,0.89865 L 683,182 z M 651.5,80.643461 c 11,-3.990667 20,-7.680491 20,-8.19961 0,-1.141375 -38.84451,-6.909365 -40.98904,-6.08643 C 629.30431,66.820456 629,68.924005 629,76.801949 c 0,9.111928 0.37294,11.281013 1.91667,11.14766 C 631.2375,87.921895 640.5,84.634128 651.5,80.643461 z M 554,543.50937 c -21.29484,-3.13442 -70.05893,-10.22673 -123.61654,-17.97895 -13.2641,-1.91992 -24.8516,-3.77283 -25.75,-4.11758 C 403.73506,521.06809 403,520.13261 403,519.33399 c 0,-0.88816 0.4739,-1.15914 1.22035,-0.69781 1.41082,0.87194 5.10508,1.45354 56.27965,8.86033 44.86124,6.49303 86.59113,12.56739 105.77104,15.39643 7.57408,1.11718 14.54908,2.48461 15.5,3.03874 2.92992,1.70733 -3.56148,1.14113 -27.77104,-2.42231 z"
         style="fill:#8c8f90" />
      <path
         sodipodi:nodetypes="ssscssscssscsssssssssssssssssscsssssssssscssssssssscssssssscssscscsssssssscsssscc"
         inkscape:connector-curvature="0"
         id="path2995"
         d="m 709.80845,646.25 c -0.82584,-0.9625 -2.95738,-3.90956 -4.73675,-6.54902 -3.70203,-5.49144 -3.22284,-7.07484 2.46393,-8.14169 L 711,630.90937 l 0,-31.83224 c 0,-27.56948 -0.20814,-32.00498 -1.55428,-33.12218 -1.36118,-1.12968 -1.17482,-1.4495 1.5,-2.57417 L 714,562.09655 714,378.60729 c 0,-121.24748 0.33921,-183.6989 1,-184.10729 0.66468,-0.41079 1,42.3301 1,127.46242 l 0,128.08046 2.25,0.93911 c 1.2375,0.51651 10.35,2.07547 20.25,3.46437 9.9,1.38889 36.45,5.21038 59,8.4922 67.33006,9.7989 117.40027,17.06329 127.5,18.49821 6.47422,0.91983 9.89813,1.02622 10.75,0.33403 0.9919,-0.80597 1.24684,-39.03469 1.23469,-185.14324 -0.008,-101.27016 -0.36746,-184.68194 -0.79786,-185.35951 -0.43041,-0.67757 -4.36101,-1.70989 -8.73469,-2.29404 C 923.07846,108.38986 908.925,106.36244 896,104.46863 747.6155,82.726887 691.65951,74.775472 687.26737,74.80747 681.99318,74.84589 675.13261,77.203223 563,117.50647 c -15.675,5.63398 -42.675,15.31337 -60,21.50974 -17.325,6.19638 -31.71197,11.45208 -31.97104,11.67934 -1.28132,1.12398 3.85746,2.20842 24.73564,5.21996 12.50447,1.80369 59.56473,8.63627 104.57836,15.18353 45.01363,6.54725 82.29404,11.62531 82.84535,11.28458 0.55132,-0.34074 1.97199,-0.14746 3.15704,0.42949 1.18506,0.57696 7.09193,2.00481 13.12638,3.17301 6.03445,1.1682 11.14201,2.29429 11.35013,2.50241 0.20813,0.20812 0.1001,0.82872 -0.24005,1.37909 -0.63633,1.02962 -5.42252,0.62685 -11.58181,-0.97464 -1.925,-0.50053 -14.3,-2.47744 -27.5,-4.39313 -13.2,-1.9157 -36.375,-5.29684 -51.5,-7.51365 -15.125,-2.2168 -44.6,-6.49894 -65.5,-9.51586 -20.9,-3.01692 -50.15,-7.25115 -65,-9.4094 -14.85,-2.15825 -39.825,-5.76607 -55.5,-8.01739 -15.675,-2.25131 -28.95,-4.2547 -29.5,-4.45199 -0.55,-0.19729 -0.19542,-0.6908 0.78795,-1.09669 0.98337,-0.40588 12.81157,0.8743 26.28488,2.84485 l 24.49693,3.58282 15.21512,-5.3431 c 8.36832,-2.9387 33.44012,-11.88268 55.71512,-19.8755 22.275,-7.99283 43.425,-15.28303 47,-16.20045 3.575,-0.91743 10.1,-3.25262 14.5,-5.18932 4.4,-1.93669 14.3,-5.76731 22,-8.512475 7.7,-2.745165 14.99667,-5.623568 16.21482,-6.396452 C 627.93297,88.632359 629.80045,88 630.86478,88 c 2.42714,0 40.12639,-13.591167 41.49471,-14.959488 0.55395,-0.553948 0.75219,-1.262164 0.44054,-1.573813 -0.48231,-0.482315 -39.52061,-6.454531 -42.25003,-6.463557 -0.5225,-0.0017 -0.44594,-0.507206 0.17014,-1.123284 0.82686,-0.826857 6.83584,-0.296768 22.95,2.024558 231.13143,33.295647 285.86233,41.368974 287.08758,42.348154 1.00535,0.80345 1.16082,38.75134 0.77484,189.12628 -0.26558,103.46663 -0.7432,200.72115 -1.06138,216.12115 -0.31818,15.4 -0.31079,29.85248 0.0164,32.11662 0.5613,3.88391 0.8321,4.16666 4.79029,5.00166 2.53379,0.53451 4.31602,1.51165 4.50005,2.46722 C 950.11752,554.84873 941.57862,567 940,567 c -1.53462,0 -10.12261,-12.12734 -9.79133,-13.82661 0.16023,-0.82188 2.09133,-1.99888 4.29133,-2.61556 l 4,-1.12124 0.26406,-31.08418 c 0.21233,-24.99501 0.002,-31.30185 -1.07479,-32.19533 -0.73637,-0.61113 -6.03019,-1.78068 -11.76406,-2.59899 -5.73386,-0.81832 -18.07521,-2.64043 -27.42521,-4.04915 -9.35,-1.40872 -20.15,-2.99078 -24,-3.5157 -3.85,-0.52492 -20.95,-2.99955 -38,-5.49919 -17.05,-2.49963 -35.95,-5.22691 -42,-6.06062 -6.05,-0.83371 -25.75627,-3.67068 -43.79172,-6.30437 -23.94475,-3.49663 -33.15352,-4.49723 -34.13278,-3.7088 -1.09392,0.88076 -1.46107,17.24233 -1.99223,88.78206 l -0.65116,87.70231 4.03394,1.08623 C 720.42685,632.65348 722,633.66842 722,634.59341 722,636.797 714.15985,648 712.61773,648 c -0.71927,0 -1.98344,-0.7875 -2.80928,-1.75 z M 956.4579,310.93193 c -379.58171,407.36093 -189.79086,203.68047 0,0 z"
         style="fill:#707a81" />
      <path
         sodipodi:nodetypes="sscscssscssssssssssscssssscssssscssssssssssssssssssssssssssssss"
         inkscape:connector-curvature="0"
         id="path2993"
         d="m 707.09261,642.38967 c -5.25974,-7.34513 -5.23746,-8.8376 0.15739,-10.54478 l 4.25,-1.34489 0.26451,-30.78863 c 0.18257,-21.25136 -0.0817,-31.4356 -0.85325,-32.87718 -0.86394,-1.61428 -0.81046,-2.28326 0.23549,-2.94605 2.41458,-1.53005 4.15302,-1.06333 3.21024,0.86186 C 713.88564,565.7125 713.5,580.9 713.5,598.5 l 0,32 4.25,1.34489 c 2.78507,0.88132 4.23603,1.9154 4.20947,3 -0.0456,1.86259 -7.82931,12.28477 -9.61686,12.87675 -0.63657,0.21081 -2.99907,-2.18858 -5.25,-5.33197 z M 934.0249,559.91999 c -4.74739,-6.76786 -4.5838,-7.64455 1.76666,-9.46783 4.07057,-1.1687 10.7186,-0.10545 13.08432,2.09264 1.15424,1.07246 0.68791,2.25916 -2.89489,7.3668 C 943.58687,563.32465 940.95872,566 940,566 c -0.95846,0 -3.58493,-2.67258 -5.9751,-6.08001 z m 3.03389,-74.87565 -2.3853,-1.79923 2.09751,-1.12255 c 3.17302,-1.69815 4.229,-1.36894 4.229,1.31842 0,3.3017 -1.09767,3.74825 -3.94121,1.60336 z M 715,452.5 c 0,-0.91667 0.5625,-1.47917 1.25,-1.25 1.41567,0.47189 1.26005,2.07998 -0.25,2.58333 -0.55,0.18334 -1,-0.41666 -1,-1.33333 z M 698,188.44487 c -3.025,-0.77599 -24.4,-4.13727 -47.5,-7.4695 -42.41956,-6.11912 -136.96054,-19.82 -183,-26.52037 -13.75,-2.0011 -33.54614,-4.85342 -43.99141,-6.33847 -10.44528,-1.48505 -18.49458,-3.00716 -17.88732,-3.38246 0.60725,-0.37531 7.12839,0.21731 14.49141,1.31692 25.37939,3.79023 29.40397,4.29915 34.38732,4.3484 4.05051,0.04 15.34948,-3.674 59.5,-19.55799 29.975,-10.78407 57.19427,-20.16413 60.48726,-20.84456 3.293,-0.68043 9.818,-3.03463 14.5,-5.23155 4.68201,-2.19692 14.80012,-6.213497 22.48469,-8.925719 7.68457,-2.712222 14.69608,-5.586653 15.58115,-6.387624 0.88506,-0.800971 1.90191,-1.163608 2.25965,-0.80586 0.85044,0.850441 41.73245,-13.47779 43.68725,-15.311403 1.16131,-1.089317 1.21944,-1.580475 0.25747,-2.175249 -0.68339,-0.42253 -10.58339,-2.093756 -22,-3.713836 -11.41661,-1.620079 -19.33037,-3.08397 -17.58613,-3.253091 1.74424,-0.169121 12.99424,1.093757 25,2.806395 12.00576,1.712638 27.90366,3.979836 35.32866,5.038219 18.87725,2.690821 128.74675,18.59658 144.5,20.919201 12.80092,1.887337 86.20059,12.515717 94,13.611337 7.63174,1.07207 8.5,1.41973 8.5,3.40351 0,1.83746 -0.2102,1.86057 -4.25,0.46726 -2.3375,-0.8062 -33.95,-5.71396 -70.25,-10.906135 C 830.2,94.340117 775.525,86.455419 745,82.010743 704.18397,76.067615 688.17712,74.09804 684.5,74.566478 c -5.53305,0.70487 -10.06929,2.224154 -55,18.420678 -17.05,6.146146 -35.5,12.690024 -41,14.541944 -5.5,1.85193 -15.625,5.46657 -22.5,8.03255 -6.875,2.56598 -31.13328,11.34511 -53.90729,19.50917 -22.77401,8.16407 -41.86175,15.29822 -42.41722,15.85369 -0.6799,0.6799 -0.54681,1.17002 0.40729,1.49983 1.49577,0.51707 198.36556,29.15248 209.7687,30.51161 9.00312,1.07307 28.42333,5.14513 29.59852,6.20626 1.44705,1.3066 -5.22135,0.90047 -11.45,-0.69734 z"
         style="fill:#656667" />
      <path
         sodipodi:nodetypes="ssscssssssssssssscsssssss"
         inkscape:connector-curvature="0"
         id="path2991"
         d="m 707.04482,640.94839 c -2.74445,-3.91248 -3.93888,-6.45433 -3.32256,-7.07065 1.3821,-1.3821 11.81864,-2.00279 14.77518,-0.87871 1.37641,0.52331 2.50029,1.52511 2.49752,2.22622 -0.006,1.54728 -7.05893,10.98197 -8.58015,11.47782 -0.59685,0.19455 -3.01335,-2.39506 -5.36999,-5.75468 z m 228.25916,-80.25686 c -4.44429,-5.90523 -4.84767,-7.33019 -2.43984,-8.61882 C 936.22076,550.2763 949,551.23772 949,553.28665 c 0,2.20234 -7.22307,11.71374 -8.87178,11.68243 -0.89552,-0.017 -3.06643,-1.9419 -4.82424,-4.27755 z M 938,484 c 0,-0.55 0.45,-1 1,-1 0.55,0 1,0.45 1,1 0,0.55 -0.45,1 -1,1 -0.55,0 -1,-0.45 -1,-1 z M 461,152 c -2.24559,-0.71916 -2.12439,-0.81078 1.19098,-0.90032 2.03004,-0.0548 3.9691,0.35032 4.30902,0.90032 0.7149,1.15673 -1.88811,1.15673 -5.5,0 z M 676,72 c 0,-0.55 1.77344,-1 3.94098,-1 2.16754,0 4.2191,0.45 4.55902,1 0.3775,0.610812 -1.15628,1 -3.94098,1 C 678.05156,73 676,72.55 676,72 z"
         style="fill:#242423" />
    </g>
    <flowRoot
       transform="matrix(0.9366468,-0.35027529,0.35027529,0.9366468,598.26152,302.12694)"
       style="font-size:12px;font-style:normal;font-weight:normal;line-height:125%;letter-spacing:0px;word-spacing:0px;fill:#000000;fill-opacity:1;stroke:none;font-family:Sans"
       id="flowRoot3130"
       xml:space="preserve"><flowRegion
         id="flowRegion3132"><rect
           style="font-size:12px"
           y="-191.18544"
           x="-287.289"
           height="95.763"
           width="278.7132"
           id="rect3134" /></flowRegion><flowPara
         id="flowPara3136">1402мм</flowPara></flowRoot>    <flowRoot
       transform="matrix(-0.04107906,-0.9991559,0.9991559,-0.04107906,198.2143,759.328)"
       style="font-size:12px;font-style:normal;font-weight:normal;line-height:125%;letter-spacing:0px;word-spacing:0px;fill:#000000;fill-opacity:1;stroke:none;font-family:Sans"
       id="flowRoot3138"
       xml:space="preserve"><flowRegion
         id="flowRegion3140"><rect
           style="font-size:12px"
           y="250.90352"
           x="434.58667"
           height="12.128001"
           width="53.565334"
           id="rect3142" /></flowRegion><flowPara
         id="flowPara3144">1300 мм</flowPara></flowRoot>    <flowRoot
       xml:space="preserve"
       id="flowRoot3146"
       style="font-size:12px;font-style:normal;font-weight:normal;line-height:125%;letter-spacing:0px;word-spacing:0px;fill:#000000;fill-opacity:1;stroke:none;font-family:Sans"
       transform="matrix(0.99033506,0.13869568,-0.13869568,0.99033506,510.68846,602.41789)"><flowRegion
         id="flowRegion3148"><rect
           id="rect3150"
           width="278.7132"
           height="95.763"
           x="-287.289"
           y="-191.18544"
           style="font-size:12px" /></flowRegion><flowPara
         id="flowPara3152">1009мм</flowPara></flowRoot>    <flowRoot
       transform="matrix(0.99997124,-0.00758534,0.00758534,0.99997124,616.42195,604.17064)"
       style="font-size:12px;font-style:normal;font-weight:normal;line-height:125%;letter-spacing:0px;word-spacing:0px;fill:#000000;fill-opacity:1;stroke:none;font-family:Sans"
       id="flowRoot3154"
       xml:space="preserve"><flowRegion
         id="flowRegion3156"><rect
           style="font-size:12px"
           y="-191.18544"
           x="-287.289"
           height="95.763"
           width="278.7132"
           id="rect3158" /></flowRegion><flowPara
         id="flowPara3162">4000кгс</flowPara></flowRoot>    <flowRoot
       transform="matrix(0.99997124,-0.00758534,0.00758534,0.99997124,688.68462,576.37731)"
       style="font-size:12px;font-style:normal;font-weight:normal;line-height:125%;letter-spacing:0px;word-spacing:0px;fill:#000000;fill-opacity:1;stroke:none;font-family:Sans"
       id="flowRoot3174"
       xml:space="preserve"><flowRegion
         id="flowRegion3176"><rect
           style="font-size:12px"
           y="-191.18544"
           x="-287.289"
           height="95.763"
           width="278.7132"
           id="rect3178" /></flowRegion><flowPara
         id="flowPara3180">4000кгс</flowPara></flowRoot>  </g>
</svg>
