<?xml version="1.0" encoding="UTF-8" standalone="no"?>
<!-- Created with Inkscape (http://www.inkscape.org/) -->

<svg
   xmlns:dc="http://purl.org/dc/elements/1.1/"
   xmlns:cc="http://creativecommons.org/ns#"
   xmlns:rdf="http://www.w3.org/1999/02/22-rdf-syntax-ns#"
   xmlns:svg="http://www.w3.org/2000/svg"
   xmlns="http://www.w3.org/2000/svg"
   xmlns:sodipodi="http://sodipodi.sourceforge.net/DTD/sodipodi-0.dtd"
   xmlns:inkscape="http://www.inkscape.org/namespaces/inkscape"
   id="svg2"
   version="1.1"
   inkscape:version="0.48.4 r9939"
   width="686.89319"
   height="285.17136"
   xml:space="preserve"
   sodipodi:docname="KessSectionExample.pdf"><metadata
     id="metadata8"><rdf:RDF><cc:Work
         rdf:about=""><dc:format>image/svg+xml</dc:format><dc:type
           rdf:resource="http://purl.org/dc/dcmitype/StillImage" /><dc:title></dc:title></cc:Work></rdf:RDF></metadata><defs
     id="defs6"><marker
       inkscape:stockid="Arrow1Mend"
       orient="auto"
       refY="0"
       refX="0"
       id="Arrow1Mend"
       style="overflow:visible"><path
         id="path3839"
         d="M 0,0 5,-5 -12.5,0 5,5 0,0 z"
         style="fill-rule:evenodd;stroke:#000000;stroke-width:1pt"
         transform="matrix(-0.4,0,0,-0.4,-4,0)"
         inkscape:connector-curvature="0" /></marker><marker
       inkscape:stockid="Arrow1Mstart"
       orient="auto"
       refY="0"
       refX="0"
       id="Arrow1Mstart"
       style="overflow:visible"><path
         id="path3836"
         d="M 0,0 5,-5 -12.5,0 5,5 0,0 z"
         style="fill-rule:evenodd;stroke:#000000;stroke-width:1pt"
         transform="matrix(0.4,0,0,0.4,4,0)"
         inkscape:connector-curvature="0" /></marker><marker
       inkscape:stockid="Arrow1Lend"
       orient="auto"
       refY="0"
       refX="0"
       id="Arrow1Lend"
       style="overflow:visible"><path
         id="path3833"
         d="M 0,0 5,-5 -12.5,0 5,5 0,0 z"
         style="fill-rule:evenodd;stroke:#000000;stroke-width:1pt"
         transform="matrix(-0.8,0,0,-0.8,-10,0)"
         inkscape:connector-curvature="0" /></marker><marker
       inkscape:stockid="Arrow1Lstart"
       orient="auto"
       refY="0"
       refX="0"
       id="Arrow1Lstart"
       style="overflow:visible"><path
         id="path3830"
         d="M 0,0 5,-5 -12.5,0 5,5 0,0 z"
         style="fill-rule:evenodd;stroke:#000000;stroke-width:1pt"
         transform="matrix(0.8,0,0,0.8,10,0)"
         inkscape:connector-curvature="0" /></marker></defs><sodipodi:namedview
     pagecolor="#ffffff"
     bordercolor="#666666"
     borderopacity="1"
     objecttolerance="10"
     gridtolerance="10"
     guidetolerance="10"
     inkscape:pageopacity="0"
     inkscape:pageshadow="2"
     inkscape:window-width="1920"
     inkscape:window-height="1018"
     id="namedview4"
     showgrid="false"
     inkscape:zoom="1.1111111"
     inkscape:cx="369.51504"
     inkscape:cy="113.66834"
     inkscape:window-x="-8"
     inkscape:window-y="-8"
     inkscape:window-maximized="1"
     inkscape:current-layer="g3209"
     units="cm"
     height="8cm"
     inkscape:snap-bbox="false"
     inkscape:object-nodes="true"
     fit-margin-top="0"
     fit-margin-left="0"
     fit-margin-right="0"
     fit-margin-bottom="0" /><g
     id="g10"
     inkscape:groupmode="layer"
     inkscape:label="KessSectionExample"
     transform="matrix(1.25,0,0,-1.25,21.250785,278.03576)"><g
       id="g12"><g
         id="g3209"
         transform="matrix(0.51016055,0,0,0.51016055,-7.3517338,-32.74415)"><g
   transform="matrix(1,0,0,-1,0,576)"
   id="g14"><path
     inkscape:connector-curvature="0"
     id="path16"
     style="fill:none;stroke:#000000;stroke-width:0.25;stroke-linecap:square;stroke-linejoin:miter;stroke-miterlimit:3.79999995;stroke-opacity:1;stroke-dasharray:none"
     d="m 48.898,471.75 6.352,0" /></g><g
   transform="matrix(1,0,0,-1,0,576)"
   id="g18"><path
     inkscape:connector-curvature="0"
     id="path20"
     style="fill:none;stroke:#000000;stroke-width:0.25;stroke-linecap:square;stroke-linejoin:miter;stroke-miterlimit:3.79999995;stroke-opacity:1;stroke-dasharray:none"
     d="m 1058.102,471.75 -6.352,0" /></g><text
   id="text22"
   transform="scale(1,-1)"
   style="font-size:18.81760597px;font-style:normal;font-weight:normal;text-align:end;text-anchor:end;font-family:Sans;-inkscape-font-specification:Sans"
   x="41.242233"
   y="-99.273438"><tspan
     id="tspan24"
     sodipodi:role="line"
     style="font-size:18.81760597px;font-style:normal;font-variant:normal;font-weight:normal;text-align:end;writing-mode:lr-tb;text-anchor:end;fill:#000000;fill-opacity:1;fill-rule:nonzero;stroke:none;font-family:Sans;-inkscape-font-specification:Sans"
     x="41.242233"
     y="-99.273438">-1.4</tspan></text>

<g
   transform="matrix(1,0,0,-1,0,576)"
   id="g26"><path
     inkscape:connector-curvature="0"
     id="path28"
     style="fill:none;stroke:#000000;stroke-width:0.25;stroke-linecap:square;stroke-linejoin:miter;stroke-miterlimit:3.79999995;stroke-opacity:1;stroke-dasharray:none"
     d="m 48.898,431.398 6.352,0" /></g><text
   id="text34"
   transform="scale(1,-1)"
   style="font-size:18.81760597px;font-style:normal;font-weight:normal;text-align:end;text-anchor:end;font-family:Sans;-inkscape-font-specification:Sans"
   x="41.242237"
   y="-139.625"><tspan
     id="tspan36"
     sodipodi:role="line"
     style="font-size:18.81760597px;font-style:normal;font-variant:normal;font-weight:normal;text-align:end;writing-mode:lr-tb;text-anchor:end;fill:#000000;fill-opacity:1;fill-rule:nonzero;stroke:none;font-family:Sans;-inkscape-font-specification:Sans"
     x="41.242237"
     y="-139.625">-1.2</tspan></text>

<g
   transform="matrix(1,0,0,-1,0,576)"
   id="g38"><path
     inkscape:connector-curvature="0"
     id="path40"
     style="fill:none;stroke:#000000;stroke-width:0.25;stroke-linecap:square;stroke-linejoin:miter;stroke-miterlimit:3.79999995;stroke-opacity:1;stroke-dasharray:none"
     d="m 48.898,391 6.352,0" /></g><text
   id="text46"
   transform="scale(1,-1)"
   style="font-size:18.81760597px;font-style:normal;font-weight:normal;text-align:end;text-anchor:end;font-family:Sans;-inkscape-font-specification:Sans"
   x="41.242233"
   y="-180.02344"><tspan
     id="tspan48"
     sodipodi:role="line"
     y="-180.02344"
     x="27.485315 31.925314"
     style="font-size:18.81760597px;font-style:normal;font-variant:normal;font-weight:normal;text-align:end;writing-mode:lr-tb;text-anchor:end;fill:#000000;fill-opacity:1;fill-rule:nonzero;stroke:none;font-family:Sans;-inkscape-font-specification:Sans">-1</tspan></text>

<g
   transform="matrix(1,0,0,-1,0,576)"
   id="g50"><path
     inkscape:connector-curvature="0"
     id="path52"
     style="fill:none;stroke:#000000;stroke-width:0.25;stroke-linecap:square;stroke-linejoin:miter;stroke-miterlimit:3.79999995;stroke-opacity:1;stroke-dasharray:none"
     d="m 48.898,350.648 6.352,0" /></g><text
   id="text58"
   transform="scale(1,-1)"
   style="font-size:18.81760597px;font-style:normal;font-weight:normal;text-align:end;text-anchor:end;font-family:Sans;-inkscape-font-specification:Sans"
   x="41.242237"
   y="-220.375"><tspan
     id="tspan60"
     sodipodi:role="line"
     style="font-size:18.81760597px;font-style:normal;font-variant:normal;font-weight:normal;text-align:end;writing-mode:lr-tb;text-anchor:end;fill:#000000;fill-opacity:1;fill-rule:nonzero;stroke:none;font-family:Sans;-inkscape-font-specification:Sans"
     x="41.242237"
     y="-220.375">-0.8</tspan></text>

<g
   transform="matrix(1,0,0,-1,0,576)"
   id="g62"><path
     inkscape:connector-curvature="0"
     id="path64"
     style="fill:none;stroke:#000000;stroke-width:0.25;stroke-linecap:square;stroke-linejoin:miter;stroke-miterlimit:3.79999995;stroke-opacity:1;stroke-dasharray:none"
     d="m 48.898,310.301 6.352,0" /></g><text
   id="text70"
   transform="scale(1,-1)"
   style="font-size:18.81760597px;font-style:normal;font-weight:normal;text-align:end;text-anchor:end;font-family:Sans;-inkscape-font-specification:Sans"
   x="41.242233"
   y="-260.72656"><tspan
     id="tspan72"
     sodipodi:role="line"
     y="-260.72656"
     x="41.242233"
     style="font-size:18.81760597px;font-style:normal;font-variant:normal;font-weight:normal;text-align:end;writing-mode:lr-tb;text-anchor:end;fill:#000000;fill-opacity:1;fill-rule:nonzero;stroke:none;font-family:Sans;-inkscape-font-specification:Sans">-0.6</tspan></text>

<g
   transform="matrix(1,0,0,-1,0,576)"
   id="g74"><path
     inkscape:connector-curvature="0"
     id="path76"
     style="fill:none;stroke:#000000;stroke-width:0.25;stroke-linecap:square;stroke-linejoin:miter;stroke-miterlimit:3.79999995;stroke-opacity:1;stroke-dasharray:none"
     d="m 48.898,269.949 6.352,0" /></g><text
   id="text82"
   transform="scale(1,-1)"
   style="font-size:18.81760597px;font-style:normal;font-weight:normal;text-align:end;text-anchor:end;font-family:Sans;-inkscape-font-specification:Sans"
   x="41.242233"
   y="-301.07422"><tspan
     id="tspan84"
     sodipodi:role="line"
     style="font-size:18.81760597px;font-style:normal;font-variant:normal;font-weight:normal;text-align:end;writing-mode:lr-tb;text-anchor:end;fill:#000000;fill-opacity:1;fill-rule:nonzero;stroke:none;font-family:Sans;-inkscape-font-specification:Sans"
     x="41.242233"
     y="-301.07422">-0.4</tspan></text>

<g
   transform="matrix(1,0,0,-1,0,576)"
   id="g86"><path
     inkscape:connector-curvature="0"
     id="path88"
     style="fill:none;stroke:#000000;stroke-width:0.25;stroke-linecap:square;stroke-linejoin:miter;stroke-miterlimit:3.79999995;stroke-opacity:1;stroke-dasharray:none"
     d="m 48.898,229.551 6.352,0" /></g><text
   id="text94"
   transform="scale(1,-1)"
   style="font-size:18.81760597px;font-style:normal;font-weight:normal;text-align:end;text-anchor:end;font-family:Sans;-inkscape-font-specification:Sans"
   x="41.242237"
   y="-341.47656"><tspan
     id="tspan96"
     sodipodi:role="line"
     style="font-size:18.81760597px;font-style:normal;font-variant:normal;font-weight:normal;text-align:end;writing-mode:lr-tb;text-anchor:end;fill:#000000;fill-opacity:1;fill-rule:nonzero;stroke:none;font-family:Sans;-inkscape-font-specification:Sans"
     x="41.242237"
     y="-341.47656">-0.2</tspan></text>

<g
   transform="matrix(1,0,0,-1,0,576)"
   id="g98"><path
     inkscape:connector-curvature="0"
     id="path100"
     style="fill:none;stroke:#000000;stroke-width:0.25;stroke-linecap:square;stroke-linejoin:miter;stroke-miterlimit:3.79999995;stroke-opacity:1;stroke-dasharray:none"
     d="m 48.898,189.199 6.352,0" /></g><text
   id="text106"
   transform="scale(1,-1)"
   style="font-size:18.81760597px;font-style:normal;font-weight:normal;text-align:end;text-anchor:end;font-family:Sans;-inkscape-font-specification:Sans"
   x="40.920647"
   y="-381.82422"><tspan
     id="tspan108"
     y="-381.82422"
     x="31.438337"
     style="font-size:18.81760597px;font-style:normal;font-variant:normal;font-weight:normal;text-align:end;writing-mode:lr-tb;text-anchor:end;fill:#000000;fill-opacity:1;fill-rule:nonzero;stroke:none;font-family:Sans;-inkscape-font-specification:Sans">0</tspan></text>

<g
   transform="matrix(1,0,0,-1,0,576)"
   id="g110"><path
     inkscape:connector-curvature="0"
     id="path112"
     style="fill:none;stroke:#000000;stroke-width:0.25;stroke-linecap:square;stroke-linejoin:miter;stroke-miterlimit:3.79999995;stroke-opacity:1;stroke-dasharray:none"
     d="m 48.898,148.852 6.352,0" /></g><text
   id="text118"
   transform="scale(1,-1)"
   style="font-size:18.81760597px;font-style:normal;font-weight:normal;text-align:end;text-anchor:end;font-family:Sans;-inkscape-font-specification:Sans"
   x="40.920647"
   y="-422.17578"><tspan
     id="tspan120"
     sodipodi:role="line"
     style="font-size:18.81760597px;font-style:normal;font-variant:normal;font-weight:normal;text-align:end;writing-mode:lr-tb;text-anchor:end;fill:#000000;fill-opacity:1;fill-rule:nonzero;stroke:none;font-family:Sans;-inkscape-font-specification:Sans"
     x="40.920647"
     y="-422.17578">0.2</tspan></text>

<g
   transform="matrix(1,0,0,-1,0,576)"
   id="g122"><path
     inkscape:connector-curvature="0"
     id="path124"
     style="fill:none;stroke:#000000;stroke-width:0.25;stroke-linecap:square;stroke-linejoin:miter;stroke-miterlimit:3.79999995;stroke-opacity:1;stroke-dasharray:none"
     d="m 48.898,108.5 6.352,0" /></g><text
   id="text130"
   transform="scale(1,-1)"
   style="font-size:18.81760597px;font-style:normal;font-weight:normal;text-align:end;text-anchor:end;font-family:Sans;-inkscape-font-specification:Sans"
   x="40.920643"
   y="-462.52344"><tspan
     id="tspan132"
     sodipodi:role="line"
     style="font-size:18.81760597px;font-style:normal;font-variant:normal;font-weight:normal;text-align:end;writing-mode:lr-tb;text-anchor:end;fill:#000000;fill-opacity:1;fill-rule:nonzero;stroke:none;font-family:Sans;-inkscape-font-specification:Sans"
     x="40.920643"
     y="-462.52344">0.4</tspan></text>

<g
   transform="matrix(1,0,0,-1,0,576)"
   id="g134"><path
     inkscape:connector-curvature="0"
     id="path136"
     style="fill:none;stroke:#000000;stroke-width:0.25;stroke-linecap:square;stroke-linejoin:miter;stroke-miterlimit:3.79999995;stroke-opacity:1;stroke-dasharray:none"
     d="m 149.801,471.75 0,-6.352" /></g><text
   id="text142"
   transform="matrix(1,0,0,-1,143.84766,83.324219)"
   style="font-size:18.81760597px;font-family:Sans;-inkscape-font-specification:Sans"><tspan
     id="tspan144"
     sodipodi:role="line"
     y="0"
     x="0 4.4400001"
     style="font-size:18.81760597px;font-variant:normal;font-weight:normal;writing-mode:lr-tb;fill:#000000;fill-opacity:1;fill-rule:nonzero;stroke:none;font-family:Sans;-inkscape-font-specification:Sans">-2</tspan></text>

<g
   transform="matrix(1,0,0,-1,0,576)"
   id="g146"><path
     inkscape:connector-curvature="0"
     id="path148"
     style="fill:none;stroke:#000000;stroke-width:0.25;stroke-linecap:square;stroke-linejoin:miter;stroke-miterlimit:3.79999995;stroke-opacity:1;stroke-dasharray:none"
     d="m 351.648,471.75 0,-6.352" /></g><text
   id="text154"
   transform="matrix(1,0,0,-1,345.69531,83.324219)"
   style="font-size:18.81760597px;font-family:Sans;-inkscape-font-specification:Sans"><tspan
     id="tspan156"
     sodipodi:role="line"
     y="0"
     x="0 4.4400001"
     style="font-size:18.81760597px;font-variant:normal;font-weight:normal;writing-mode:lr-tb;fill:#000000;fill-opacity:1;fill-rule:nonzero;stroke:none;font-family:Sans;-inkscape-font-specification:Sans">-1</tspan></text>

<g
   transform="matrix(1,0,0,-1,0,576)"
   id="g158"><path
     inkscape:connector-curvature="0"
     id="path160"
     style="fill:none;stroke:#000000;stroke-width:0.25;stroke-linecap:square;stroke-linejoin:miter;stroke-miterlimit:3.79999995;stroke-opacity:1;stroke-dasharray:none"
     d="m 553.5,471.75 0,-6.352" /></g><text
   id="text166"
   transform="scale(1,-1)"
   style="font-size:18.81760597px;font-family:Sans;-inkscape-font-specification:Sans"
   x="547.64581"
   y="-83.324219"><tspan
     id="tspan168"
     y="-83.324219"
     x="547.64581"
     style="font-size:18.81760597px;font-variant:normal;font-weight:normal;writing-mode:lr-tb;fill:#000000;fill-opacity:1;fill-rule:nonzero;stroke:none;font-family:Sans;-inkscape-font-specification:Sans">0</tspan></text>

<g
   transform="matrix(1,0,0,-1,0,576)"
   id="g170"><path
     inkscape:connector-curvature="0"
     id="path172"
     style="fill:none;stroke:#000000;stroke-width:0.25;stroke-linecap:square;stroke-linejoin:miter;stroke-miterlimit:3.79999995;stroke-opacity:1;stroke-dasharray:none"
     d="m 755.352,471.75 0,-6.352" /></g><text
   id="text178"
   transform="matrix(1,0,0,-1,753.45896,83.324219)"
   style="font-size:18.81760597px;font-family:Sans;-inkscape-font-specification:Sans"><tspan
     id="tspan180"
     y="0"
     x="0"
     style="font-size:18.81760597px;font-variant:normal;font-weight:normal;writing-mode:lr-tb;fill:#000000;fill-opacity:1;fill-rule:nonzero;stroke:none;font-family:Sans;-inkscape-font-specification:Sans">1</tspan></text>

<g
   transform="matrix(1,0,0,-1,0,576)"
   id="g182"><path
     inkscape:connector-curvature="0"
     id="path184"
     style="fill:none;stroke:#000000;stroke-width:0.25;stroke-linecap:square;stroke-linejoin:miter;stroke-miterlimit:3.79999995;stroke-opacity:1;stroke-dasharray:none"
     d="m 957.199,471.75 0,-6.352" /></g><text
   id="text190"
   transform="matrix(1,0,0,-1,955.30661,83.324219)"
   style="font-size:18.81760597px;font-family:Sans;-inkscape-font-specification:Sans"><tspan
     id="tspan192"
     y="0"
     x="0"
     style="font-size:18.81760597px;font-variant:normal;font-weight:normal;writing-mode:lr-tb;fill:#000000;fill-opacity:1;fill-rule:nonzero;stroke:none;font-family:Sans;-inkscape-font-specification:Sans">2</tspan></text>

<g
   transform="matrix(1,0,0,-1,0,576)"
   id="g194"><path
     sodipodi:nodetypes="ccc"
     inkscape:connector-curvature="0"
     id="path196"
     style="fill:none;stroke:#000000;stroke-width:0.25;stroke-linecap:square;stroke-linejoin:miter;stroke-miterlimit:3.79999995;stroke-opacity:1;stroke-dasharray:none"
     d="m 48.898,88.301 0,383.449 1009.204,0" /></g><g
   transform="matrix(1,0,0,-1,0,576)"
   id="g206"><path
     inkscape:connector-curvature="0"
     id="path208"
     style="fill:none;stroke:#50f050;stroke-width:2.5;stroke-linecap:square;stroke-linejoin:miter;stroke-miterlimit:3.79999995;stroke-opacity:1;stroke-dasharray:none"
     d="m 59,189.199 1,0 1.449,0.051 2.5,0.051 4.949,0.25 4.954,0.398 9.847,1.301 12.352,2.5 12.398,3.352 24.699,9.296 24.75,12.204 24.704,14.75 24.75,16.898 24.699,18.551 24.75,19.847 24.699,20.704 24.75,21.148 24.699,21.102 24.75,20.699 24.699,19.847 24.75,18.551 24.704,16.903 24.75,14.75 24.699,12.25 24.75,9.25 24.699,5.847 24.75,2.051 24.75,-2.051 24.699,-5.847 24.75,-9.25 24.699,-12.25 24.75,-14.75 24.704,-16.903 24.75,-18.551 24.699,-19.847 24.75,-20.699 24.699,-21.102 24.75,-21.148 24.699,-20.704 24.75,-19.847 24.699,-18.551 24.75,-16.898 24.704,-14.75 24.75,-12.204 24.699,-9.296 12.398,-3.352 12.352,-2.5 9.847,-1.301 4.954,-0.398 4.949,-0.25 2.5,-0.051 1.449,-0.051 1,0" /></g><g
   transform="matrix(1,0,0,-1,0,576)"
   id="g218"><path
     inkscape:connector-curvature="0"
     id="path220"
     style="fill:none;stroke:#50f050;stroke-width:2.5;stroke-linecap:square;stroke-linejoin:miter;stroke-miterlimit:3.79999995;stroke-opacity:1;stroke-dasharray:none"
     d="m 59,139 1,0 1.449,0.051 2.5,0.051 4.949,0.199 4.954,0.347 9.847,1.102 12.352,2.051 12.398,2.801 24.699,7.75 24.75,10.199 24.704,12.301 24.75,14.097 24.699,15.5 24.75,16.551 24.699,17.301 24.75,17.597 24.699,17.602 24.75,17.301 24.699,16.551 24.75,15.5 24.704,14.097 24.75,12.301 24.699,10.199 24.75,7.75 24.699,4.852 24.75,1.75 24.75,-1.75 24.699,-4.852 24.75,-7.75 24.699,-10.199 24.75,-12.301 24.704,-14.097 24.75,-15.5 24.699,-16.551 24.75,-17.301 24.699,-17.602 24.75,-17.597 24.699,-17.301 24.75,-16.551 24.699,-15.5 24.75,-14.097 24.704,-12.301 24.75,-10.199 24.699,-7.75 12.398,-2.801 12.352,-2.051 9.847,-1.102 4.954,-0.347 4.949,-0.199 2.5,-0.051 1.449,-0.051 1,0" /></g><path
   style="fill:none;stroke:#000000;stroke-width:1px;stroke-linecap:butt;stroke-linejoin:miter;stroke-opacity:1;marker-start:url(#Arrow1Mstart);marker-end:url(#Arrow1Mend)"
   d="m 343.77766,255.44156 0,-56.91449"
   id="path3056"
   inkscape:connector-curvature="0"
   transform="matrix(1.5681338,0,0,-1.5681338,14.410628,508.69768)"
   sodipodi:nodetypes="cc" /><path
   sodipodi:nodetypes="cc"
   inkscape:connector-curvature="0"
   id="path4834"
   d="m 622.6547,106.71982 0,276.95514"
   style="fill:none;stroke:#000000;stroke-width:1.56813383px;stroke-linecap:butt;stroke-linejoin:miter;stroke-opacity:1;marker-start:url(#Arrow1Mstart);marker-end:url(#Arrow1Mend)" /><path
   style="fill:none;stroke:#000000;stroke-width:1.56813383;stroke-linecap:butt;stroke-linejoin:miter;stroke-miterlimit:4;stroke-opacity:1;stroke-dasharray:1.5681338, 18.81760555;stroke-dashoffset:15.68133797"
   d="m 58.735378,386.801 989.908522,0"
   id="path4836"
   inkscape:connector-curvature="0" /><flowRoot
   xml:space="preserve"
   id="flowRoot4838"
   style="font-size:12px;font-style:normal;font-weight:normal;line-height:125%;letter-spacing:0px;word-spacing:0px;fill:#000000;fill-opacity:1;stroke:none;font-family:Sans"
   transform="matrix(1.5681338,0,0,-1.5681338,130.17332,404.91044)"><flowRegion
     id="flowRegion4840"><rect
       id="rect4842"
       width="186.29092"
       height="30.946299"
       x="70.003571"
       y="-5.4592643"
       style="font-size:12px" /></flowRegion><flowPara
     id="flowPara4844">$\text{Базовая горизонталь БПЛА}$</flowPara></flowRoot><flowRoot
   xml:space="preserve"
   id="flowRoot4846"
   style="font-size:12px;font-style:normal;font-weight:normal;text-align:end;line-height:125%;letter-spacing:0px;word-spacing:0px;text-anchor:end;fill:#000000;fill-opacity:1;stroke:none;font-family:Sans"
   transform="matrix(1.5681338,0,0,-1.5681338,-148.59688,467.76938)"><flowRegion
     id="flowRegion4848"><rect
       id="rect4850"
       width="116.49246"
       height="38.005207"
       x="372.702"
       y="134.98463"
       style="font-size:12px;text-align:end;text-anchor:end" /></flowRegion><flowPara
     id="flowPara4852">$y_\text{отн}$</flowPara></flowRoot><flowRoot
   xml:space="preserve"
   id="flowRoot4854"
   style="font-size:12px;font-style:normal;font-weight:normal;text-align:end;line-height:125%;letter-spacing:0px;word-spacing:0px;text-anchor:end;fill:#000000;fill-opacity:1;stroke:none;font-family:Sans"
   transform="matrix(1.5681338,0,0,-1.5681338,92.033252,458.5958)"><flowRegion
     id="flowRegion4856"><rect
       id="rect4858"
       width="98.004997"
       height="29.274231"
       x="193.46442"
       y="185.45956"
       style="font-size:12px;text-align:end;text-anchor:end" /></flowRegion><flowPara
     id="flowPara4860">$h_\text{стр}$</flowPara></flowRoot><path
   inkscape:connector-curvature="0"
   id="path4862"
   d="m 553.5,499.39721 0,-395.03695"
   style="fill:none;stroke:#000000;stroke-width:1.56813383;stroke-linecap:butt;stroke-linejoin:miter;stroke-miterlimit:4;stroke-opacity:1;stroke-dasharray:1.5681338, 18.81760556;stroke-dashoffset:10.50649644"
   sodipodi:nodetypes="cc" /><flowRoot
   transform="matrix(1.5681338,0,0,-1.5681338,454.77702,464.1859)"
   style="font-size:12px;font-style:normal;font-weight:normal;line-height:125%;letter-spacing:0px;word-spacing:0px;fill:#000000;fill-opacity:1;stroke:none;font-family:Sans"
   id="flowRoot4864"
   xml:space="preserve"><flowRegion
     id="flowRegion4866"><rect
       style="font-size:12px"
       y="-5.4592643"
       x="70.003571"
       height="15.646297"
       width="242.09091"
       id="rect4868" /></flowRegion><flowPara
     id="flowPara4870">$\text{Плоскость симметрии БПЛА}$</flowPara></flowRoot><path
   style="fill:none;stroke:#000000;stroke-width:1.56813383px;stroke-linecap:butt;stroke-linejoin:miter;stroke-opacity:1;marker-start:url(#Arrow1Mstart);marker-end:none"
   d="m 558.30918,448.01747 371.45649,0"
   id="path4872"
   inkscape:connector-curvature="0"
   sodipodi:nodetypes="cc" /><flowRoot
   xml:space="preserve"
   id="flowRoot3085"
   style="font-size:12px;font-style:normal;font-weight:normal;text-align:center;line-height:125%;letter-spacing:0px;word-spacing:0px;text-anchor:middle;fill:#000000;fill-opacity:1;stroke:none;font-family:Sans"
   transform="matrix(0,1.5681338,1.5681338,0,-207.5537,368.5826)"><flowRegion
     id="flowRegion3087"><rect
       id="rect3089"
       width="69.299995"
       height="16.200003"
       x="-126"
       y="109.76456"
       style="font-size:12px;text-align:center;text-anchor:middle" /></flowRegion><flowPara
     id="flowPara3091">$y[\text{м}]$</flowPara></flowRoot><flowRoot
   xml:space="preserve"
   id="flowRoot3093"
   style="font-size:12px;font-style:normal;font-weight:normal;text-align:center;line-height:125%;letter-spacing:0px;word-spacing:0px;text-anchor:middle;fill:#000000;fill-opacity:1;stroke:none;font-family:Sans"
   transform="matrix(1.5681338,0,0,-1.5681338,131.55022,527.04485)"><flowRegion
     id="flowRegion3095"><rect
       id="rect3097"
       width="100.79999"
       height="19.800003"
       x="218.7"
       y="289.76456"
       style="font-size:12px;text-align:center;text-anchor:middle" /></flowRegion><flowPara
     id="flowPara3099">$z[\text{м}]$</flowPara></flowRoot></g><flowRoot
         xml:space="preserve"
         id="flowRoot3201"
         style="font-size:40px;font-style:normal;font-weight:normal;line-height:125%;letter-spacing:0px;word-spacing:0px;fill:#000000;fill-opacity:1;stroke:none;font-family:Sans"
         transform="matrix(0.8,0,0,-0.8,0,576)"><flowRegion
           id="flowRegion3203"><rect
             id="rect3205"
             width="347.39999"
             height="95.400002"
             x="538.20001"
             y="464.39999" /></flowRegion><flowPara
           id="flowPara3207" /></flowRoot></g></g></svg>