<?xml version="1.0" encoding="UTF-8" standalone="no"?>
<svg
   xmlns:dc="http://purl.org/dc/elements/1.1/"
   xmlns:cc="http://creativecommons.org/ns#"
   xmlns:rdf="http://www.w3.org/1999/02/22-rdf-syntax-ns#"
   xmlns:svg="http://www.w3.org/2000/svg"
   xmlns="http://www.w3.org/2000/svg"
   xmlns:xlink="http://www.w3.org/1999/xlink"
   xmlns:sodipodi="http://sodipodi.sourceforge.net/DTD/sodipodi-0.dtd"
   xmlns:inkscape="http://www.inkscape.org/namespaces/inkscape"
   width="673.22833"
   height="248.03149"
   viewBox="0 0 673.22835 248.03149"
   id="svg2"
   version="1.1"
   inkscape:version="0.48.4 r9939"
   sodipodi:docname="OriginalSectionWithEngine.pdf">
  <metadata
     id="metadata209">
    <rdf:RDF>
      <cc:Work
         rdf:about="">
        <dc:format>image/svg+xml</dc:format>
        <dc:type
           rdf:resource="http://purl.org/dc/dcmitype/StillImage" />
        <dc:title>Gnuplot</dc:title>
      </cc:Work>
    </rdf:RDF>
  </metadata>
  <defs
     id="defs207">
    <defs
       id="defs11">
      <circle
         style="stroke-width:0.5"
         sodipodi:ry="0.5"
         sodipodi:rx="0.5"
         sodipodi:cy="0"
         sodipodi:cx="0"
         cy="0"
         cx="0"
         r="0.5"
         id="gpDot" />
      <path
         style="stroke:currentColor;stroke-width:0.222"
         inkscape:connector-curvature="0"
         d="M -1,0 H 1 M 0,-1 v 2"
         id="gpPt0" />
      <path
         style="stroke:currentColor;stroke-width:0.222"
         inkscape:connector-curvature="0"
         d="M -1,-1 1,1 M 1,-1 -1,1"
         id="gpPt1" />
      <path
         style="stroke:currentColor;stroke-width:0.222"
         inkscape:connector-curvature="0"
         d="M -1,0 1,0 M 0,-1 0,1 m -1,-2 2,2 m -2,0 2,-2"
         id="gpPt2" />
      <rect
         style="stroke:currentColor;stroke-width:0.222"
         height="2"
         width="2"
         y="-1"
         x="-1"
         id="gpPt3" />
      <rect
         style="fill:currentColor;stroke:currentColor;stroke-width:0.222"
         height="2"
         width="2"
         y="-1"
         x="-1"
         id="gpPt4" />
      <circle
         style="stroke:currentColor;stroke-width:0.222"
         sodipodi:ry="1"
         sodipodi:rx="1"
         sodipodi:cy="0"
         sodipodi:cx="0"
         r="1"
         cy="0"
         cx="0"
         id="gpPt5" />
      <use
         height="600"
         width="1300"
         y="0"
         x="0"
         style="fill:currentColor;stroke:none"
         id="gpPt6"
         xlink:href="#gpPt5" />
      <path
         style="stroke:currentColor;stroke-width:0.222"
         inkscape:connector-curvature="0"
         d="m 0,-1.33 -1.33,2 2.66,0 z"
         id="gpPt7" />
      <use
         height="600"
         width="1300"
         y="0"
         x="0"
         style="fill:currentColor;stroke:none"
         id="gpPt8"
         xlink:href="#gpPt7" />
      <use
         height="600"
         width="1300"
         y="0"
         x="0"
         style="stroke:currentColor"
         transform="scale(-1,-1)"
         id="gpPt9"
         xlink:href="#gpPt7" />
      <use
         height="600"
         width="1300"
         y="0"
         x="0"
         style="fill:currentColor;stroke:none"
         id="gpPt10"
         xlink:href="#gpPt9" />
      <use
         height="600"
         width="1300"
         y="0"
         x="0"
         style="stroke:currentColor"
         transform="matrix(0.70710678,0.70710678,-0.70710678,0.70710678,0,0)"
         id="gpPt11"
         xlink:href="#gpPt3" />
      <use
         height="600"
         width="1300"
         y="0"
         x="0"
         style="fill:currentColor;stroke:none"
         id="gpPt12"
         xlink:href="#gpPt11" />
    </defs>
  </defs>
  <sodipodi:namedview
     pagecolor="#ffffff"
     bordercolor="#666666"
     borderopacity="1"
     objecttolerance="10"
     gridtolerance="10"
     guidetolerance="10"
     inkscape:pageopacity="0"
     inkscape:pageshadow="2"
     inkscape:window-width="1920"
     inkscape:window-height="1018"
     id="namedview205"
     showgrid="true"
     inkscape:zoom="1.0717752"
     inkscape:cx="227.97203"
     inkscape:cy="48.998021"
     inkscape:window-x="-8"
     inkscape:window-y="-8"
     inkscape:window-maximized="1"
     inkscape:current-layer="svg2"
     inkscape:snap-global="false"
     units="cm"
     fit-margin-top="1"
     fit-margin-left="1"
     fit-margin-bottom="1"
     fit-margin-right="1">
    <inkscape:grid
       type="xygrid"
       id="grid3186"
       empspacing="5"
       visible="true"
       enabled="true"
       snapvisiblegridlinesonly="true"
       originx="21.236447px"
       originy="-675.03038px" />
  </sodipodi:namedview>
  <title
     id="title4">Gnuplot</title>
  <desc
     id="desc6">Produced by GNUPLOT 4.6 patchlevel 4 </desc>
  <g
     id="g3950"
     transform="translate(4.2599498,0.97853886)">
    <flowRoot
       transform="translate(21.236447,323.06187)"
       style="font-size:40px;font-style:normal;font-weight:normal;line-height:125%;letter-spacing:0px;word-spacing:0px;fill:#000000;fill-opacity:1;stroke:none;font-family:Sans"
       id="flowRoot3958"
       xml:space="preserve"><flowRegion
         id="flowRegion3960"><rect
           y="-79.449837"
           x="498.5437"
           height="86.245956"
           width="382.8479"
           id="rect3962" /></flowRegion><flowPara
         id="flowPara3964" /></flowRoot>    <g
       transform="matrix(0.56005747,0,0,0.56005747,-39.778761,-6.0000351)"
       id="g176"
       style="color:#ffffff;fill:none;stroke:#808080;stroke-width:5;stroke-linecap:butt;stroke-linejoin:miter" />
    <g
       transform="matrix(0.56005747,0,0,0.56005747,-39.778761,-6.0000351)"
       id="g178"
       style="color:#008000;fill:none;stroke:currentColor;stroke-width:5;stroke-linecap:butt;stroke-linejoin:miter">
      <path
         sodipodi:nodetypes="cccccccccccccccccccccccccccccccccccccccccccccccccccccccc"
         style="stroke:#5e9c36"
         inkscape:connector-curvature="0"
         id="path186"
         d="m 105.7,244.7 0.3,0 0.8,0 1.7,0 2.8,0 5.6,0.4 5.6,0.2 11.1,0.4 14,0.7 14,0.9 27.9,3.5 28,6.6 27.9,9.7 27.9,12.8 28,15.8 27.9,17.8 27.9,17.3 28,14.1 27.9,12.8 28,11.8 27.9,10.5 27.9,8.8 28,7 27.9,4.9 27.9,3.1 28,1.6 27.9,0.4 28,0 27.9,0 27.9,-0.4 28,-1.6 27.9,-3.1 27.9,-4.9 28,-7 27.9,-8.8 27.9,-10.5 28,-11.8 27.9,-12.8 28,-14.1 27.9,-17.3 27.9,-17.8 28,-15.8 27.9,-12.8 27.9,-9.7 28,-6.6 27.9,-3.5 14,-0.9 14,-0.7 11.1,-0.4 5.6,-0.2 5.6,-0.4 2.8,0 1.7,0 0.8,0 0.3,0 0.01,0" />
      <path
         sodipodi:nodetypes="caccccccccccccccccccccccccccccccccccccccccccccccccccccccccccac"
         style="stroke:#5e9cff;stroke-opacity:1"
         inkscape:connector-curvature="0"
         d="m 665,245 c 105,0 222.21273,-45.80291 335,-55 73.0907,-5.96009 146.3843,-2.25927 220,0 l 3.21,54.7 -0.01,0 -0.3,0 -0.8,0 -1.7,0 -2.8,0 -5.6,0.4 -5.6,0.2 -11.1,0.4 -14,0.7 -14,0.9 -27.9,3.5 -28,6.6 -27.9,9.7 -27.9,12.8 -28,15.8 -27.9,17.8 -27.9,17.3 -28,14.1 -27.9,12.8 -28,11.8 -27.9,10.5 -27.9,8.8 -28,7 -27.9,4.9 -27.9,3.1 -28,1.6 -27.9,0.4 -27.9,0 -28,0 -27.9,-0.4 -28,-1.6 -27.9,-3.1 -27.9,-4.9 -28,-7 -27.9,-8.8 -27.9,-10.5 -28,-11.8 -27.9,-12.8 -28,-14.1 -27.9,-17.3 -27.9,-17.8 -28,-15.8 -27.9,-12.8 -27.9,-9.7 -28,-6.6 -27.9,-3.5 -14,-0.9 -14,-0.7 -11.1,-0.4 -5.6,-0.2 -5.6,-0.4 -2.8,0 -1.7,0 -0.8,0 -0.3,0 0.51338,-55.02988 c 74.02354,-2.25927 147.72319,-5.96009 221.21882,0 113.41212,9.19709 231.27422,55 336.85593,55"
         id="path3106" />
    </g>
    <g
       transform="matrix(0.56005747,0,0,0.56005747,-39.778761,-6.0000351)"
       id="g191"
       style="color:#008000;fill:none;stroke:currentColor;stroke-width:5;stroke-linecap:butt;stroke-linejoin:miter">
      <path
         sodipodi:nodetypes="cccccccccccccccccccccccccccccccccccccccccccccccccccccccc"
         style="stroke:#5e9c36"
         inkscape:connector-curvature="0"
         id="path199"
         d="m 105.7,188 0.3,0 0.8,0 1.7,-0.1 2.8,-0.2 5.6,-0.4 5.6,-0.5 11.1,-1.2 14,-2.2 14,-3 27.9,-9.1 28,-13 27.9,-14.1 27.9,-12.5 28,-10 27.9,-8 27.9,-6.2 28,-4.5 27.9,-3.3 28,-1.9 27.9,0.1 27.9,5.3 28,14.3 27.9,25.5 27.9,42.6 28,38.8 27.9,16.4 28,2.6 27.9,-2.6 27.9,-16.4 28,-38.8 27.9,-42.6 27.9,-25.5 28,-14.3 27.9,-5.3 27.9,-0.1 28,1.9 27.9,3.3 28,4.5 27.9,6.2 27.9,8 28,10 27.9,12.5 27.9,14.1 28,13 27.9,9.1 14,3 14,2.2 11.1,1.2 5.6,0.5 5.6,0.4 2.8,0.2 1.7,0.1 0.8,0 0.3,0 0.01,0" />
      <path
         sodipodi:nodetypes="ccccccccccccccc"
         inkscape:connector-curvature="0"
         style="stroke:#ff9c36;stroke-opacity:1"
         d="m 468.24025,97.9 27.9,5.3 28,14.3 27.9,25.5 27.9,42.6 28,38.8 27.9,16.4 28,2.6 27.9,-2.6 27.9,-16.4 28,-38.8 27.9,-42.6 27.9,-25.5 28,-14.3 27.9,-5.3"
         id="path4111" />
    </g>
    <flowRoot
       transform="matrix(0.56005747,0,0,0.56005747,65.319524,111.4429)"
       style="font-size:28px;font-style:normal;font-weight:normal;line-height:125%;letter-spacing:0px;word-spacing:0px;fill:#000000;fill-opacity:1;stroke:none;font-family:Sans"
       id="flowRoot3966"
       xml:space="preserve"><flowRegion
         id="flowRegion3968"><rect
           style="font-size:28px"
           y="-113.1068"
           x="372.33011"
           height="83.409103"
           width="200.01364"
           id="rect3970" /></flowRegion><flowPara
         style="text-align:center;text-anchor:middle"
         id="flowPara3972">Зона силовой установки</flowPara></flowRoot>    <flowRoot
       transform="matrix(0.84056573,0,0,0.84056573,-197.81206,-67.868458)"
       style="font-size:28px;font-style:normal;font-weight:normal;line-height:125%;letter-spacing:0px;word-spacing:0px;fill:#000000;fill-opacity:1;stroke:none;font-family:Sans"
       id="flowRoot3878"
       xml:space="preserve"><flowRegion
         id="flowRegion3880"><rect
           style="font-size:28px"
           y="272.50595"
           x="494.50668"
           height="97.494049"
           width="405.49332"
           id="rect3882" /></flowRegion><flowPara
         id="flowPara3884">Силовая конструкция</flowPara></flowRoot>    <path
       sodipodi:nodetypes="csc"
       inkscape:connector-curvature="0"
       id="path3886"
       d="M 447.47124,48.885597 C 427.86923,48.325539 410.46702,50.899009 397.06607,44.405137 371.24914,31.894573 355.06176,24.803126 332.65946,24.803126"
       style="fill:none;stroke:#ff9c36;stroke-width:2.80028725;stroke-linecap:round;stroke-linejoin:miter;stroke-miterlimit:4;stroke-opacity:1;stroke-dasharray:none" />
    <use
       height="600"
       width="1300"
       transform="matrix(-1,0,0,1,665.3817,1.1041427e-6)"
       id="use3888"
       xlink:href="#path3886"
       y="0"
       x="0" />
    <flowRoot
       transform="matrix(0.899934,0,0,0.899934,-207.18392,-57.641254)"
       style="font-size:20px;font-style:normal;font-weight:normal;text-align:center;line-height:125%;letter-spacing:0px;word-spacing:0px;text-anchor:middle;fill:#000000;fill-opacity:1;stroke:none;font-family:Sans"
       id="flowRoot4113"
       xml:space="preserve"><flowRegion
         id="flowRegion4115"><rect
           style="font-size:20px;text-align:center;text-anchor:middle"
           y="124.15396"
           x="353.61893"
           height="67.178268"
           width="182.87416"
           id="rect4117" /></flowRegion><flowPara
         id="flowPara4119">отсеки оборудования</flowPara></flowRoot>    <use
       height="600"
       width="1300"
       transform="translate(282.98474,0.115933)"
       id="use3038"
       xlink:href="#flowRoot4113"
       y="0"
       x="0" />
  </g>
</svg>
