<?xml version="1.0" encoding="UTF-8" standalone="no"?>
<svg
   xmlns:dc="http://purl.org/dc/elements/1.1/"
   xmlns:cc="http://creativecommons.org/ns#"
   xmlns:rdf="http://www.w3.org/1999/02/22-rdf-syntax-ns#"
   xmlns:svg="http://www.w3.org/2000/svg"
   xmlns="http://www.w3.org/2000/svg"
   xmlns:xlink="http://www.w3.org/1999/xlink"
   xmlns:sodipodi="http://sodipodi.sourceforge.net/DTD/sodipodi-0.dtd"
   xmlns:inkscape="http://www.inkscape.org/namespaces/inkscape"
   width="1300"
   height="600"
   viewBox="0 0 1300 600"
   id="svg2"
   version="1.1"
   inkscape:version="0.48.4 r9939"
   sodipodi:docname="OriginalSectionWithEngine.pdf">
  <metadata
     id="metadata209">
    <rdf:RDF>
      <cc:Work
         rdf:about="">
        <dc:format>image/svg+xml</dc:format>
        <dc:type
           rdf:resource="http://purl.org/dc/dcmitype/StillImage" />
        <dc:title>Gnuplot</dc:title>
      </cc:Work>
    </rdf:RDF>
  </metadata>
  <defs
     id="defs207" />
  <sodipodi:namedview
     pagecolor="#ffffff"
     bordercolor="#666666"
     borderopacity="1"
     objecttolerance="10"
     gridtolerance="10"
     guidetolerance="10"
     inkscape:pageopacity="0"
     inkscape:pageshadow="2"
     inkscape:window-width="1920"
     inkscape:window-height="1018"
     id="namedview205"
     showgrid="true"
     inkscape:zoom="1.0717752"
     inkscape:cx="418.93917"
     inkscape:cy="320.70378"
     inkscape:window-x="-8"
     inkscape:window-y="-8"
     inkscape:window-maximized="1"
     inkscape:current-layer="svg2">
    <inkscape:grid
       type="xygrid"
       id="grid3186" />
  </sodipodi:namedview>
  <title
     id="title4">Gnuplot</title>
  <desc
     id="desc6">Produced by GNUPLOT 4.6 patchlevel 4 </desc>
  <g
     id="gnuplot_canvas">
    <rect
       x="0"
       y="0"
       width="1300"
       height="600"
       id="rect9"
       fill="none" />
    <defs
       id="defs11">
      <circle
         id="gpDot"
         r="0.5"
         stroke-width="0.5" />
      <path
         id="gpPt0"
         d="M-1,0 h2 M0,-1 v2"
         stroke-width="0.222"
         stroke="currentColor" />
      <path
         id="gpPt1"
         d="M-1,-1 L1,1 M1,-1 L-1,1"
         stroke-width="0.222"
         stroke="currentColor" />
      <path
         id="gpPt2"
         d="M-1,0 L1,0 M0,-1 L0,1 M-1,-1 L1,1 M-1,1 L1,-1"
         stroke-width="0.222"
         stroke="currentColor" />
      <rect
         id="gpPt3"
         x="-1"
         y="-1"
         width="2"
         height="2"
         stroke-width="0.222"
         stroke="currentColor" />
      <rect
         id="gpPt4"
         x="-1"
         y="-1"
         width="2"
         height="2"
         stroke-width="0.222"
         stroke="currentColor"
         fill="currentColor" />
      <circle
         id="gpPt5"
         cx="0"
         cy="0"
         r="1"
         stroke-width="0.222"
         stroke="currentColor" />
      <use
         xlink:href="#gpPt5"
         id="gpPt6"
         stroke="none"
         fill="currentColor" />
      <path
         id="gpPt7"
         d="M0,-1.33 L-1.33,0.67 L1.33,0.67 z"
         stroke-width="0.222"
         stroke="currentColor" />
      <use
         xlink:href="#gpPt7"
         id="gpPt8"
         stroke="none"
         fill="currentColor" />
      <use
         xlink:href="#gpPt7"
         id="gpPt9"
         transform="rotate(180)"
         stroke="currentColor" />
      <use
         xlink:href="#gpPt9"
         id="gpPt10"
         stroke="none"
         fill="currentColor" />
      <use
         xlink:href="#gpPt3"
         id="gpPt11"
         transform="rotate(45)"
         stroke="currentColor" />
      <use
         xlink:href="#gpPt11"
         id="gpPt12"
         stroke="none"
         fill="currentColor" />
    </defs>
    <g
       style="fill:none; color:white; stroke:rgb(128, 128, 128); stroke-width:1.00; stroke-linecap:butt; stroke-linejoin:miter"
       id="g27" />
    <g
       style="fill:none; color:red; stroke:currentColor; stroke-width:1.00; stroke-linecap:butt; stroke-linejoin:miter"
       id="g29" />
    <g
       style="fill:none; color:gray; stroke:currentColor; stroke-width:1.00; stroke-linecap:butt; stroke-linejoin:miter"
       id="g31">
      <path
         class="gridline"
         d="M94.3,472.8 L1234.6,472.8  h0.01"
         id="path33"
         stroke-dasharray=" 2,4"
         stroke="rgb(128, 128, 128)" />
    </g>
    <g
       style="fill:none; color:red; stroke:currentColor; stroke-width:1.00; stroke-linecap:butt; stroke-linejoin:miter"
       id="g35">
      <path
         d="M94.3,472.8 L103.3,472.8 M1234.6,472.8 L1225.6,472.8  h0.01"
         id="path37"
         stroke="rgb(128, 128, 128)" />
      <g
         transform="translate(86.0,477.3)"
         style="stroke:none; fill:rgb(128,128,128); font-family:Arial; font-size:12.00pt; text-anchor:end"
         id="g39">
        <text
           id="text41">
          <tspan
             id="tspan43">-1</tspan>
        </text>
      </g>
    </g>
    <g
       style="fill:none; color:gray; stroke:currentColor; stroke-width:1.00; stroke-linecap:butt; stroke-linejoin:miter"
       id="g45">
      <path
         class="gridline"
         d="M94.3,358.8 L1234.6,358.8  h0.01"
         id="path47"
         stroke-dasharray=" 2,4"
         stroke="rgb(128, 128, 128)" />
    </g>
    <g
       style="fill:none; color:red; stroke:currentColor; stroke-width:1.00; stroke-linecap:butt; stroke-linejoin:miter"
       id="g49">
      <path
         d="M94.3,358.8 L103.3,358.8 M1234.6,358.8 L1225.6,358.8  h0.01"
         id="path51"
         stroke="rgb(128, 128, 128)" />
      <g
         transform="translate(86.0,363.3)"
         style="stroke:none; fill:rgb(128,128,128); font-family:Arial; font-size:12.00pt; text-anchor:end"
         id="g53">
        <text
           id="text55">
          <tspan
             id="tspan57">-0.5</tspan>
        </text>
      </g>
    </g>
    <g
       style="fill:none; color:gray; stroke:currentColor; stroke-width:1.00; stroke-linecap:butt; stroke-linejoin:miter"
       id="g59">
      <path
         class="gridline"
         d="M94.3,244.7 L1234.6,244.7  h0.01"
         id="path61"
         stroke-dasharray=" 2,4"
         stroke="rgb(128, 128, 128)" />
    </g>
    <g
       style="fill:none; color:red; stroke:currentColor; stroke-width:1.00; stroke-linecap:butt; stroke-linejoin:miter"
       id="g63">
      <path
         d="M94.3,244.7 L103.3,244.7 M1234.6,244.7 L1225.6,244.7  h0.01"
         id="path65"
         stroke="rgb(128, 128, 128)" />
      <g
         transform="translate(86.0,249.2)"
         style="stroke:none; fill:rgb(128,128,128); font-family:Arial; font-size:12.00pt; text-anchor:end"
         id="g67">
        <text
           id="text69">
          <tspan
             id="tspan71"> 0</tspan>
        </text>
      </g>
    </g>
    <g
       style="fill:none; color:gray; stroke:currentColor; stroke-width:1.00; stroke-linecap:butt; stroke-linejoin:miter"
       id="g73">
      <path
         class="gridline"
         d="M94.3,130.7 L1234.6,130.7  h0.01"
         id="path75"
         stroke-dasharray=" 2,4"
         stroke="rgb(128, 128, 128)" />
    </g>
    <g
       style="fill:none; color:red; stroke:currentColor; stroke-width:1.00; stroke-linecap:butt; stroke-linejoin:miter"
       id="g77">
      <path
         d="M94.3,130.7 L103.3,130.7 M1234.6,130.7 L1225.6,130.7  h0.01"
         id="path79"
         stroke="rgb(128, 128, 128)" />
      <g
         transform="translate(86.0,135.2)"
         style="stroke:none; fill:rgb(128,128,128); font-family:Arial; font-size:12.00pt; text-anchor:end"
         id="g81">
        <text
           id="text83">
          <tspan
             id="tspan85"> 0.5</tspan>
        </text>
      </g>
    </g>
    <g
       style="fill:none; color:gray; stroke:currentColor; stroke-width:1.00; stroke-linecap:butt; stroke-linejoin:miter"
       id="g87">
      <path
         class="gridline"
         d="M94.3,16.7 L1234.6,16.7  h0.01"
         id="path89"
         stroke-dasharray=" 2,4"
         stroke="rgb(128, 128, 128)" />
    </g>
    <g
       style="fill:none; color:red; stroke:currentColor; stroke-width:1.00; stroke-linecap:butt; stroke-linejoin:miter"
       id="g91">
      <path
         d="M94.3,16.7 L103.3,16.7 M1234.6,16.7 L1225.6,16.7  h0.01"
         id="path93"
         stroke="rgb(128, 128, 128)" />
      <g
         transform="translate(86.0,21.2)"
         style="stroke:none; fill:rgb(128,128,128); font-family:Arial; font-size:12.00pt; text-anchor:end"
         id="g95">
        <text
           id="text97">
          <tspan
             id="tspan99"> 1</tspan>
        </text>
      </g>
    </g>
    <g
       style="fill:none; color:gray; stroke:currentColor; stroke-width:1.00; stroke-linecap:butt; stroke-linejoin:miter"
       id="g101">
      <path
         class="gridline"
         d="M208.3,564.0 L208.3,16.7  h0.01"
         id="path103"
         stroke-dasharray=" 2,4"
         stroke="rgb(128, 128, 128)" />
    </g>
    <g
       style="fill:none; color:red; stroke:currentColor; stroke-width:1.00; stroke-linecap:butt; stroke-linejoin:miter"
       id="g105">
      <path
         d="M208.3,564.0 L208.3,555.0 M208.3,16.7 L208.3,25.7  h0.01"
         id="path107"
         stroke="rgb(128, 128, 128)" />
      <g
         transform="translate(208.3,586.5)"
         style="stroke:none; fill:rgb(128,128,128); font-family:Arial; font-size:12.00pt; text-anchor:middle"
         id="g109">
        <text
           id="text111">
          <tspan
             id="tspan113">-2</tspan>
        </text>
      </g>
    </g>
    <g
       style="fill:none; color:gray; stroke:currentColor; stroke-width:1.00; stroke-linecap:butt; stroke-linejoin:miter"
       id="g115">
      <path
         class="gridline"
         d="M436.4,564.0 L436.4,16.7  h0.01"
         id="path117"
         stroke-dasharray=" 2,4"
         stroke="rgb(128, 128, 128)" />
    </g>
    <g
       style="fill:none; color:red; stroke:currentColor; stroke-width:1.00; stroke-linecap:butt; stroke-linejoin:miter"
       id="g119">
      <path
         d="M436.4,564.0 L436.4,555.0 M436.4,16.7 L436.4,25.7  h0.01"
         id="path121"
         stroke="rgb(128, 128, 128)" />
      <g
         transform="translate(436.4,586.5)"
         style="stroke:none; fill:rgb(128,128,128); font-family:Arial; font-size:12.00pt; text-anchor:middle"
         id="g123">
        <text
           id="text125">
          <tspan
             id="tspan127">-1</tspan>
        </text>
      </g>
    </g>
    <g
       style="fill:none; color:gray; stroke:currentColor; stroke-width:1.00; stroke-linecap:butt; stroke-linejoin:miter"
       id="g129">
      <path
         class="gridline"
         d="M664.5,564.0 L664.5,16.7  h0.01"
         id="path131"
         stroke-dasharray=" 2,4"
         stroke="rgb(128, 128, 128)" />
    </g>
    <g
       style="fill:none; color:red; stroke:currentColor; stroke-width:1.00; stroke-linecap:butt; stroke-linejoin:miter"
       id="g133">
      <path
         d="M664.5,564.0 L664.5,555.0 M664.5,16.7 L664.5,25.7  h0.01"
         id="path135"
         stroke="rgb(128, 128, 128)" />
      <g
         transform="translate(664.5,586.5)"
         style="stroke:none; fill:rgb(128,128,128); font-family:Arial; font-size:12.00pt; text-anchor:middle"
         id="g137">
        <text
           id="text139">
          <tspan
             id="tspan141"> 0</tspan>
        </text>
      </g>
    </g>
    <g
       style="fill:none; color:gray; stroke:currentColor; stroke-width:1.00; stroke-linecap:butt; stroke-linejoin:miter"
       id="g143">
      <path
         class="gridline"
         d="M892.5,564.0 L892.5,16.7  h0.01"
         id="path145"
         stroke-dasharray=" 2,4"
         stroke="rgb(128, 128, 128)" />
    </g>
    <g
       style="fill:none; color:red; stroke:currentColor; stroke-width:1.00; stroke-linecap:butt; stroke-linejoin:miter"
       id="g147">
      <path
         d="M892.5,564.0 L892.5,555.0 M892.5,16.7 L892.5,25.7  h0.01"
         id="path149"
         stroke="rgb(128, 128, 128)" />
      <g
         transform="translate(892.5,586.5)"
         style="stroke:none; fill:rgb(128,128,128); font-family:Arial; font-size:12.00pt; text-anchor:middle"
         id="g151">
        <text
           id="text153">
          <tspan
             id="tspan155"> 1</tspan>
        </text>
      </g>
    </g>
    <g
       style="fill:none; color:gray; stroke:currentColor; stroke-width:1.00; stroke-linecap:butt; stroke-linejoin:miter"
       id="g157">
      <path
         class="gridline"
         d="M1120.6,564.0 L1120.6,61.7 M1120.6,25.7 L1120.6,16.7  h0.01"
         id="path159"
         stroke-dasharray=" 2,4"
         stroke="rgb(128, 128, 128)" />
    </g>
    <g
       style="fill:none; color:red; stroke:currentColor; stroke-width:1.00; stroke-linecap:butt; stroke-linejoin:miter"
       id="g161">
      <path
         d="M1120.6,564.0 L1120.6,555.0 M1120.6,16.7 L1120.6,25.7  h0.01"
         id="path163"
         stroke="rgb(128, 128, 128)" />
      <g
         transform="translate(1120.6,586.5)"
         style="stroke:none; fill:rgb(128,128,128); font-family:Arial; font-size:12.00pt; text-anchor:middle"
         id="g165">
        <text
           id="text167">
          <tspan
             id="tspan169"> 2</tspan>
        </text>
      </g>
      <path
         d="M94.3,16.7 L94.3,564.0 L1234.6,564.0 M1234.6,16.7 M94.3,16.7  h0.01"
         id="path171"
         stroke="rgb(128, 128, 128)" />
    </g>
    <g
       id="gnuplot_plot_1">
      <title
         id="title174">gnuplot_plot_1</title>
      <g
         style="fill:none; color:white; stroke:rgb(128, 128, 128); stroke-width:5.00; stroke-linecap:butt; stroke-linejoin:miter"
         id="g176" />
      <g
         style="fill:none; color:green; stroke:currentColor; stroke-width:5.00; stroke-linecap:butt; stroke-linejoin:miter"
         id="g178">
        <path
           d="m 105.7,244.7 0.3,0 0.8,0 1.7,0 2.8,0 5.6,0.4 5.6,0.2 11.1,0.4 14,0.7 14,0.9 27.9,3.5 28,6.6 27.9,9.7 27.9,12.8 28,15.8 27.9,17.8 27.9,17.3 28,14.1 27.9,12.8 28,11.8 27.9,10.5 27.9,8.8 28,7 27.9,4.9 27.9,3.1 28,1.6 27.9,0.4 28,0 27.9,0 27.9,-0.4 28,-1.6 27.9,-3.1 27.9,-4.9 28,-7 27.9,-8.8 27.9,-10.5 28,-11.8 27.9,-12.8 28,-14.1 27.9,-17.3 27.9,-17.8 28,-15.8 27.9,-12.8 27.9,-9.7 28,-6.6 27.9,-3.5 14,-0.9 14,-0.7 11.1,-0.4 5.6,-0.2 5.6,-0.4 2.8,0 1.7,0 0.8,0 0.3,0 0.01,0"
           id="path186"
           inkscape:connector-curvature="0"
           style="stroke:#5e9c36"
           sodipodi:nodetypes="cccccccccccccccccccccccccccccccccccccccccccccccccccccccc" />
        <path
           id="path3106"
           d="m 665,245 c 105,0 222.21273,-45.80291 335,-55 73.0907,-5.96009 146.3843,-2.25927 220,0 l 3.21,54.7 -0.01,0 -0.3,0 -0.8,0 -1.7,0 -2.8,0 -5.6,0.4 -5.6,0.2 -11.1,0.4 -14,0.7 -14,0.9 -27.9,3.5 -28,6.6 -27.9,9.7 -27.9,12.8 -28,15.8 -27.9,17.8 -27.9,17.3 -28,14.1 -27.9,12.8 -28,11.8 -27.9,10.5 -27.9,8.8 -28,7 -27.9,4.9 -27.9,3.1 -28,1.6 -27.9,0.4 -27.9,0 -28,0 -27.9,-0.4 -28,-1.6 -27.9,-3.1 -27.9,-4.9 -28,-7 -27.9,-8.8 -27.9,-10.5 -28,-11.8 -27.9,-12.8 -28,-14.1 -27.9,-17.3 -27.9,-17.8 -28,-15.8 -27.9,-12.8 -27.9,-9.7 -28,-6.6 -27.9,-3.5 -14,-0.9 -14,-0.7 -11.1,-0.4 -5.6,-0.2 -5.6,-0.4 -2.8,0 -1.7,0 -0.8,0 -0.3,0 0.51338,-55.02988 c 74.02354,-2.25927 147.72319,-5.96009 221.21882,0 113.41212,9.19709 231.27422,55 336.85593,55"
           inkscape:connector-curvature="0"
           style="stroke:#5e9cff;stroke-opacity:1"
           sodipodi:nodetypes="caccccccccccccccccccccccccccccccccccccccccccccccccccccccccccac" />
      </g>
    </g>
    <g
       id="gnuplot_plot_2">
      <title
         id="title189">gnuplot_plot_2</title>
      <g
         style="fill:none; color:green; stroke:currentColor; stroke-width:5.00; stroke-linecap:butt; stroke-linejoin:miter"
         id="g191">
        <path
           d="m 105.7,188 0.3,0 0.8,0 1.7,-0.1 2.8,-0.2 5.6,-0.4 5.6,-0.5 11.1,-1.2 14,-2.2 14,-3 27.9,-9.1 28,-13 27.9,-14.1 27.9,-12.5 28,-10 27.9,-8 27.9,-6.2 28,-4.5 27.9,-3.3 28,-1.9 27.9,0.1 27.9,5.3 28,14.3 27.9,25.5 27.9,42.6 28,38.8 27.9,16.4 28,2.6 27.9,-2.6 27.9,-16.4 28,-38.8 27.9,-42.6 27.9,-25.5 28,-14.3 27.9,-5.3 27.9,-0.1 28,1.9 27.9,3.3 28,4.5 27.9,6.2 27.9,8 28,10 27.9,12.5 27.9,14.1 28,13 27.9,9.1 14,3 14,2.2 11.1,1.2 5.6,0.5 5.6,0.4 2.8,0.2 1.7,0.1 0.8,0 0.3,0 0.01,0"
           id="path199"
           inkscape:connector-curvature="0"
           style="stroke:#5e9c36"
           sodipodi:nodetypes="cccccccccccccccccccccccccccccccccccccccccccccccccccccccc" />
        <path
           id="path4111"
           d="m 468.24025,97.9 27.9,5.3 28,14.3 27.9,25.5 27.9,42.6 28,38.8 27.9,16.4 28,2.6 27.9,-2.6 27.9,-16.4 28,-38.8 27.9,-42.6 27.9,-25.5 28,-14.3 27.9,-5.3"
           style="stroke:#ff9c36;stroke-opacity:1"
           inkscape:connector-curvature="0"
           sodipodi:nodetypes="ccccccccccccccc" />
      </g>
    </g>
    <g
       style="fill:none; color:white; stroke:rgb( 94, 156,  54); stroke-width:1.00; stroke-linecap:butt; stroke-linejoin:miter"
       id="g201" />
    <g
       style="fill:none; color:red; stroke:currentColor; stroke-width:1.00; stroke-linecap:butt; stroke-linejoin:miter"
       id="g203" />
  </g>
  <flowRoot
     xml:space="preserve"
     id="flowRoot3958"
     style="fill:black;stroke:none;stroke-opacity:1;stroke-width:1px;stroke-linejoin:miter;stroke-linecap:butt;fill-opacity:1;font-family:Sans;font-style:normal;font-weight:normal;font-size:40px;line-height:125%;letter-spacing:0px;word-spacing:0px"><flowRegion
       id="flowRegion3960"><rect
         id="rect3962"
         width="382.8479"
         height="86.245956"
         x="498.5437"
         y="-79.449837" /></flowRegion><flowPara
       id="flowPara3964" /></flowRoot>  <flowRoot
     xml:space="preserve"
     id="flowRoot3966"
     style="font-size:28px;font-style:normal;font-weight:normal;line-height:125%;letter-spacing:0px;word-spacing:0px;fill:#000000;fill-opacity:1;stroke:none;font-family:Sans"
     transform="translate(187.65625,209.69769)"><flowRegion
       id="flowRegion3968"><rect
         id="rect3970"
         width="200.01364"
         height="83.409103"
         x="372.33011"
         y="-113.1068"
         style="font-size:28px" /></flowRegion><flowPara
       id="flowPara3972"
       style="text-align:center;text-anchor:middle">Зона силовой установки</flowPara></flowRoot>  <flowRoot
     xml:space="preserve"
     id="flowRoot3878"
     style="font-size:28px;font-style:normal;font-weight:normal;line-height:125%;letter-spacing:0px;word-spacing:0px;fill:#000000;fill-opacity:1;stroke:none;font-family:Sans"
     transform="matrix(1.5008562,0,0,1.5008562,-282.17337,-110.46815)"><flowRegion
       id="flowRegion3880"><rect
         id="rect3882"
         width="405.49332"
         height="97.494049"
         x="494.50668"
         y="272.50595"
         style="font-size:28px" /></flowRegion><flowPara
       id="flowPara3884">Силовая конструкция</flowPara></flowRoot>  <path
     style="fill:none;stroke:#ff9c36;stroke-width:5;stroke-linecap:round;stroke-linejoin:miter;stroke-miterlimit:4;stroke-opacity:1;stroke-dasharray:none"
     d="M 870,98 C 835,97 803.92782,101.59508 780,90 733.90307,67.662089 705,55 665,55"
     id="path3886"
     inkscape:connector-curvature="0"
     sodipodi:nodetypes="csc" />
  <use
     x="0"
     y="0"
     xlink:href="#path3886"
     id="use3888"
     transform="matrix(-1,0,0,1,1330.1121,0)"
     width="1300"
     height="600" />
  <flowRoot
     xml:space="preserve"
     id="flowRoot4113"
     style="font-size:20px;font-style:normal;font-weight:normal;text-align:center;line-height:125%;letter-spacing:0px;word-spacing:0px;text-anchor:middle;fill:#000000;fill-opacity:1;stroke:none;font-family:Sans"
     transform="translate(-25.0625,-0.86771953)"><flowRegion
       id="flowRegion4115"><rect
         id="rect4117"
         width="182.87416"
         height="67.178268"
         x="353.61893"
         y="124.15396"
         style="font-size:20px;text-align:center;text-anchor:middle" /></flowRegion><flowPara
       id="flowPara4119">отсеки оборудования</flowPara></flowRoot>  <flowRoot
     transform="translate(494.9375,-0.86771953)"
     style="font-size:20px;font-style:normal;font-weight:normal;text-align:center;line-height:125%;letter-spacing:0px;word-spacing:0px;text-anchor:middle;fill:#000000;fill-opacity:1;stroke:none;font-family:Sans"
     id="flowRoot4121"
     xml:space="preserve"><flowRegion
       id="flowRegion4123"><rect
         style="font-size:20px;text-align:center;text-anchor:middle"
         y="124.15396"
         x="353.61893"
         height="67.178268"
         width="182.87416"
         id="rect4125" /></flowRegion><flowPara
       id="flowPara4127">отсеки оборудования</flowPara></flowRoot></svg>
