<?xml version="1.0" encoding="UTF-8" standalone="no"?>
<svg
   xmlns:dc="http://purl.org/dc/elements/1.1/"
   xmlns:cc="http://creativecommons.org/ns#"
   xmlns:rdf="http://www.w3.org/1999/02/22-rdf-syntax-ns#"
   xmlns:svg="http://www.w3.org/2000/svg"
   xmlns="http://www.w3.org/2000/svg"
   xmlns:xlink="http://www.w3.org/1999/xlink"
   xmlns:sodipodi="http://sodipodi.sourceforge.net/DTD/sodipodi-0.dtd"
   xmlns:inkscape="http://www.inkscape.org/namespaces/inkscape"
   width="1300"
   height="600"
   viewBox="0 0 1300 600"
   id="svg2"
   version="1.1"
   inkscape:version="0.48.4 r9939"
   sodipodi:docname="original_section.svg">
  <metadata
     id="metadata209">
    <rdf:RDF>
      <cc:Work
         rdf:about="">
        <dc:format>image/svg+xml</dc:format>
        <dc:type
           rdf:resource="http://purl.org/dc/dcmitype/StillImage" />
      </cc:Work>
    </rdf:RDF>
  </metadata>
  <defs
     id="defs207" />
  <sodipodi:namedview
     pagecolor="#ffffff"
     bordercolor="#666666"
     borderopacity="1"
     objecttolerance="10"
     gridtolerance="10"
     guidetolerance="10"
     inkscape:pageopacity="0"
     inkscape:pageshadow="2"
     inkscape:window-width="1366"
     inkscape:window-height="744"
     id="namedview205"
     showgrid="true"
     inkscape:zoom="0.67229537"
     inkscape:cx="480.29072"
     inkscape:cy="496.97426"
     inkscape:window-x="0"
     inkscape:window-y="24"
     inkscape:window-maximized="1"
     inkscape:current-layer="svg2">
    <inkscape:grid
       type="xygrid"
       id="grid3186" />
  </sodipodi:namedview>
  <title
     id="title4">Gnuplot</title>
  <desc
     id="desc6">Produced by GNUPLOT 4.6 patchlevel 4 </desc>
  <g
     id="gnuplot_canvas">
    <rect
       x="0"
       y="0"
       width="1300"
       height="600"
       id="rect9"
       fill="none" />
    <defs
       id="defs11">
      <circle
         id="gpDot"
         r="0.5"
         stroke-width="0.5" />
      <path
         id="gpPt0"
         d="M-1,0 h2 M0,-1 v2"
         stroke-width="0.222"
         stroke="currentColor" />
      <path
         id="gpPt1"
         d="M-1,-1 L1,1 M1,-1 L-1,1"
         stroke-width="0.222"
         stroke="currentColor" />
      <path
         id="gpPt2"
         d="M-1,0 L1,0 M0,-1 L0,1 M-1,-1 L1,1 M-1,1 L1,-1"
         stroke-width="0.222"
         stroke="currentColor" />
      <rect
         id="gpPt3"
         x="-1"
         y="-1"
         width="2"
         height="2"
         stroke-width="0.222"
         stroke="currentColor" />
      <rect
         id="gpPt4"
         x="-1"
         y="-1"
         width="2"
         height="2"
         stroke-width="0.222"
         stroke="currentColor"
         fill="currentColor" />
      <circle
         id="gpPt5"
         cx="0"
         cy="0"
         r="1"
         stroke-width="0.222"
         stroke="currentColor" />
      <use
         xlink:href="#gpPt5"
         id="gpPt6"
         stroke="none"
         fill="currentColor" />
      <path
         id="gpPt7"
         d="M0,-1.33 L-1.33,0.67 L1.33,0.67 z"
         stroke-width="0.222"
         stroke="currentColor" />
      <use
         xlink:href="#gpPt7"
         id="gpPt8"
         stroke="none"
         fill="currentColor" />
      <use
         xlink:href="#gpPt7"
         id="gpPt9"
         transform="rotate(180)"
         stroke="currentColor" />
      <use
         xlink:href="#gpPt9"
         id="gpPt10"
         stroke="none"
         fill="currentColor" />
      <use
         xlink:href="#gpPt3"
         id="gpPt11"
         transform="rotate(45)"
         stroke="currentColor" />
      <use
         xlink:href="#gpPt11"
         id="gpPt12"
         stroke="none"
         fill="currentColor" />
    </defs>
    <g
       style="fill:none; color:white; stroke:rgb(128, 128, 128); stroke-width:1.00; stroke-linecap:butt; stroke-linejoin:miter"
       id="g27" />
    <g
       style="fill:none; color:red; stroke:currentColor; stroke-width:1.00; stroke-linecap:butt; stroke-linejoin:miter"
       id="g29" />
    <g
       style="fill:none; color:gray; stroke:currentColor; stroke-width:1.00; stroke-linecap:butt; stroke-linejoin:miter"
       id="g31">
      <path
         class="gridline"
         d="M94.3,472.8 L1234.6,472.8  h0.01"
         id="path33"
         stroke-dasharray=" 2,4"
         stroke="rgb(128, 128, 128)" />
    </g>
    <g
       style="fill:none; color:red; stroke:currentColor; stroke-width:1.00; stroke-linecap:butt; stroke-linejoin:miter"
       id="g35">
      <path
         d="M94.3,472.8 L103.3,472.8 M1234.6,472.8 L1225.6,472.8  h0.01"
         id="path37"
         stroke="rgb(128, 128, 128)" />
      <g
         transform="translate(86.0,477.3)"
         style="stroke:none; fill:rgb(128,128,128); font-family:Arial; font-size:12.00pt; text-anchor:end"
         id="g39">
        <text
           id="text41">
          <tspan
             id="tspan43">-1</tspan>
        </text>
      </g>
    </g>
    <g
       style="fill:none; color:gray; stroke:currentColor; stroke-width:1.00; stroke-linecap:butt; stroke-linejoin:miter"
       id="g45">
      <path
         class="gridline"
         d="M94.3,358.8 L1234.6,358.8  h0.01"
         id="path47"
         stroke-dasharray=" 2,4"
         stroke="rgb(128, 128, 128)" />
    </g>
    <g
       style="fill:none; color:red; stroke:currentColor; stroke-width:1.00; stroke-linecap:butt; stroke-linejoin:miter"
       id="g49">
      <path
         d="M94.3,358.8 L103.3,358.8 M1234.6,358.8 L1225.6,358.8  h0.01"
         id="path51"
         stroke="rgb(128, 128, 128)" />
      <g
         transform="translate(86.0,363.3)"
         style="stroke:none; fill:rgb(128,128,128); font-family:Arial; font-size:12.00pt; text-anchor:end"
         id="g53">
        <text
           id="text55">
          <tspan
             id="tspan57">-0.5</tspan>
        </text>
      </g>
    </g>
    <g
       style="fill:none; color:gray; stroke:currentColor; stroke-width:1.00; stroke-linecap:butt; stroke-linejoin:miter"
       id="g59">
      <path
         class="gridline"
         d="M94.3,244.7 L1234.6,244.7  h0.01"
         id="path61"
         stroke-dasharray=" 2,4"
         stroke="rgb(128, 128, 128)" />
    </g>
    <g
       style="fill:none; color:red; stroke:currentColor; stroke-width:1.00; stroke-linecap:butt; stroke-linejoin:miter"
       id="g63">
      <path
         d="M94.3,244.7 L103.3,244.7 M1234.6,244.7 L1225.6,244.7  h0.01"
         id="path65"
         stroke="rgb(128, 128, 128)" />
      <g
         transform="translate(86.0,249.2)"
         style="stroke:none; fill:rgb(128,128,128); font-family:Arial; font-size:12.00pt; text-anchor:end"
         id="g67">
        <text
           id="text69">
          <tspan
             id="tspan71"> 0</tspan>
        </text>
      </g>
    </g>
    <g
       style="fill:none; color:gray; stroke:currentColor; stroke-width:1.00; stroke-linecap:butt; stroke-linejoin:miter"
       id="g73">
      <path
         class="gridline"
         d="M94.3,130.7 L1234.6,130.7  h0.01"
         id="path75"
         stroke-dasharray=" 2,4"
         stroke="rgb(128, 128, 128)" />
    </g>
    <g
       style="fill:none; color:red; stroke:currentColor; stroke-width:1.00; stroke-linecap:butt; stroke-linejoin:miter"
       id="g77">
      <path
         d="M94.3,130.7 L103.3,130.7 M1234.6,130.7 L1225.6,130.7  h0.01"
         id="path79"
         stroke="rgb(128, 128, 128)" />
      <g
         transform="translate(86.0,135.2)"
         style="stroke:none; fill:rgb(128,128,128); font-family:Arial; font-size:12.00pt; text-anchor:end"
         id="g81">
        <text
           id="text83">
          <tspan
             id="tspan85"> 0.5</tspan>
        </text>
      </g>
    </g>
    <g
       style="fill:none; color:gray; stroke:currentColor; stroke-width:1.00; stroke-linecap:butt; stroke-linejoin:miter"
       id="g87">
      <path
         class="gridline"
         d="M94.3,16.7 L1234.6,16.7  h0.01"
         id="path89"
         stroke-dasharray=" 2,4"
         stroke="rgb(128, 128, 128)" />
    </g>
    <g
       style="fill:none; color:red; stroke:currentColor; stroke-width:1.00; stroke-linecap:butt; stroke-linejoin:miter"
       id="g91">
      <path
         d="M94.3,16.7 L103.3,16.7 M1234.6,16.7 L1225.6,16.7  h0.01"
         id="path93"
         stroke="rgb(128, 128, 128)" />
      <g
         transform="translate(86.0,21.2)"
         style="stroke:none; fill:rgb(128,128,128); font-family:Arial; font-size:12.00pt; text-anchor:end"
         id="g95">
        <text
           id="text97">
          <tspan
             id="tspan99"> 1</tspan>
        </text>
      </g>
    </g>
    <g
       style="fill:none; color:gray; stroke:currentColor; stroke-width:1.00; stroke-linecap:butt; stroke-linejoin:miter"
       id="g101">
      <path
         class="gridline"
         d="M208.3,564.0 L208.3,16.7  h0.01"
         id="path103"
         stroke-dasharray=" 2,4"
         stroke="rgb(128, 128, 128)" />
    </g>
    <g
       style="fill:none; color:red; stroke:currentColor; stroke-width:1.00; stroke-linecap:butt; stroke-linejoin:miter"
       id="g105">
      <path
         d="M208.3,564.0 L208.3,555.0 M208.3,16.7 L208.3,25.7  h0.01"
         id="path107"
         stroke="rgb(128, 128, 128)" />
      <g
         transform="translate(208.3,586.5)"
         style="stroke:none; fill:rgb(128,128,128); font-family:Arial; font-size:12.00pt; text-anchor:middle"
         id="g109">
        <text
           id="text111">
          <tspan
             id="tspan113">-2</tspan>
        </text>
      </g>
    </g>
    <g
       style="fill:none; color:gray; stroke:currentColor; stroke-width:1.00; stroke-linecap:butt; stroke-linejoin:miter"
       id="g115">
      <path
         class="gridline"
         d="M436.4,564.0 L436.4,16.7  h0.01"
         id="path117"
         stroke-dasharray=" 2,4"
         stroke="rgb(128, 128, 128)" />
    </g>
    <g
       style="fill:none; color:red; stroke:currentColor; stroke-width:1.00; stroke-linecap:butt; stroke-linejoin:miter"
       id="g119">
      <path
         d="M436.4,564.0 L436.4,555.0 M436.4,16.7 L436.4,25.7  h0.01"
         id="path121"
         stroke="rgb(128, 128, 128)" />
      <g
         transform="translate(436.4,586.5)"
         style="stroke:none; fill:rgb(128,128,128); font-family:Arial; font-size:12.00pt; text-anchor:middle"
         id="g123">
        <text
           id="text125">
          <tspan
             id="tspan127">-1</tspan>
        </text>
      </g>
    </g>
    <g
       style="fill:none; color:gray; stroke:currentColor; stroke-width:1.00; stroke-linecap:butt; stroke-linejoin:miter"
       id="g129">
      <path
         class="gridline"
         d="M664.5,564.0 L664.5,16.7  h0.01"
         id="path131"
         stroke-dasharray=" 2,4"
         stroke="rgb(128, 128, 128)" />
    </g>
    <g
       style="fill:none; color:red; stroke:currentColor; stroke-width:1.00; stroke-linecap:butt; stroke-linejoin:miter"
       id="g133">
      <path
         d="M664.5,564.0 L664.5,555.0 M664.5,16.7 L664.5,25.7  h0.01"
         id="path135"
         stroke="rgb(128, 128, 128)" />
      <g
         transform="translate(664.5,586.5)"
         style="stroke:none; fill:rgb(128,128,128); font-family:Arial; font-size:12.00pt; text-anchor:middle"
         id="g137">
        <text
           id="text139">
          <tspan
             id="tspan141"> 0</tspan>
        </text>
      </g>
    </g>
    <g
       style="fill:none; color:gray; stroke:currentColor; stroke-width:1.00; stroke-linecap:butt; stroke-linejoin:miter"
       id="g143">
      <path
         class="gridline"
         d="M892.5,564.0 L892.5,16.7  h0.01"
         id="path145"
         stroke-dasharray=" 2,4"
         stroke="rgb(128, 128, 128)" />
    </g>
    <g
       style="fill:none; color:red; stroke:currentColor; stroke-width:1.00; stroke-linecap:butt; stroke-linejoin:miter"
       id="g147">
      <path
         d="M892.5,564.0 L892.5,555.0 M892.5,16.7 L892.5,25.7  h0.01"
         id="path149"
         stroke="rgb(128, 128, 128)" />
      <g
         transform="translate(892.5,586.5)"
         style="stroke:none; fill:rgb(128,128,128); font-family:Arial; font-size:12.00pt; text-anchor:middle"
         id="g151">
        <text
           id="text153">
          <tspan
             id="tspan155"> 1</tspan>
        </text>
      </g>
    </g>
    <g
       style="fill:none; color:gray; stroke:currentColor; stroke-width:1.00; stroke-linecap:butt; stroke-linejoin:miter"
       id="g157">
      <path
         class="gridline"
         d="M1120.6,564.0 L1120.6,61.7 M1120.6,25.7 L1120.6,16.7  h0.01"
         id="path159"
         stroke-dasharray=" 2,4"
         stroke="rgb(128, 128, 128)" />
    </g>
    <g
       style="fill:none; color:red; stroke:currentColor; stroke-width:1.00; stroke-linecap:butt; stroke-linejoin:miter"
       id="g161">
      <path
         d="M1120.6,564.0 L1120.6,555.0 M1120.6,16.7 L1120.6,25.7  h0.01"
         id="path163"
         stroke="rgb(128, 128, 128)" />
      <g
         transform="translate(1120.6,586.5)"
         style="stroke:none; fill:rgb(128,128,128); font-family:Arial; font-size:12.00pt; text-anchor:middle"
         id="g165">
        <text
           id="text167">
          <tspan
             id="tspan169"> 2</tspan>
        </text>
      </g>
      <path
         d="M94.3,16.7 L94.3,564.0 L1234.6,564.0 M1234.6,16.7 M94.3,16.7  h0.01"
         id="path171"
         stroke="rgb(128, 128, 128)" />
    </g>
    <g
       id="gnuplot_plot_1">
      <title
         id="title174">gnuplot_plot_1</title>
      <g
         style="fill:none; color:white; stroke:rgb(128, 128, 128); stroke-width:5.00; stroke-linecap:butt; stroke-linejoin:miter"
         id="g176" />
      <g
         style="fill:none; color:green; stroke:currentColor; stroke-width:5.00; stroke-linecap:butt; stroke-linejoin:miter"
         id="g178">
        <g
           transform="translate(1167.5,39.2)"
           style="stroke:none; fill:black; font-family:Arial; font-size:12.00pt; text-anchor:end"
           id="g180">
          <text
             id="text182">
            <tspan
               id="tspan184">bottom</tspan>
          </text>
        </g>
        <path
           d="M1175.8,34.7 L1218.0,34.7 M105.7,244.7 L106.0,244.7 L106.8,244.7 L108.5,244.7 L111.3,244.7 L116.9,245.1    L122.5,245.3 L133.6,245.7 L147.6,246.4 L161.6,247.3 L189.5,250.8 L217.5,257.4 L245.4,267.1 L273.3,279.9    L301.3,295.7 L329.2,313.5 L357.1,330.8 L385.1,344.9 L413.0,357.7 L441.0,369.5 L468.9,380.0 L496.8,388.8    L524.8,395.8 L552.7,400.7 L580.6,403.8 L608.6,405.4 L636.5,405.8 L664.5,405.8 L692.4,405.8 L720.3,405.4    L748.3,403.8 L776.2,400.7 L804.1,395.8 L832.1,388.8 L860.0,380.0 L887.9,369.5 L915.9,357.7 L943.8,344.9    L971.8,330.8 L999.7,313.5 L1027.6,295.7 L1055.6,279.9 L1083.5,267.1 L1111.4,257.4 L1139.4,250.8 L1167.3,247.3    L1181.3,246.4 L1195.3,245.7 L1206.4,245.3 L1212.0,245.1 L1217.6,244.7 L1220.4,244.7 L1222.1,244.7 L1222.9,244.7    L1223.2,244.7  h0.01"
           id="path186"
           stroke="rgb( 94, 156,  54)" />
      </g>
    </g>
    <g
       id="gnuplot_plot_2">
      <title
         id="title189">gnuplot_plot_2</title>
      <g
         style="fill:none; color:green; stroke:currentColor; stroke-width:5.00; stroke-linecap:butt; stroke-linejoin:miter"
         id="g191">
        <g
           transform="translate(1167.5,57.2)"
           style="stroke:none; fill:black; font-family:Arial; font-size:12.00pt; text-anchor:end"
           id="g193">
          <text
             id="text195">
            <tspan
               id="tspan197">top</tspan>
          </text>
        </g>
        <path
           d="M1175.8,52.7 L1218.0,52.7 M105.7,188.0 L106.0,188.0 L106.8,188.0 L108.5,187.9 L111.3,187.7 L116.9,187.3    L122.5,186.8 L133.6,185.6 L147.6,183.4 L161.6,180.4 L189.5,171.3 L217.5,158.3 L245.4,144.2 L273.3,131.7    L301.3,121.7 L329.2,113.7 L357.1,107.5 L385.1,103.0 L413.0,99.7 L441.0,97.8 L468.9,97.9 L496.8,103.2    L524.8,117.5 L552.7,143.0 L580.6,185.6 L608.6,224.4 L636.5,240.8 L664.5,243.4 L692.4,240.8 L720.3,224.4    L748.3,185.6 L776.2,143.0 L804.1,117.5 L832.1,103.2 L860.0,97.9 L887.9,97.8 L915.9,99.7 L943.8,103.0    L971.8,107.5 L999.7,113.7 L1027.6,121.7 L1055.6,131.7 L1083.5,144.2 L1111.4,158.3 L1139.4,171.3 L1167.3,180.4    L1181.3,183.4 L1195.3,185.6 L1206.4,186.8 L1212.0,187.3 L1217.6,187.7 L1220.4,187.9 L1222.1,188.0 L1222.9,188.0    L1223.2,188.0  h0.01"
           id="path199"
           stroke="rgb( 94, 156,  54)" />
      </g>
    </g>
    <g
       style="fill:none; color:white; stroke:rgb( 94, 156,  54); stroke-width:1.00; stroke-linecap:butt; stroke-linejoin:miter"
       id="g201" />
    <g
       style="fill:none; color:red; stroke:currentColor; stroke-width:1.00; stroke-linecap:butt; stroke-linejoin:miter"
       id="g203" />
  </g>
  <path
     sodipodi:type="arc"
     style="fill:none;stroke:#ff1616;stroke-width:12.60000038;stroke-miterlimit:4;stroke-opacity:1;stroke-dasharray:none"
     id="path3188"
     sodipodi:cx="665"
     sodipodi:cy="165"
     sodipodi:rx="69.98201"
     sodipodi:ry="69.98201"
     d="m 734.98201,165 a 69.98201,69.98201 0 1 1 -139.96402,0 69.98201,69.98201 0 1 1 139.96402,0 z"
     transform="matrix(1.077997,0,0,1.077997,-51.867986,-30.718798)" />
  <flowRoot
     xml:space="preserve"
     id="flowRoot3958"
     style="fill:black;stroke:none;stroke-opacity:1;stroke-width:1px;stroke-linejoin:miter;stroke-linecap:butt;fill-opacity:1;font-family:Sans;font-style:normal;font-weight:normal;font-size:40px;line-height:125%;letter-spacing:0px;word-spacing:0px"><flowRegion
       id="flowRegion3960"><rect
         id="rect3962"
         width="382.8479"
         height="86.245956"
         x="498.5437"
         y="-79.449837" /></flowRegion><flowPara
       id="flowPara3964"></flowPara></flowRoot>  <flowRoot
     xml:space="preserve"
     id="flowRoot3966"
     style="font-size:40px;font-style:normal;font-weight:normal;line-height:125%;letter-spacing:0px;word-spacing:0px;fill:#000000;fill-opacity:1;stroke:none;font-family:Sans"
     transform="translate(-22.34375,43.223784)"><flowRegion
       id="flowRegion3968"><rect
         id="rect3970"
         width="498.5437"
         height="149.35275"
         x="372.33011"
         y="-113.1068" /></flowRegion><flowPara
       id="flowPara3972">Двигатель</flowPara></flowRoot>  <path
     style="fill:#000000;fill-opacity:1;stroke:#000000;stroke-width:1px;stroke-linecap:butt;stroke-linejoin:miter;stroke-opacity:1"
     d="m 604.17972,80.396228 -28.23726,-1.63022 29.86748,-26.607031 z"
     id="path3974"
     inkscape:connector-curvature="0" />
  <path
     style="fill:none;stroke:#000000;stroke-width:1.89999998;stroke-linecap:butt;stroke-linejoin:miter;stroke-miterlimit:4;stroke-opacity:1;stroke-dasharray:none"
     d="M 588.98867,65.768608 510,-20"
     id="path3976"
     inkscape:connector-curvature="0"
     sodipodi:nodetypes="cc" />
</svg>
