<?xml version="1.0" encoding="UTF-8" standalone="no"?>
<svg
   xmlns:dc="http://purl.org/dc/elements/1.1/"
   xmlns:cc="http://creativecommons.org/ns#"
   xmlns:rdf="http://www.w3.org/1999/02/22-rdf-syntax-ns#"
   xmlns:svg="http://www.w3.org/2000/svg"
   xmlns="http://www.w3.org/2000/svg"
   xmlns:xlink="http://www.w3.org/1999/xlink"
   xmlns:sodipodi="http://sodipodi.sourceforge.net/DTD/sodipodi-0.dtd"
   xmlns:inkscape="http://www.inkscape.org/namespaces/inkscape"
   width="700"
   height="375"
   viewBox="0 0 700 375"
   id="svg2"
   version="1.1"
   inkscape:version="0.48.4 r9939"
   sodipodi:docname="WingDeformation.pdf">
  <metadata
     id="metadata264">
    <rdf:RDF>
      <cc:Work
         rdf:about="">
        <dc:format>image/svg+xml</dc:format>
        <dc:type
           rdf:resource="http://purl.org/dc/dcmitype/StillImage" />
        <dc:title>Gnuplot</dc:title>
      </cc:Work>
    </rdf:RDF>
  </metadata>
  <defs
     id="defs262" />
  <sodipodi:namedview
     pagecolor="#ffffff"
     bordercolor="#666666"
     borderopacity="1"
     objecttolerance="10"
     gridtolerance="10"
     guidetolerance="10"
     inkscape:pageopacity="0"
     inkscape:pageshadow="2"
     inkscape:window-width="1920"
     inkscape:window-height="1018"
     id="namedview260"
     showgrid="false"
     inkscape:zoom="1.5152288"
     inkscape:cx="353.37197"
     inkscape:cy="264.44486"
     inkscape:window-x="-8"
     inkscape:window-y="-8"
     inkscape:window-maximized="1"
     inkscape:current-layer="g250" />
  <title
     id="title4">Gnuplot</title>
  <desc
     id="desc6">Produced by GNUPLOT 4.6 patchlevel 5 </desc>
  <g
     id="gnuplot_canvas">
    <rect
       x="0"
       y="0"
       width="700"
       height="375"
       fill="none"
       id="rect9" />
    <defs
       id="defs11">
      <circle
         id="gpDot"
         r="0.5"
         stroke-width="0.5" />
      <path
         id="gpPt0"
         stroke-width="0.222"
         stroke="currentColor"
         d="M-1,0 h2 M0,-1 v2" />
      <path
         id="gpPt1"
         stroke-width="0.222"
         stroke="currentColor"
         d="M-1,-1 L1,1 M1,-1 L-1,1" />
      <path
         id="gpPt2"
         stroke-width="0.222"
         stroke="currentColor"
         d="M-1,0 L1,0 M0,-1 L0,1 M-1,-1 L1,1 M-1,1 L1,-1" />
      <rect
         id="gpPt3"
         stroke-width="0.222"
         stroke="currentColor"
         x="-1"
         y="-1"
         width="2"
         height="2" />
      <rect
         id="gpPt4"
         stroke-width="0.222"
         stroke="currentColor"
         fill="currentColor"
         x="-1"
         y="-1"
         width="2"
         height="2" />
      <circle
         id="gpPt5"
         stroke-width="0.222"
         stroke="currentColor"
         cx="0"
         cy="0"
         r="1" />
      <use
         xlink:href="#gpPt5"
         id="gpPt6"
         fill="currentColor"
         stroke="none" />
      <path
         id="gpPt7"
         stroke-width="0.222"
         stroke="currentColor"
         d="M0,-1.33 L-1.33,0.67 L1.33,0.67 z" />
      <use
         xlink:href="#gpPt7"
         id="gpPt8"
         fill="currentColor"
         stroke="none" />
      <use
         xlink:href="#gpPt7"
         id="gpPt9"
         stroke="currentColor"
         transform="rotate(180)" />
      <use
         xlink:href="#gpPt9"
         id="gpPt10"
         fill="currentColor"
         stroke="none" />
      <use
         xlink:href="#gpPt3"
         id="gpPt11"
         stroke="currentColor"
         transform="rotate(45)" />
      <use
         xlink:href="#gpPt11"
         id="gpPt12"
         fill="currentColor"
         stroke="none" />
    </defs>
    <g
       style="fill:none; color:white; stroke:black; stroke-width:1.00; stroke-linecap:butt; stroke-linejoin:miter"
       id="g27" />
    <g
       style="fill:none; color:black; stroke:currentColor; stroke-width:1.00; stroke-linecap:butt; stroke-linejoin:miter"
       id="g29" />
    <g
       style="fill:none; color:gray; stroke:currentColor; stroke-width:1.00; stroke-linecap:butt; stroke-linejoin:miter"
       id="g31">
      <path
         stroke="gray"
         stroke-dasharray=" 2,4"
         class="gridline"
         d="M55.3,317.4 L675.0,317.4  "
         id="path33" />
    </g>
    <g
       style="fill:none; color:black; stroke:currentColor; stroke-width:1.00; stroke-linecap:butt; stroke-linejoin:miter"
       id="g35">
      <path
         stroke="black"
         d="M55.3,317.4 L64.3,317.4 M675.0,317.4 L666.0,317.4  "
         id="path37" />
      <g
         transform="translate(47.0,321.9)"
         style="stroke:none; fill:black; font-family:Arial; font-size:12.00pt; text-anchor:end"
         id="g39">
        <text
           id="text41"> 0</text>
      </g>
    </g>
    <g
       style="fill:none; color:gray; stroke:currentColor; stroke-width:1.00; stroke-linecap:butt; stroke-linejoin:miter"
       id="g43">
      <path
         stroke="gray"
         stroke-dasharray=" 2,4"
         class="gridline"
         d="M55.3,274.4 L675.0,274.4  "
         id="path45" />
    </g>
    <g
       style="fill:none; color:black; stroke:currentColor; stroke-width:1.00; stroke-linecap:butt; stroke-linejoin:miter"
       id="g47">
      <path
         stroke="black"
         d="M55.3,274.4 L64.3,274.4 M675.0,274.4 L666.0,274.4  "
         id="path49" />
      <g
         transform="translate(47.0,278.9)"
         style="stroke:none; fill:black; font-family:Arial; font-size:12.00pt; text-anchor:end"
         id="g51">
        <text
           id="text53"> 1</text>
      </g>
    </g>
    <g
       style="fill:none; color:gray; stroke:currentColor; stroke-width:1.00; stroke-linecap:butt; stroke-linejoin:miter"
       id="g55">
      <path
         stroke="gray"
         stroke-dasharray=" 2,4"
         class="gridline"
         d="M55.3,231.5 L675.0,231.5  "
         id="path57" />
    </g>
    <g
       style="fill:none; color:black; stroke:currentColor; stroke-width:1.00; stroke-linecap:butt; stroke-linejoin:miter"
       id="g59">
      <path
         stroke="black"
         d="M55.3,231.5 L64.3,231.5 M675.0,231.5 L666.0,231.5  "
         id="path61" />
      <g
         transform="translate(47.0,236.0)"
         style="stroke:none; fill:black; font-family:Arial; font-size:12.00pt; text-anchor:end"
         id="g63">
        <text
           id="text65"> 2</text>
      </g>
    </g>
    <g
       style="fill:none; color:gray; stroke:currentColor; stroke-width:1.00; stroke-linecap:butt; stroke-linejoin:miter"
       id="g67">
      <path
         stroke="gray"
         stroke-dasharray=" 2,4"
         class="gridline"
         d="M55.3,188.5 L675.0,188.5  "
         id="path69" />
    </g>
    <g
       style="fill:none; color:black; stroke:currentColor; stroke-width:1.00; stroke-linecap:butt; stroke-linejoin:miter"
       id="g71">
      <path
         stroke="black"
         d="M55.3,188.5 L64.3,188.5 M675.0,188.5 L666.0,188.5  "
         id="path73" />
      <g
         transform="translate(47.0,193.0)"
         style="stroke:none; fill:black; font-family:Arial; font-size:12.00pt; text-anchor:end"
         id="g75">
        <text
           id="text77"> 3</text>
      </g>
    </g>
    <g
       style="fill:none; color:gray; stroke:currentColor; stroke-width:1.00; stroke-linecap:butt; stroke-linejoin:miter"
       id="g79">
      <path
         stroke="gray"
         stroke-dasharray=" 2,4"
         class="gridline"
         d="M55.3,145.6 L675.0,145.6  "
         id="path81" />
    </g>
    <g
       style="fill:none; color:black; stroke:currentColor; stroke-width:1.00; stroke-linecap:butt; stroke-linejoin:miter"
       id="g83">
      <path
         stroke="black"
         d="M55.3,145.6 L64.3,145.6 M675.0,145.6 L666.0,145.6  "
         id="path85" />
      <g
         transform="translate(47.0,150.1)"
         style="stroke:none; fill:black; font-family:Arial; font-size:12.00pt; text-anchor:end"
         id="g87">
        <text
           id="text89"> 4</text>
      </g>
    </g>
    <g
       style="fill:none; color:gray; stroke:currentColor; stroke-width:1.00; stroke-linecap:butt; stroke-linejoin:miter"
       id="g91">
      <path
         stroke="gray"
         stroke-dasharray=" 2,4"
         class="gridline"
         d="M55.3,102.6 L675.0,102.6  "
         id="path93" />
    </g>
    <g
       style="fill:none; color:black; stroke:currentColor; stroke-width:1.00; stroke-linecap:butt; stroke-linejoin:miter"
       id="g95">
      <path
         stroke="black"
         d="M55.3,102.6 L64.3,102.6 M675.0,102.6 L666.0,102.6  "
         id="path97" />
      <g
         transform="translate(47.0,107.1)"
         style="stroke:none; fill:black; font-family:Arial; font-size:12.00pt; text-anchor:end"
         id="g99">
        <text
           id="text101"> 5</text>
      </g>
    </g>
    <g
       style="fill:none; color:gray; stroke:currentColor; stroke-width:1.00; stroke-linecap:butt; stroke-linejoin:miter"
       id="g103">
      <path
         stroke="gray"
         stroke-dasharray=" 2,4"
         class="gridline"
         d="M55.3,59.7 L675.0,59.7  "
         id="path105" />
    </g>
    <g
       style="fill:none; color:black; stroke:currentColor; stroke-width:1.00; stroke-linecap:butt; stroke-linejoin:miter"
       id="g107">
      <path
         stroke="black"
         d="M55.3,59.7 L64.3,59.7 M675.0,59.7 L666.0,59.7  "
         id="path109" />
      <g
         transform="translate(47.0,64.2)"
         style="stroke:none; fill:black; font-family:Arial; font-size:12.00pt; text-anchor:end"
         id="g111">
        <text
           id="text113"> 6</text>
      </g>
    </g>
    <g
       style="fill:none; color:gray; stroke:currentColor; stroke-width:1.00; stroke-linecap:butt; stroke-linejoin:miter"
       id="g115">
      <path
         stroke="gray"
         stroke-dasharray=" 2,4"
         class="gridline"
         d="M55.3,16.7 L675.0,16.7  "
         id="path117" />
    </g>
    <g
       style="fill:none; color:black; stroke:currentColor; stroke-width:1.00; stroke-linecap:butt; stroke-linejoin:miter"
       id="g119">
      <path
         stroke="black"
         d="M55.3,16.7 L64.3,16.7 M675.0,16.7 L666.0,16.7  "
         id="path121" />
      <g
         transform="translate(47.0,21.2)"
         style="stroke:none; fill:black; font-family:Arial; font-size:12.00pt; text-anchor:end"
         id="g123">
        <text
           id="text125"> 7</text>
      </g>
    </g>
    <g
       style="fill:none; color:gray; stroke:currentColor; stroke-width:1.00; stroke-linecap:butt; stroke-linejoin:miter"
       id="g127">
      <path
         stroke="gray"
         stroke-dasharray=" 2,4"
         class="gridline"
         d="M55.3,317.4 L55.3,16.7  "
         id="path129" />
    </g>
    <g
       style="fill:none; color:black; stroke:currentColor; stroke-width:1.00; stroke-linecap:butt; stroke-linejoin:miter"
       id="g131">
      <path
         stroke="black"
         d="M55.3,317.4 L55.3,308.4 M55.3,16.7 L55.3,25.7  "
         id="path133" />
      <g
         transform="translate(55.3,339.9)"
         style="stroke:none; fill:black; font-family:Arial; font-size:12.00pt; text-anchor:middle"
         id="g135">
        <text
           id="text137"> 2</text>
      </g>
    </g>
    <g
       style="fill:none; color:gray; stroke:currentColor; stroke-width:1.00; stroke-linecap:butt; stroke-linejoin:miter"
       id="g139">
      <path
         stroke="gray"
         stroke-dasharray=" 2,4"
         class="gridline"
         d="M132.8,317.4 L132.8,16.7  "
         id="path141" />
    </g>
    <g
       style="fill:none; color:black; stroke:currentColor; stroke-width:1.00; stroke-linecap:butt; stroke-linejoin:miter"
       id="g143">
      <path
         stroke="black"
         d="M132.8,317.4 L132.8,308.4 M132.8,16.7 L132.8,25.7  "
         id="path145" />
      <g
         transform="translate(132.8,339.9)"
         style="stroke:none; fill:black; font-family:Arial; font-size:12.00pt; text-anchor:middle"
         id="g147">
        <text
           id="text149"> 4</text>
      </g>
    </g>
    <g
       style="fill:none; color:gray; stroke:currentColor; stroke-width:1.00; stroke-linecap:butt; stroke-linejoin:miter"
       id="g151">
      <path
         stroke="gray"
         stroke-dasharray=" 2,4"
         class="gridline"
         d="M210.2,317.4 L210.2,16.7  "
         id="path153" />
    </g>
    <g
       style="fill:none; color:black; stroke:currentColor; stroke-width:1.00; stroke-linecap:butt; stroke-linejoin:miter"
       id="g155">
      <path
         stroke="black"
         d="M210.2,317.4 L210.2,308.4 M210.2,16.7 L210.2,25.7  "
         id="path157" />
      <g
         transform="translate(210.2,339.9)"
         style="stroke:none; fill:black; font-family:Arial; font-size:12.00pt; text-anchor:middle"
         id="g159">
        <text
           id="text161"> 6</text>
      </g>
    </g>
    <g
       style="fill:none; color:gray; stroke:currentColor; stroke-width:1.00; stroke-linecap:butt; stroke-linejoin:miter"
       id="g163">
      <path
         stroke="gray"
         stroke-dasharray=" 2,4"
         class="gridline"
         d="M287.7,317.4 L287.7,16.7  "
         id="path165" />
    </g>
    <g
       style="fill:none; color:black; stroke:currentColor; stroke-width:1.00; stroke-linecap:butt; stroke-linejoin:miter"
       id="g167">
      <path
         stroke="black"
         d="M287.7,317.4 L287.7,308.4 M287.7,16.7 L287.7,25.7  "
         id="path169" />
      <g
         transform="translate(287.7,339.9)"
         style="stroke:none; fill:black; font-family:Arial; font-size:12.00pt; text-anchor:middle"
         id="g171">
        <text
           id="text173"> 8</text>
      </g>
    </g>
    <g
       style="fill:none; color:gray; stroke:currentColor; stroke-width:1.00; stroke-linecap:butt; stroke-linejoin:miter"
       id="g175">
      <path
         stroke="gray"
         stroke-dasharray=" 2,4"
         class="gridline"
         d="M365.2,317.4 L365.2,16.7  "
         id="path177" />
    </g>
    <g
       style="fill:none; color:black; stroke:currentColor; stroke-width:1.00; stroke-linecap:butt; stroke-linejoin:miter"
       id="g179">
      <path
         stroke="black"
         d="M365.2,317.4 L365.2,308.4 M365.2,16.7 L365.2,25.7  "
         id="path181" />
      <g
         transform="translate(365.2,339.9)"
         style="stroke:none; fill:black; font-family:Arial; font-size:12.00pt; text-anchor:middle"
         id="g183">
        <text
           id="text185"> 10</text>
      </g>
    </g>
    <g
       style="fill:none; color:gray; stroke:currentColor; stroke-width:1.00; stroke-linecap:butt; stroke-linejoin:miter"
       id="g187">
      <path
         stroke="gray"
         stroke-dasharray=" 2,4"
         class="gridline"
         d="M442.6,317.4 L442.6,16.7  "
         id="path189" />
    </g>
    <g
       style="fill:none; color:black; stroke:currentColor; stroke-width:1.00; stroke-linecap:butt; stroke-linejoin:miter"
       id="g191">
      <path
         stroke="black"
         d="M442.6,317.4 L442.6,308.4 M442.6,16.7 L442.6,25.7  "
         id="path193" />
      <g
         transform="translate(442.6,339.9)"
         style="stroke:none; fill:black; font-family:Arial; font-size:12.00pt; text-anchor:middle"
         id="g195">
        <text
           id="text197"> 12</text>
      </g>
    </g>
    <g
       style="fill:none; color:gray; stroke:currentColor; stroke-width:1.00; stroke-linecap:butt; stroke-linejoin:miter"
       id="g199">
      <path
         stroke="gray"
         stroke-dasharray=" 2,4"
         class="gridline"
         d="M520.1,317.4 L520.1,43.7 M520.1,25.7 L520.1,16.7  "
         id="path201" />
    </g>
    <g
       style="fill:none; color:black; stroke:currentColor; stroke-width:1.00; stroke-linecap:butt; stroke-linejoin:miter"
       id="g203">
      <path
         stroke="black"
         d="M520.1,317.4 L520.1,308.4 M520.1,16.7 L520.1,25.7  "
         id="path205" />
      <g
         transform="translate(520.1,339.9)"
         style="stroke:none; fill:black; font-family:Arial; font-size:12.00pt; text-anchor:middle"
         id="g207">
        <text
           id="text209"> 14</text>
      </g>
    </g>
    <g
       style="fill:none; color:gray; stroke:currentColor; stroke-width:1.00; stroke-linecap:butt; stroke-linejoin:miter"
       id="g211">
      <path
         stroke="gray"
         stroke-dasharray=" 2,4"
         class="gridline"
         d="M597.5,317.4 L597.5,43.7 M597.5,25.7 L597.5,16.7  "
         id="path213" />
    </g>
    <g
       style="fill:none; color:black; stroke:currentColor; stroke-width:1.00; stroke-linecap:butt; stroke-linejoin:miter"
       id="g215">
      <path
         stroke="black"
         d="M597.5,317.4 L597.5,308.4 M597.5,16.7 L597.5,25.7  "
         id="path217" />
      <g
         transform="translate(597.5,339.9)"
         style="stroke:none; fill:black; font-family:Arial; font-size:12.00pt; text-anchor:middle"
         id="g219">
        <text
           id="text221"> 16</text>
      </g>
    </g>
    <g
       style="fill:none; color:gray; stroke:currentColor; stroke-width:1.00; stroke-linecap:butt; stroke-linejoin:miter"
       id="g223">
      <path
         stroke="gray"
         stroke-dasharray=" 2,4"
         class="gridline"
         d="M675.0,317.4 L675.0,16.7  "
         id="path225" />
    </g>
    <g
       style="fill:none; color:black; stroke:currentColor; stroke-width:1.00; stroke-linecap:butt; stroke-linejoin:miter"
       id="g227">
      <path
         stroke="black"
         d="M675.0,317.4 L675.0,308.4 M675.0,16.7 L675.0,25.7  "
         id="path229" />
      <g
         transform="translate(675.0,339.9)"
         style="stroke:none; fill:black; font-family:Arial; font-size:12.00pt; text-anchor:middle"
         id="g231">
        <text
           id="text233"> 18</text>
      </g>
      <path
         stroke="black"
         d="M55.3,16.7 L55.3,317.4 L675.0,317.4 L675.0,16.7 L55.3,16.7 Z  "
         id="path235" />
      <g
         transform="translate(17.6,167.1) rotate(270)"
         style="stroke:none; fill:black; font-family:Arial; font-size:12.00pt; text-anchor:middle"
         id="g237">
        <text
           id="text239">y</text>
      </g>
      <g
         transform="translate(365.1,366.9)"
         style="stroke:none; fill:black; font-family:Arial; font-size:12.00pt; text-anchor:middle"
         id="g241">
        <text
           id="text243">z</text>
      </g>
    </g>
    <g
       id="gnuplot_plot_1">
      <title
         id="title246">gnuplot_plot_1</title>
      <g
         style="fill:none; color:red; stroke:currentColor; stroke-width:1.00; stroke-linecap:butt; stroke-linejoin:miter"
         id="g248">
        <g
           transform="translate(607.9,39.2)"
           style="stroke:none; fill:black; font-family:Arial; font-size:12.00pt; text-anchor:end"
           id="g250">
          <text
             id="text252">$y_\text{deformation}$</text>
        </g>
        <path
           d="M616.2,34.7 L658.4,34.7 M68.8,314.3 L68.9,314.3 L72.7,313.8 L72.7,313.9 L72.7,313.8 L72.7,313.9    L76.6,313.0 L76.6,313.2 L76.6,313.0 L76.6,313.2 L80.5,312.6 L80.5,312.5 L80.5,312.6 L80.5,312.5    L86.0,311.8 L86.0,311.5 L86.0,311.8 L86.0,311.5 L86.8,311.6 L91.6,310.3 L91.6,311.0 L91.6,310.3    L91.6,311.0 L93.2,310.6 L97.2,309.6 L97.2,310.2 L97.2,309.6 L99.6,309.5 L102.7,309.1 L102.7,308.5    L102.8,309.1 L102.8,308.5 L105.9,308.4 L108.3,307.5 L108.3,308.1 L108.3,307.5 L112.3,307.2 L113.9,306.9    L113.9,306.5 L113.9,306.9 L113.9,306.5 L118.7,306.0 L119.5,305.8 L119.5,305.5 L125.0,304.7 L125.0,304.8    L130.6,303.6 L130.6,303.2 L131.3,303.4 L136.2,302.5 L136.2,301.7 L136.2,302.5 L136.2,301.7 L137.6,302.1    L141.8,301.3 L141.8,300.9 L141.8,301.3 L141.8,300.9 L143.9,300.8 L147.4,299.7 L147.4,300.0 L147.4,299.7    L150.2,299.4 L153.0,298.5 L153.0,298.7 L153.0,298.5 L153.0,298.7 L156.5,297.9 L158.6,297.2 L158.6,297.4    L158.6,297.2 L158.6,297.4 L162.8,296.4 L164.2,296.1 L164.2,296.0 L164.2,295.9 L164.2,296.0 L164.2,295.9    L169.1,294.9 L169.8,294.6 L169.8,294.5 L169.8,294.6 L169.8,294.5 L169.8,294.6 L175.4,293.2 L175.4,293.4    L175.4,293.3 L175.4,293.2 L175.4,293.4 L175.4,293.3 L181.2,291.8 L181.2,291.6 L181.2,291.5 L181.2,291.8    L181.2,291.6 L181.2,291.8 L181.2,291.5 L187.0,290.2 L187.0,290.1 L187.0,290.0 L187.0,290.2 L187.0,290.1    L187.0,290.2 L187.0,290.0 L192.8,288.6 L192.8,288.4 L192.8,288.6 L192.8,288.4 L198.6,286.9 L198.6,287.0    L198.6,286.9 L198.6,287.0 L198.6,286.8 L204.4,285.2 L204.4,285.3 L204.4,284.9 L204.4,285.0 L204.4,284.9    L204.4,285.2 L204.4,285.0 L210.2,283.5 L210.2,283.2 L210.2,283.5 L210.2,283.2 L216.0,281.7 L216.0,281.2    L216.0,281.7 L216.0,281.2 L216.0,281.1 L216.0,281.7 L216.0,281.1 L221.8,279.8 L221.8,279.7 L221.9,279.8    L221.9,279.7 L221.9,279.8 L227.7,277.8 L227.7,277.9 L233.5,275.9 L233.5,276.0 L239.3,274.0 L239.3,274.1    L239.3,274.0 L239.3,274.1 L245.1,272.1 L245.1,271.9 L245.1,272.1 L245.1,271.9 L250.9,270.0 L250.9,269.9    L250.9,270.0 L256.7,267.9 L256.7,267.8 L256.7,267.9 L256.7,267.8 L256.7,267.9 L262.5,265.7 L262.5,265.6    L262.5,265.8 L262.6,265.6 L262.6,265.8 L268.3,263.5 L268.3,263.4 L268.3,263.6 L268.4,263.4 L268.4,263.6    L274.1,261.3 L274.2,261.2 L274.2,261.4 L274.2,261.2 L274.2,261.4 L279.9,259.1 L280.0,259.1 L280.0,258.9    L280.0,259.1 L280.0,258.9 L280.0,259.1 L285.8,256.8 L285.8,256.6 L285.8,256.8 L285.8,256.6 L291.6,254.4    L291.6,254.2 L291.6,254.4 L291.6,254.2 L297.4,252.1 L297.5,252.1 L297.5,252.0 L297.5,251.8 L297.5,252.0    L297.5,251.8 L303.3,249.6 L303.3,249.3 L303.3,249.5 L303.3,249.3 L309.2,247.0 L309.2,246.7 L309.2,247.0    L309.2,246.7 L309.2,247.0 L315.1,244.5 L315.1,244.2 L315.1,244.4 L315.1,244.2 L315.1,244.4 L320.9,241.9    L321.0,241.9 L321.0,241.8 L321.0,241.5 L321.0,241.8 L321.0,241.5 L326.8,239.1 L326.8,238.8 L326.9,239.1    L326.9,238.8 L332.6,236.1 L332.6,236.4 L332.7,236.4 L332.7,236.1 L338.4,233.4 L338.4,233.7 L338.5,233.7    L338.5,233.4 L338.5,233.7 L344.2,230.9 L344.3,230.6 L344.3,230.9 L344.3,230.6 L344.3,230.9 L350.1,228.1    L350.1,227.7 L350.1,228.0 L350.1,227.7 L350.1,228.0 L355.9,225.2 L355.9,224.9 L355.9,225.1 L355.9,224.9    L355.9,225.1 L361.7,222.2 L361.7,221.9 L361.7,222.1 L361.7,221.9 L367.5,219.1 L367.5,218.8 L367.5,219.1    L367.5,218.8 L373.2,216.2 L373.2,216.1 L373.2,215.8 L373.2,216.1 L373.2,215.8 L379.0,213.1 L379.0,212.7    L379.0,213.0 L379.0,212.7 L379.0,213.0 L384.7,209.9 L384.7,209.5 L384.7,209.8 L384.8,209.8 L384.8,209.5    L384.8,209.8 L390.5,206.3 L390.5,206.7 L390.5,206.6 L390.5,206.3 L390.5,206.6 L396.3,203.1 L396.3,203.3    L396.3,203.4 L396.3,203.3 L396.3,203.1 L396.3,203.3 L402.0,199.7 L402.0,200.0 L402.0,200.1 L402.0,200.0    L402.0,199.7 L402.0,200.0 L407.8,196.3 L407.8,196.6 L407.8,196.3 L407.8,196.6 L413.5,192.9 L413.5,193.3    L413.5,192.9 L414.1,192.8 L419.1,189.4 L419.2,189.8 L419.2,189.4 L420.4,188.9 L424.8,185.8 L424.8,186.1    L424.9,185.8 L426.7,185.0 L426.8,185.0 L430.5,182.2 L430.5,182.5 L430.5,182.2 L433.1,180.9 L436.2,178.8    L436.2,178.6 L436.2,178.8 L436.2,178.6 L439.4,176.8 L441.9,175.1 L441.9,174.8 L445.7,172.6 L447.6,171.3    L447.6,171.0 L452.0,168.4 L452.1,168.3 L453.3,167.5 L453.3,167.2 L453.3,167.5 L453.3,167.2 L458.4,164.0    L459.0,163.7 L459.0,163.2 L464.7,159.6 L464.7,159.2 L464.7,159.6 L464.7,159.2 L470.4,155.2 L471.1,155.1    L476.2,151.1 L477.4,150.5 L481.9,146.9 L483.8,145.9 L487.6,142.7 L490.2,141.2 L493.3,138.4 L493.4,138.4    L496.5,136.4 L496.6,136.4 L499.1,134.1 L502.9,131.5 L504.8,129.6 L509.3,126.7 L515.7,121.7 L522.0,116.7    L522.0,116.4 L522.0,116.7 L522.0,116.4 L528.4,111.7 L534.8,106.6 L541.1,101.5 L544.9,98.0 L545.0,98.0    L547.5,96.4 L550.7,93.4 L553.9,91.2 L560.2,86.0 L560.3,86.0 L566.6,80.8 L573.0,75.6 L573.0,75.5    L579.3,70.3 L579.3,70.0 L579.4,70.3 L579.4,70.0 L585.7,65.1 L592.0,59.8 L598.3,54.6 L604.6,49.3    L604.7,49.3 L607.8,46.4 L611.0,44.1 L611.0,44.0 L617.3,38.8 L623.6,33.5 L629.9,28.2 L630.0,28.2    L636.3,23.0 L636.3,22.7 L636.3,23.0 L636.3,22.7  "
           id="path254" />
      </g>
    </g>
    <g
       style="fill:none; color:black; stroke:currentColor; stroke-width:1.00; stroke-linecap:butt; stroke-linejoin:miter"
       id="g256">
      <path
         stroke="black"
         d="M55.3,16.7 L55.3,317.4 L675.0,317.4 L675.0,16.7 L55.3,16.7 Z  "
         id="path258" />
    </g>
  </g>
</svg>
