<?xml version="1.0" encoding="UTF-8" standalone="no"?>
<svg
   xmlns:dc="http://purl.org/dc/elements/1.1/"
   xmlns:cc="http://creativecommons.org/ns#"
   xmlns:rdf="http://www.w3.org/1999/02/22-rdf-syntax-ns#"
   xmlns:svg="http://www.w3.org/2000/svg"
   xmlns="http://www.w3.org/2000/svg"
   xmlns:xlink="http://www.w3.org/1999/xlink"
   xmlns:sodipodi="http://sodipodi.sourceforge.net/DTD/sodipodi-0.dtd"
   xmlns:inkscape="http://www.inkscape.org/namespaces/inkscape"
   width="700"
   height="300"
   viewBox="0 0 700 300"
   id="svg2"
   version="1.1"
   inkscape:version="0.48.4 r9939"
   sodipodi:docname="WingRotating.svg">
  <metadata
     id="metadata228">
    <rdf:RDF>
      <cc:Work
         rdf:about="">
        <dc:format>image/svg+xml</dc:format>
        <dc:type
           rdf:resource="http://purl.org/dc/dcmitype/StillImage" />
        <dc:title>Gnuplot</dc:title>
      </cc:Work>
    </rdf:RDF>
  </metadata>
  <defs
     id="defs226" />
  <sodipodi:namedview
     pagecolor="#ffffff"
     bordercolor="#666666"
     borderopacity="1"
     objecttolerance="10"
     gridtolerance="10"
     guidetolerance="10"
     inkscape:pageopacity="0"
     inkscape:pageshadow="2"
     inkscape:window-width="1680"
     inkscape:window-height="988"
     id="namedview224"
     showgrid="false"
     inkscape:zoom="2.1428571"
     inkscape:cx="320.42609"
     inkscape:cy="188.66034"
     inkscape:window-x="-8"
     inkscape:window-y="-8"
     inkscape:window-maximized="1"
     inkscape:current-layer="g214" />
  <title
     id="title4">Gnuplot</title>
  <desc
     id="desc6">Produced by GNUPLOT 4.6 patchlevel 5 </desc>
  <g
     id="gnuplot_canvas">
    <rect
       x="0"
       y="0"
       width="700"
       height="300"
       fill="none"
       id="rect9" />
    <defs
       id="defs11">
      <circle
         id="gpDot"
         r="0.5"
         stroke-width="0.5" />
      <path
         id="gpPt0"
         stroke-width="0.222"
         stroke="currentColor"
         d="M-1,0 h2 M0,-1 v2" />
      <path
         id="gpPt1"
         stroke-width="0.222"
         stroke="currentColor"
         d="M-1,-1 L1,1 M1,-1 L-1,1" />
      <path
         id="gpPt2"
         stroke-width="0.222"
         stroke="currentColor"
         d="M-1,0 L1,0 M0,-1 L0,1 M-1,-1 L1,1 M-1,1 L1,-1" />
      <rect
         id="gpPt3"
         stroke-width="0.222"
         stroke="currentColor"
         x="-1"
         y="-1"
         width="2"
         height="2" />
      <rect
         id="gpPt4"
         stroke-width="0.222"
         stroke="currentColor"
         fill="currentColor"
         x="-1"
         y="-1"
         width="2"
         height="2" />
      <circle
         id="gpPt5"
         stroke-width="0.222"
         stroke="currentColor"
         cx="0"
         cy="0"
         r="1" />
      <use
         xlink:href="#gpPt5"
         id="gpPt6"
         fill="currentColor"
         stroke="none" />
      <path
         id="gpPt7"
         stroke-width="0.222"
         stroke="currentColor"
         d="M0,-1.33 L-1.33,0.67 L1.33,0.67 z" />
      <use
         xlink:href="#gpPt7"
         id="gpPt8"
         fill="currentColor"
         stroke="none" />
      <use
         xlink:href="#gpPt7"
         id="gpPt9"
         stroke="currentColor"
         transform="rotate(180)" />
      <use
         xlink:href="#gpPt9"
         id="gpPt10"
         fill="currentColor"
         stroke="none" />
      <use
         xlink:href="#gpPt3"
         id="gpPt11"
         stroke="currentColor"
         transform="rotate(45)" />
      <use
         xlink:href="#gpPt11"
         id="gpPt12"
         fill="currentColor"
         stroke="none" />
    </defs>
    <g
       style="fill:none; color:white; stroke:currentColor; stroke-width:1.00; stroke-linecap:butt; stroke-linejoin:miter"
       id="g27" />
    <g
       style="fill:none; color:black; stroke:currentColor; stroke-width:1.00; stroke-linecap:butt; stroke-linejoin:miter"
       id="g29" />
    <g
       style="fill:none; color:gray; stroke:currentColor; stroke-width:1.00; stroke-linecap:butt; stroke-linejoin:miter"
       id="g31">
      <path
         stroke="gray"
         stroke-dasharray=" 2,4"
         class="gridline"
         d="M88.5,242.4 L675.0,242.4  "
         id="path33" />
    </g>
    <g
       style="fill:none; color:black; stroke:currentColor; stroke-width:1.00; stroke-linecap:butt; stroke-linejoin:miter"
       id="g35">
      <path
         stroke="black"
         d="M88.5,242.4 L97.5,242.4 M675.0,242.4 L666.0,242.4  "
         id="path37" />
      <g
         transform="translate(80.2,246.9)"
         style="stroke:none; fill:black; font-family:Arial; font-size:12.00pt; text-anchor:end"
         id="g39">
        <text
           id="text41">-0.04</text>
      </g>
    </g>
    <g
       style="fill:none; color:gray; stroke:currentColor; stroke-width:1.00; stroke-linecap:butt; stroke-linejoin:miter"
       id="g43">
      <path
         stroke="gray"
         stroke-dasharray=" 2,4"
         class="gridline"
         d="M88.5,204.8 L675.0,204.8  "
         id="path45" />
    </g>
    <g
       style="fill:none; color:black; stroke:currentColor; stroke-width:1.00; stroke-linecap:butt; stroke-linejoin:miter"
       id="g47">
      <path
         stroke="black"
         d="M88.5,204.8 L97.5,204.8 M675.0,204.8 L666.0,204.8  "
         id="path49" />
      <g
         transform="translate(80.2,209.3)"
         style="stroke:none; fill:black; font-family:Arial; font-size:12.00pt; text-anchor:end"
         id="g51">
        <text
           id="text53">-0.035</text>
      </g>
    </g>
    <g
       style="fill:none; color:gray; stroke:currentColor; stroke-width:1.00; stroke-linecap:butt; stroke-linejoin:miter"
       id="g55">
      <path
         stroke="gray"
         stroke-dasharray=" 2,4"
         class="gridline"
         d="M88.5,167.2 L675.0,167.2  "
         id="path57" />
    </g>
    <g
       style="fill:none; color:black; stroke:currentColor; stroke-width:1.00; stroke-linecap:butt; stroke-linejoin:miter"
       id="g59">
      <path
         stroke="black"
         d="M88.5,167.2 L97.5,167.2 M675.0,167.2 L666.0,167.2  "
         id="path61" />
      <g
         transform="translate(80.2,171.7)"
         style="stroke:none; fill:black; font-family:Arial; font-size:12.00pt; text-anchor:end"
         id="g63">
        <text
           id="text65">-0.03</text>
      </g>
    </g>
    <g
       style="fill:none; color:gray; stroke:currentColor; stroke-width:1.00; stroke-linecap:butt; stroke-linejoin:miter"
       id="g67">
      <path
         stroke="gray"
         stroke-dasharray=" 2,4"
         class="gridline"
         d="M88.5,129.6 L675.0,129.6  "
         id="path69" />
    </g>
    <g
       style="fill:none; color:black; stroke:currentColor; stroke-width:1.00; stroke-linecap:butt; stroke-linejoin:miter"
       id="g71">
      <path
         stroke="black"
         d="M88.5,129.6 L97.5,129.6 M675.0,129.6 L666.0,129.6  "
         id="path73" />
      <g
         transform="translate(80.2,134.1)"
         style="stroke:none; fill:black; font-family:Arial; font-size:12.00pt; text-anchor:end"
         id="g75">
        <text
           id="text77">-0.025</text>
      </g>
    </g>
    <g
       style="fill:none; color:gray; stroke:currentColor; stroke-width:1.00; stroke-linecap:butt; stroke-linejoin:miter"
       id="g79">
      <path
         stroke="gray"
         stroke-dasharray=" 2,4"
         class="gridline"
         d="M88.5,91.9 L675.0,91.9  "
         id="path81" />
    </g>
    <g
       style="fill:none; color:black; stroke:currentColor; stroke-width:1.00; stroke-linecap:butt; stroke-linejoin:miter"
       id="g83">
      <path
         stroke="black"
         d="M88.5,91.9 L97.5,91.9 M675.0,91.9 L666.0,91.9  "
         id="path85" />
      <g
         transform="translate(80.2,96.4)"
         style="stroke:none; fill:black; font-family:Arial; font-size:12.00pt; text-anchor:end"
         id="g87">
        <text
           id="text89">-0.02</text>
      </g>
    </g>
    <g
       style="fill:none; color:gray; stroke:currentColor; stroke-width:1.00; stroke-linecap:butt; stroke-linejoin:miter"
       id="g91">
      <path
         stroke="gray"
         stroke-dasharray=" 2,4"
         class="gridline"
         d="M88.5,54.3 L675.0,54.3  "
         id="path93" />
    </g>
    <g
       style="fill:none; color:black; stroke:currentColor; stroke-width:1.00; stroke-linecap:butt; stroke-linejoin:miter"
       id="g95">
      <path
         stroke="black"
         d="M88.5,54.3 L97.5,54.3 M675.0,54.3 L666.0,54.3  "
         id="path97" />
      <g
         transform="translate(80.2,58.8)"
         style="stroke:none; fill:black; font-family:Arial; font-size:12.00pt; text-anchor:end"
         id="g99">
        <text
           id="text101">-0.015</text>
      </g>
    </g>
    <g
       style="fill:none; color:gray; stroke:currentColor; stroke-width:1.00; stroke-linecap:butt; stroke-linejoin:miter"
       id="g103">
      <path
         stroke="gray"
         stroke-dasharray=" 2,4"
         class="gridline"
         d="M88.5,16.7 L675.0,16.7  "
         id="path105" />
    </g>
    <g
       style="fill:none; color:black; stroke:currentColor; stroke-width:1.00; stroke-linecap:butt; stroke-linejoin:miter"
       id="g107">
      <path
         stroke="black"
         d="M88.5,16.7 L97.5,16.7 M675.0,16.7 L666.0,16.7  "
         id="path109" />
      <g
         transform="translate(80.2,21.2)"
         style="stroke:none; fill:black; font-family:Arial; font-size:12.00pt; text-anchor:end"
         id="g111">
        <text
           id="text113">-0.01</text>
      </g>
    </g>
    <g
       style="fill:none; color:gray; stroke:currentColor; stroke-width:1.00; stroke-linecap:butt; stroke-linejoin:miter"
       id="g115">
      <path
         stroke="gray"
         stroke-dasharray=" 2,4"
         class="gridline"
         d="M151.0,242.4 L151.0,43.7 M151.0,25.7 L151.0,16.7  "
         id="path117" />
    </g>
    <g
       style="fill:none; color:black; stroke:currentColor; stroke-width:1.00; stroke-linecap:butt; stroke-linejoin:miter"
       id="g119">
      <path
         stroke="black"
         d="M151.0,242.4 L151.0,233.4 M151.0,16.7 L151.0,25.7  "
         id="path121" />
      <g
         transform="translate(151.0,264.9)"
         style="stroke:none; fill:black; font-family:Arial; font-size:12.00pt; text-anchor:middle"
         id="g123">
        <text
           id="text125"> 4</text>
      </g>
    </g>
    <g
       style="fill:none; color:gray; stroke:currentColor; stroke-width:1.00; stroke-linecap:butt; stroke-linejoin:miter"
       id="g127">
      <path
         stroke="gray"
         stroke-dasharray=" 2,4"
         class="gridline"
         d="M231.6,242.4 L231.6,43.7 M231.6,25.7 L231.6,16.7  "
         id="path129" />
    </g>
    <g
       style="fill:none; color:black; stroke:currentColor; stroke-width:1.00; stroke-linecap:butt; stroke-linejoin:miter"
       id="g131">
      <path
         stroke="black"
         d="M231.6,242.4 L231.6,233.4 M231.6,16.7 L231.6,25.7  "
         id="path133" />
      <g
         transform="translate(231.6,264.9)"
         style="stroke:none; fill:black; font-family:Arial; font-size:12.00pt; text-anchor:middle"
         id="g135">
        <text
           id="text137"> 6</text>
      </g>
    </g>
    <g
       style="fill:none; color:gray; stroke:currentColor; stroke-width:1.00; stroke-linecap:butt; stroke-linejoin:miter"
       id="g139">
      <path
         stroke="gray"
         stroke-dasharray=" 2,4"
         class="gridline"
         d="M312.2,242.4 L312.2,43.7 M312.2,25.7 L312.2,16.7  "
         id="path141" />
    </g>
    <g
       style="fill:none; color:black; stroke:currentColor; stroke-width:1.00; stroke-linecap:butt; stroke-linejoin:miter"
       id="g143">
      <path
         stroke="black"
         d="M312.2,242.4 L312.2,233.4 M312.2,16.7 L312.2,25.7  "
         id="path145" />
      <g
         transform="translate(312.2,264.9)"
         style="stroke:none; fill:black; font-family:Arial; font-size:12.00pt; text-anchor:middle"
         id="g147">
        <text
           id="text149"> 8</text>
      </g>
    </g>
    <g
       style="fill:none; color:gray; stroke:currentColor; stroke-width:1.00; stroke-linecap:butt; stroke-linejoin:miter"
       id="g151">
      <path
         stroke="gray"
         stroke-dasharray=" 2,4"
         class="gridline"
         d="M392.8,242.4 L392.8,43.7 M392.8,25.7 L392.8,16.7  "
         id="path153" />
    </g>
    <g
       style="fill:none; color:black; stroke:currentColor; stroke-width:1.00; stroke-linecap:butt; stroke-linejoin:miter"
       id="g155">
      <path
         stroke="black"
         d="M392.8,242.4 L392.8,233.4 M392.8,16.7 L392.8,25.7  "
         id="path157" />
      <g
         transform="translate(392.8,264.9)"
         style="stroke:none; fill:black; font-family:Arial; font-size:12.00pt; text-anchor:middle"
         id="g159">
        <text
           id="text161"> 10</text>
      </g>
    </g>
    <g
       style="fill:none; color:gray; stroke:currentColor; stroke-width:1.00; stroke-linecap:butt; stroke-linejoin:miter"
       id="g163">
      <path
         stroke="gray"
         stroke-dasharray=" 2,4"
         class="gridline"
         d="M473.5,242.4 L473.5,43.7 M473.5,25.7 L473.5,16.7  "
         id="path165" />
    </g>
    <g
       style="fill:none; color:black; stroke:currentColor; stroke-width:1.00; stroke-linecap:butt; stroke-linejoin:miter"
       id="g167">
      <path
         stroke="black"
         d="M473.5,242.4 L473.5,233.4 M473.5,16.7 L473.5,25.7  "
         id="path169" />
      <g
         transform="translate(473.5,264.9)"
         style="stroke:none; fill:black; font-family:Arial; font-size:12.00pt; text-anchor:middle"
         id="g171">
        <text
           id="text173"> 12</text>
      </g>
    </g>
    <g
       style="fill:none; color:gray; stroke:currentColor; stroke-width:1.00; stroke-linecap:butt; stroke-linejoin:miter"
       id="g175">
      <path
         stroke="gray"
         stroke-dasharray=" 2,4"
         class="gridline"
         d="M554.1,242.4 L554.1,43.7 M554.1,25.7 L554.1,16.7  "
         id="path177" />
    </g>
    <g
       style="fill:none; color:black; stroke:currentColor; stroke-width:1.00; stroke-linecap:butt; stroke-linejoin:miter"
       id="g179">
      <path
         stroke="black"
         d="M554.1,242.4 L554.1,233.4 M554.1,16.7 L554.1,25.7  "
         id="path181" />
      <g
         transform="translate(554.1,264.9)"
         style="stroke:none; fill:black; font-family:Arial; font-size:12.00pt; text-anchor:middle"
         id="g183">
        <text
           id="text185"> 14</text>
      </g>
    </g>
    <g
       style="fill:none; color:gray; stroke:currentColor; stroke-width:1.00; stroke-linecap:butt; stroke-linejoin:miter"
       id="g187">
      <path
         stroke="gray"
         stroke-dasharray=" 2,4"
         class="gridline"
         d="M634.7,242.4 L634.7,43.7 M634.7,25.7 L634.7,16.7  "
         id="path189" />
    </g>
    <g
       style="fill:none; color:black; stroke:currentColor; stroke-width:1.00; stroke-linecap:butt; stroke-linejoin:miter"
       id="g191">
      <path
         stroke="black"
         d="M634.7,242.4 L634.7,233.4 M634.7,16.7 L634.7,25.7  "
         id="path193" />
      <g
         transform="translate(634.7,264.9)"
         style="stroke:none; fill:black; font-family:Arial; font-size:12.00pt; text-anchor:middle"
         id="g195">
        <text
           id="text197"> 16</text>
      </g>
      <path
         stroke="black"
         d="M88.5,16.7 L88.5,242.4 L675.0,242.4 L675.0,16.7 L88.5,16.7 Z  "
         id="path199" />
      <g
         transform="translate(17.6,129.6) rotate(270)"
         style="stroke:none; fill:black; font-family:Arial; font-size:12.00pt; text-anchor:middle"
         id="g201">
        <text
           id="text203">$\Delta Y[\text{м}]$</text>
      </g>
      <g
         transform="translate(381.7,291.9)"
         style="stroke:none; fill:black; font-family:Arial; font-size:12.00pt; text-anchor:middle"
         id="g205">
        <text
           id="text207">$Z[\text{м}]$</text>
      </g>
    </g>
    <g
       id="gnuplot_plot_1">
      <title
         id="title210">gnuplot_plot_1</title>
      <g
         style="fill:none; color:red; stroke:currentColor; stroke-width:1.00; stroke-linecap:butt; stroke-linejoin:miter"
         id="g212">
        <g
           transform="translate(607.9,39.2)"
           style="stroke:none; fill:black; font-family:Arial; font-size:12.00pt; text-anchor:end"
           id="g214">
          <text
             id="text216">$\text{Разность прогибов передней и задней стенок кессона}$</text>
        </g>
        <path
           d="M616.2,34.7 L658.4,34.7 M88.5,34.8 L94.4,31.8 L100.3,29.3 L106.3,27.4 L112.2,26.0 L118.1,25.1    L124.0,24.7 L130.0,24.7 L135.9,25.2 L141.8,26.0 L147.7,27.2 L153.7,28.7 L159.6,30.5 L165.5,32.7    L171.4,35.1 L177.4,37.8 L183.3,40.7 L189.2,43.8 L195.1,47.2 L201.1,50.7 L207.0,54.4 L212.9,58.2    L218.8,62.2 L224.8,66.3 L230.7,70.5 L236.6,74.8 L242.5,79.2 L248.5,83.6 L254.4,88.1 L260.3,92.6    L266.2,97.2 L272.2,101.8 L278.1,106.4 L284.0,111.0 L289.9,115.6 L295.8,120.1 L301.8,124.7 L307.7,129.2    L313.6,133.7 L319.5,138.1 L325.5,142.5 L331.4,146.9 L337.3,151.1 L343.2,155.3 L349.2,159.4 L355.1,163.5    L361.0,167.4 L366.9,171.3 L372.9,175.0 L378.8,178.7 L384.7,182.2 L390.6,185.7 L396.6,189.0 L402.5,192.3    L408.4,195.4 L414.3,198.4 L420.3,201.2 L426.2,204.0 L432.1,206.6 L438.0,209.0 L444.0,211.4 L449.9,213.6    L455.8,215.6 L461.7,217.6 L467.7,219.3 L473.6,221.0 L479.5,222.4 L485.4,223.8 L491.3,224.9 L497.3,225.9    L503.2,226.8 L509.1,227.4 L515.0,227.9 L521.0,228.3 L526.9,228.4 L532.8,228.4 L538.7,228.2 L544.7,227.8    L550.6,227.2 L556.5,226.4 L562.4,225.4 L568.4,224.2 L574.3,222.8 L580.2,221.1 L586.1,219.3 L592.1,217.2    L598.0,214.9 L603.9,212.3 L609.8,209.5 L615.8,206.4 L621.7,203.0 L627.6,199.4 L633.5,195.5 L639.5,191.2    L645.4,186.7 L651.3,181.9 L657.2,176.7 L663.2,171.2 L669.1,165.3 L675.0,159.1  "
           id="path218" />
      </g>
    </g>
    <g
       style="fill:none; color:black; stroke:currentColor; stroke-width:1.00; stroke-linecap:butt; stroke-linejoin:miter"
       id="g220">
      <path
         stroke="black"
         d="M88.5,16.7 L88.5,242.4 L675.0,242.4 L675.0,16.7 L88.5,16.7 Z  "
         id="path222" />
    </g>
  </g>
</svg>
