<?xml version="1.0" encoding="UTF-8" standalone="no"?>
<svg
   xmlns:dc="http://purl.org/dc/elements/1.1/"
   xmlns:cc="http://creativecommons.org/ns#"
   xmlns:rdf="http://www.w3.org/1999/02/22-rdf-syntax-ns#"
   xmlns:svg="http://www.w3.org/2000/svg"
   xmlns="http://www.w3.org/2000/svg"
   xmlns:xlink="http://www.w3.org/1999/xlink"
   xmlns:sodipodi="http://sodipodi.sourceforge.net/DTD/sodipodi-0.dtd"
   xmlns:inkscape="http://www.inkscape.org/namespaces/inkscape"
   width="700"
   height="300"
   viewBox="0 0 700 300"
   id="svg2"
   version="1.1"
   inkscape:version="0.48.4 r9939"
   sodipodi:docname="WingDeformation3.svg">
  <metadata
     id="metadata274">
    <rdf:RDF>
      <cc:Work
         rdf:about="">
        <dc:format>image/svg+xml</dc:format>
        <dc:type
           rdf:resource="http://purl.org/dc/dcmitype/StillImage" />
      </cc:Work>
    </rdf:RDF>
  </metadata>
  <defs
     id="defs272" />
  <sodipodi:namedview
     pagecolor="#ffffff"
     bordercolor="#666666"
     borderopacity="1"
     objecttolerance="10"
     gridtolerance="10"
     guidetolerance="10"
     inkscape:pageopacity="0"
     inkscape:pageshadow="2"
     inkscape:window-width="1920"
     inkscape:window-height="1018"
     id="namedview270"
     showgrid="false"
     inkscape:zoom="0.53571429"
     inkscape:cx="559.89158"
     inkscape:cy="193.35589"
     inkscape:window-x="-8"
     inkscape:window-y="-8"
     inkscape:window-maximized="1"
     inkscape:current-layer="svg2" />
  <title
     id="title4">Gnuplot</title>
  <desc
     id="desc6">Produced by GNUPLOT 4.6 patchlevel 5 </desc>
  <g
     id="gnuplot_canvas">
    <rect
       x="0"
       y="0"
       width="700"
       height="300"
       fill="none"
       id="rect9" />
    <defs
       id="defs11">
      <circle
         id="gpDot"
         r="0.5"
         stroke-width="0.5" />
      <path
         id="gpPt0"
         stroke-width="0.222"
         stroke="currentColor"
         d="M-1,0 h2 M0,-1 v2" />
      <path
         id="gpPt1"
         stroke-width="0.222"
         stroke="currentColor"
         d="M-1,-1 L1,1 M1,-1 L-1,1" />
      <path
         id="gpPt2"
         stroke-width="0.222"
         stroke="currentColor"
         d="M-1,0 L1,0 M0,-1 L0,1 M-1,-1 L1,1 M-1,1 L1,-1" />
      <rect
         id="gpPt3"
         stroke-width="0.222"
         stroke="currentColor"
         x="-1"
         y="-1"
         width="2"
         height="2" />
      <rect
         id="gpPt4"
         stroke-width="0.222"
         stroke="currentColor"
         fill="currentColor"
         x="-1"
         y="-1"
         width="2"
         height="2" />
      <circle
         id="gpPt5"
         stroke-width="0.222"
         stroke="currentColor"
         cx="0"
         cy="0"
         r="1" />
      <use
         xlink:href="#gpPt5"
         id="gpPt6"
         fill="currentColor"
         stroke="none" />
      <path
         id="gpPt7"
         stroke-width="0.222"
         stroke="currentColor"
         d="M0,-1.33 L-1.33,0.67 L1.33,0.67 z" />
      <use
         xlink:href="#gpPt7"
         id="gpPt8"
         fill="currentColor"
         stroke="none" />
      <use
         xlink:href="#gpPt7"
         id="gpPt9"
         stroke="currentColor"
         transform="rotate(180)" />
      <use
         xlink:href="#gpPt9"
         id="gpPt10"
         fill="currentColor"
         stroke="none" />
      <use
         xlink:href="#gpPt3"
         id="gpPt11"
         stroke="currentColor"
         transform="rotate(45)" />
      <use
         xlink:href="#gpPt11"
         id="gpPt12"
         fill="currentColor"
         stroke="none" />
    </defs>
    <g
       style="fill:none; color:white; stroke:currentColor; stroke-width:1.00; stroke-linecap:butt; stroke-linejoin:miter"
       id="g27" />
    <g
       style="fill:none; color:black; stroke:currentColor; stroke-width:1.00; stroke-linecap:butt; stroke-linejoin:miter"
       id="g29" />
    <g
       style="fill:none; color:gray; stroke:currentColor; stroke-width:1.00; stroke-linecap:butt; stroke-linejoin:miter"
       id="g31">
      <path
         stroke="gray"
         stroke-dasharray=" 2,4"
         class="gridline"
         d="M55.3,242.4 L675.0,242.4  "
         id="path33" />
    </g>
    <g
       style="fill:none; color:black; stroke:currentColor; stroke-width:1.00; stroke-linecap:butt; stroke-linejoin:miter"
       id="g35">
      <path
         stroke="black"
         d="M55.3,242.4 L64.3,242.4 M675.0,242.4 L666.0,242.4  "
         id="path37" />
      <g
         transform="translate(47.0,246.9)"
         style="stroke:none; fill:black; font-family:Arial; font-size:12.00pt; text-anchor:end"
         id="g39">
        <text
           id="text41"> 0</text>
      </g>
    </g>
    <g
       style="fill:none; color:gray; stroke:currentColor; stroke-width:1.00; stroke-linecap:butt; stroke-linejoin:miter"
       id="g43">
      <path
         stroke="gray"
         stroke-dasharray=" 2,4"
         class="gridline"
         d="M55.3,210.2 L675.0,210.2  "
         id="path45" />
    </g>
    <g
       style="fill:none; color:black; stroke:currentColor; stroke-width:1.00; stroke-linecap:butt; stroke-linejoin:miter"
       id="g47">
      <path
         stroke="black"
         d="M55.3,210.2 L64.3,210.2 M675.0,210.2 L666.0,210.2  "
         id="path49" />
      <g
         transform="translate(47.0,214.7)"
         style="stroke:none; fill:black; font-family:Arial; font-size:12.00pt; text-anchor:end"
         id="g51">
        <text
           id="text53"> 1</text>
      </g>
    </g>
    <g
       style="fill:none; color:gray; stroke:currentColor; stroke-width:1.00; stroke-linecap:butt; stroke-linejoin:miter"
       id="g55">
      <path
         stroke="gray"
         stroke-dasharray=" 2,4"
         class="gridline"
         d="M55.3,177.9 L675.0,177.9  "
         id="path57" />
    </g>
    <g
       style="fill:none; color:black; stroke:currentColor; stroke-width:1.00; stroke-linecap:butt; stroke-linejoin:miter"
       id="g59">
      <path
         stroke="black"
         d="M55.3,177.9 L64.3,177.9 M675.0,177.9 L666.0,177.9  "
         id="path61" />
      <g
         transform="translate(47.0,182.4)"
         style="stroke:none; fill:black; font-family:Arial; font-size:12.00pt; text-anchor:end"
         id="g63">
        <text
           id="text65"> 2</text>
      </g>
    </g>
    <g
       style="fill:none; color:gray; stroke:currentColor; stroke-width:1.00; stroke-linecap:butt; stroke-linejoin:miter"
       id="g67">
      <path
         stroke="gray"
         stroke-dasharray=" 2,4"
         class="gridline"
         d="M55.3,145.7 L675.0,145.7  "
         id="path69" />
    </g>
    <g
       style="fill:none; color:black; stroke:currentColor; stroke-width:1.00; stroke-linecap:butt; stroke-linejoin:miter"
       id="g71">
      <path
         stroke="black"
         d="M55.3,145.7 L64.3,145.7 M675.0,145.7 L666.0,145.7  "
         id="path73" />
      <g
         transform="translate(47.0,150.2)"
         style="stroke:none; fill:black; font-family:Arial; font-size:12.00pt; text-anchor:end"
         id="g75">
        <text
           id="text77"> 3</text>
      </g>
    </g>
    <g
       style="fill:none; color:gray; stroke:currentColor; stroke-width:1.00; stroke-linecap:butt; stroke-linejoin:miter"
       id="g79">
      <path
         stroke="gray"
         stroke-dasharray=" 2,4"
         class="gridline"
         d="M55.3,113.4 L675.0,113.4  "
         id="path81" />
    </g>
    <g
       style="fill:none; color:black; stroke:currentColor; stroke-width:1.00; stroke-linecap:butt; stroke-linejoin:miter"
       id="g83">
      <path
         stroke="black"
         d="M55.3,113.4 L64.3,113.4 M675.0,113.4 L666.0,113.4  "
         id="path85" />
      <g
         transform="translate(47.0,117.9)"
         style="stroke:none; fill:black; font-family:Arial; font-size:12.00pt; text-anchor:end"
         id="g87">
        <text
           id="text89"> 4</text>
      </g>
    </g>
    <g
       style="fill:none; color:gray; stroke:currentColor; stroke-width:1.00; stroke-linecap:butt; stroke-linejoin:miter"
       id="g91">
      <path
         stroke="gray"
         stroke-dasharray=" 2,4"
         class="gridline"
         d="M55.3,81.2 L675.0,81.2  "
         id="path93" />
    </g>
    <g
       style="fill:none; color:black; stroke:currentColor; stroke-width:1.00; stroke-linecap:butt; stroke-linejoin:miter"
       id="g95">
      <path
         stroke="black"
         d="M55.3,81.2 L64.3,81.2 M675.0,81.2 L666.0,81.2  "
         id="path97" />
      <g
         transform="translate(47.0,85.7)"
         style="stroke:none; fill:black; font-family:Arial; font-size:12.00pt; text-anchor:end"
         id="g99">
        <text
           id="text101"> 5</text>
      </g>
    </g>
    <g
       style="fill:none; color:gray; stroke:currentColor; stroke-width:1.00; stroke-linecap:butt; stroke-linejoin:miter"
       id="g103">
      <path
         stroke="gray"
         stroke-dasharray=" 2,4"
         class="gridline"
         d="M55.3,48.9 L675.0,48.9  "
         id="path105" />
    </g>
    <g
       style="fill:none; color:black; stroke:currentColor; stroke-width:1.00; stroke-linecap:butt; stroke-linejoin:miter"
       id="g107">
      <path
         stroke="black"
         d="M55.3,48.9 L64.3,48.9 M675.0,48.9 L666.0,48.9  "
         id="path109" />
      <g
         transform="translate(47.0,53.4)"
         style="stroke:none; fill:black; font-family:Arial; font-size:12.00pt; text-anchor:end"
         id="g111">
        <text
           id="text113"> 6</text>
      </g>
    </g>
    <g
       style="fill:none; color:gray; stroke:currentColor; stroke-width:1.00; stroke-linecap:butt; stroke-linejoin:miter"
       id="g115">
      <path
         stroke="gray"
         stroke-dasharray=" 2,4"
         class="gridline"
         d="M55.3,16.7 L675.0,16.7  "
         id="path117" />
    </g>
    <g
       style="fill:none; color:black; stroke:currentColor; stroke-width:1.00; stroke-linecap:butt; stroke-linejoin:miter"
       id="g119">
      <path
         stroke="black"
         d="M55.3,16.7 L64.3,16.7 M675.0,16.7 L666.0,16.7  "
         id="path121" />
      <g
         transform="translate(47.0,21.2)"
         style="stroke:none; fill:black; font-family:Arial; font-size:12.00pt; text-anchor:end"
         id="g123">
        <text
           id="text125"> 7</text>
      </g>
    </g>
    <g
       style="fill:none; color:gray; stroke:currentColor; stroke-width:1.00; stroke-linecap:butt; stroke-linejoin:miter"
       id="g127">
      <path
         stroke="gray"
         stroke-dasharray=" 2,4"
         class="gridline"
         d="M55.3,242.4 L55.3,16.7  "
         id="path129" />
    </g>
    <g
       style="fill:none; color:black; stroke:currentColor; stroke-width:1.00; stroke-linecap:butt; stroke-linejoin:miter"
       id="g131">
      <path
         stroke="black"
         d="M55.3,242.4 L55.3,233.4 M55.3,16.7 L55.3,25.7  "
         id="path133" />
      <g
         transform="translate(55.3,264.9)"
         style="stroke:none; fill:black; font-family:Arial; font-size:12.00pt; text-anchor:middle"
         id="g135">
        <text
           id="text137"> 2</text>
      </g>
    </g>
    <g
       style="fill:none; color:gray; stroke:currentColor; stroke-width:1.00; stroke-linecap:butt; stroke-linejoin:miter"
       id="g139">
      <path
         stroke="gray"
         stroke-dasharray=" 2,4"
         class="gridline"
         d="M132.8,242.4 L132.8,43.7 M132.8,25.7 L132.8,16.7  "
         id="path141" />
    </g>
    <g
       style="fill:none; color:black; stroke:currentColor; stroke-width:1.00; stroke-linecap:butt; stroke-linejoin:miter"
       id="g143">
      <path
         stroke="black"
         d="M132.8,242.4 L132.8,233.4 M132.8,16.7 L132.8,25.7  "
         id="path145" />
      <g
         transform="translate(132.8,264.9)"
         style="stroke:none; fill:black; font-family:Arial; font-size:12.00pt; text-anchor:middle"
         id="g147">
        <text
           id="text149"> 4</text>
      </g>
    </g>
    <g
       style="fill:none; color:gray; stroke:currentColor; stroke-width:1.00; stroke-linecap:butt; stroke-linejoin:miter"
       id="g151">
      <path
         stroke="gray"
         stroke-dasharray=" 2,4"
         class="gridline"
         d="M210.2,242.4 L210.2,43.7 M210.2,25.7 L210.2,16.7  "
         id="path153" />
    </g>
    <g
       style="fill:none; color:black; stroke:currentColor; stroke-width:1.00; stroke-linecap:butt; stroke-linejoin:miter"
       id="g155">
      <path
         stroke="black"
         d="M210.2,242.4 L210.2,233.4 M210.2,16.7 L210.2,25.7  "
         id="path157" />
      <g
         transform="translate(210.2,264.9)"
         style="stroke:none; fill:black; font-family:Arial; font-size:12.00pt; text-anchor:middle"
         id="g159">
        <text
           id="text161"> 6</text>
      </g>
    </g>
    <g
       style="fill:none; color:gray; stroke:currentColor; stroke-width:1.00; stroke-linecap:butt; stroke-linejoin:miter"
       id="g163">
      <path
         stroke="gray"
         stroke-dasharray=" 2,4"
         class="gridline"
         d="M287.7,242.4 L287.7,43.7 M287.7,25.7 L287.7,16.7  "
         id="path165" />
    </g>
    <g
       style="fill:none; color:black; stroke:currentColor; stroke-width:1.00; stroke-linecap:butt; stroke-linejoin:miter"
       id="g167">
      <path
         stroke="black"
         d="M287.7,242.4 L287.7,233.4 M287.7,16.7 L287.7,25.7  "
         id="path169" />
      <g
         transform="translate(287.7,264.9)"
         style="stroke:none; fill:black; font-family:Arial; font-size:12.00pt; text-anchor:middle"
         id="g171">
        <text
           id="text173"> 8</text>
      </g>
    </g>
    <g
       style="fill:none; color:gray; stroke:currentColor; stroke-width:1.00; stroke-linecap:butt; stroke-linejoin:miter"
       id="g175">
      <path
         stroke="gray"
         stroke-dasharray=" 2,4"
         class="gridline"
         d="M365.2,242.4 L365.2,16.7  "
         id="path177" />
    </g>
    <g
       style="fill:none; color:black; stroke:currentColor; stroke-width:1.00; stroke-linecap:butt; stroke-linejoin:miter"
       id="g179">
      <path
         stroke="black"
         d="M365.2,242.4 L365.2,233.4 M365.2,16.7 L365.2,25.7  "
         id="path181" />
      <g
         transform="translate(365.2,264.9)"
         style="stroke:none; fill:black; font-family:Arial; font-size:12.00pt; text-anchor:middle"
         id="g183">
        <text
           id="text185"> 10</text>
      </g>
    </g>
    <g
       style="fill:none; color:gray; stroke:currentColor; stroke-width:1.00; stroke-linecap:butt; stroke-linejoin:miter"
       id="g187">
      <path
         stroke="gray"
         stroke-dasharray=" 2,4"
         class="gridline"
         d="M442.6,242.4 L442.6,16.7  "
         id="path189" />
    </g>
    <g
       style="fill:none; color:black; stroke:currentColor; stroke-width:1.00; stroke-linecap:butt; stroke-linejoin:miter"
       id="g191">
      <path
         stroke="black"
         d="M442.6,242.4 L442.6,233.4 M442.6,16.7 L442.6,25.7  "
         id="path193" />
      <g
         transform="translate(442.6,264.9)"
         style="stroke:none; fill:black; font-family:Arial; font-size:12.00pt; text-anchor:middle"
         id="g195">
        <text
           id="text197"> 12</text>
      </g>
    </g>
    <g
       style="fill:none; color:gray; stroke:currentColor; stroke-width:1.00; stroke-linecap:butt; stroke-linejoin:miter"
       id="g199">
      <path
         stroke="gray"
         stroke-dasharray=" 2,4"
         class="gridline"
         d="M520.1,242.4 L520.1,16.7  "
         id="path201" />
    </g>
    <g
       style="fill:none; color:black; stroke:currentColor; stroke-width:1.00; stroke-linecap:butt; stroke-linejoin:miter"
       id="g203">
      <path
         stroke="black"
         d="M520.1,242.4 L520.1,233.4 M520.1,16.7 L520.1,25.7  "
         id="path205" />
      <g
         transform="translate(520.1,264.9)"
         style="stroke:none; fill:black; font-family:Arial; font-size:12.00pt; text-anchor:middle"
         id="g207">
        <text
           id="text209"> 14</text>
      </g>
    </g>
    <g
       style="fill:none; color:gray; stroke:currentColor; stroke-width:1.00; stroke-linecap:butt; stroke-linejoin:miter"
       id="g211">
      <path
         stroke="gray"
         stroke-dasharray=" 2,4"
         class="gridline"
         d="M597.5,242.4 L597.5,16.7  "
         id="path213" />
    </g>
    <g
       style="fill:none; color:black; stroke:currentColor; stroke-width:1.00; stroke-linecap:butt; stroke-linejoin:miter"
       id="g215">
      <path
         stroke="black"
         d="M597.5,242.4 L597.5,233.4 M597.5,16.7 L597.5,25.7  "
         id="path217" />
      <g
         transform="translate(597.5,264.9)"
         style="stroke:none; fill:black; font-family:Arial; font-size:12.00pt; text-anchor:middle"
         id="g219">
        <text
           id="text221"> 16</text>
      </g>
    </g>
    <g
       style="fill:none; color:gray; stroke:currentColor; stroke-width:1.00; stroke-linecap:butt; stroke-linejoin:miter"
       id="g223">
      <path
         stroke="gray"
         stroke-dasharray=" 2,4"
         class="gridline"
         d="M675.0,242.4 L675.0,16.7  "
         id="path225" />
    </g>
    <g
       style="fill:none; color:black; stroke:currentColor; stroke-width:1.00; stroke-linecap:butt; stroke-linejoin:miter"
       id="g227">
      <path
         stroke="black"
         d="M675.0,242.4 L675.0,233.4 M675.0,16.7 L675.0,25.7  "
         id="path229" />
      <g
         transform="translate(675.0,264.9)"
         style="stroke:none; fill:black; font-family:Arial; font-size:12.00pt; text-anchor:middle"
         id="g231">
        <text
           id="text233"> 18</text>
      </g>
    </g>
    <g
       style="fill:none; color:black; stroke:black; stroke-width:1.10; stroke-linecap:butt; stroke-linejoin:miter"
       id="g235" />
    <g
       style="fill:none; color:red; stroke:currentColor; stroke-width:1.10; stroke-linecap:butt; stroke-linejoin:miter"
       id="g237">
      <path
         stroke="rgb(  0,   0,   0)"
         d="M55.3,242.4 L675.0,242.4  "
         id="path239" />
    </g>
    <g
       style="fill:none; color:red; stroke:rgb(  0,   0,   0); stroke-width:1.00; stroke-linecap:butt; stroke-linejoin:miter"
       id="g241" />
    <g
       style="fill:none; color:black; stroke:currentColor; stroke-width:1.00; stroke-linecap:butt; stroke-linejoin:miter"
       id="g243">
      <path
         stroke="black"
         d="M55.3,16.7 L55.3,242.4 L675.0,242.4 L675.0,16.7 L55.3,16.7 Z  "
         id="path245" />
      <g
         transform="translate(17.6,129.6) rotate(270)"
         style="stroke:none; fill:black; font-family:Arial; font-size:12.00pt; text-anchor:middle"
         id="g247">
        <text
           id="text249">$\Delta Y[\text{м}]$</text>
      </g>
      <g
         transform="translate(365.1,291.9)"
         style="stroke:none; fill:black; font-family:Arial; font-size:12.00pt; text-anchor:middle"
         id="g251">
        <text
           id="text253">$Z[\text{м}]$</text>
      </g>
    </g>
    <g
       id="gnuplot_plot_1">
      <title
         id="title256">gnuplot_plot_1</title>
      <g
         style="fill:none; color:red; stroke:currentColor; stroke-width:1.00; stroke-linecap:butt; stroke-linejoin:miter"
         id="g258">
        <g
           transform="translate(122.4,39.2)"
           style="stroke:none; fill:black; font-family:Arial; font-size:12.00pt; text-anchor:start"
           id="g260" />
        <path
           d="m 80.5,238.7 5.5,-0.7 5.6,-0.7 5.6,-0.8 5.6,-0.8 5.5,-0.8 5.6,-0.8 5.6,-0.9 5.5,-0.9 5.1,-0.8 5,-0.8 5,-0.9 5.1,-0.8 5,-0.9 5,-1 5.1,-0.9 5,-1 5,-0.9 5.1,-1 5.8,-1.2 5.8,-1.3 5.8,-1.2 5.8,-1.3 5.1,-1.2 0.1,0 5.1,-1.2 5.2,-1.2 5.2,-1.3 5.1,-1.3 0.1,0 5.1,-1.3 5.2,-1.3 5.1,-1.3 0.1,0 5.1,-1.4 5.2,-1.4 5.1,-1.4 0.1,0 5.1,-1.4 5.2,-1.5 5.1,-1.5 5.2,-1.5 5.2,-1.6 5.1,-1.6 5.2,-1.6 5,-1.6 5.1,-1.6 5,-1.6 5,-1.7 5.1,-1.7 5,-1.7 5,-1.7 0.1,0 5,-1.8 5.1,-1.8 5.1,-1.9 5.1,-1.8 5,-1.9 0.1,0 5,-2 5.1,-1.9 5.1,-2 5,-2 5.1,-2 5,-2.1 5,-2 5.1,-2.2 5,-2.1 5,-2.2 0.1,0 5,-2.2 5.1,-2.3 0.1,0 5.1,-2.3 5.2,-2.4 5.2,-2.4 5.1,-2.4 0.1,0 5.1,-2.5 5.2,-2.5 5.2,-2.5 5.1,-2.6 0.1,0 5.1,-2.6 5.2,-2.6 0,-0.1 5.2,-2.6 5.2,-2.8 5.2,-2.7 5.2,-2.8 0.1,0 5.2,-2.8 5.2,-2.9 5.2,-2.9 5.2,-2.9 5.2,-2.9 5.2,-3 5.2,-3 5.2,-3 5.2,-3 0.1,0 5.2,-3 5.2,-3.1 5.2,-3.1 5.2,-3.1 5.2,-3.1 5.2,-3.1 5.2,-3.1 5.2,-3.2 0.1,0 5.1,-3.1 0.1,0 5.1,-3.1 5.2,-3.2 5.2,-3.1 5.1,-3.1 0,-0.1 0.1,0 5.1,-3.1 5.2,-3.1 5.2,-3.2 5.1,-3.1 0.1,-0.1 5.1,-3.1 5.2,-3.2 5.2,-3.1"
           id="path264"
           inkscape:connector-curvature="0"
           sodipodi:nodetypes="cccccccccccccccccccccccccccccccccccccccccccccccccccccccccccccccccccccccccccccccccccccccccccccccccccccccccccccccccccccccccccccc" />
      </g>
    </g>
    <g
       style="fill:none; color:black; stroke:currentColor; stroke-width:1.00; stroke-linecap:butt; stroke-linejoin:miter"
       id="g266">
      <path
         stroke="black"
         d="M55.3,16.7 L55.3,242.4 L675.0,242.4 L675.0,16.7 L55.3,16.7 Z  "
         id="path268" />
    </g>
  </g>
</svg>
